<svg version="1.1" xmlns="http://www.w3.org/2000/svg" viewBox="0 0 386 281" width="386" height="281">
  <!-- svg-source:excalidraw -->
  
  <defs>
    <style class="style-fonts">
      @font-face {
        font-family: "Virgil";
        src: url("https://excalidraw.com/Virgil.woff2");
      }
      @font-face {
        font-family: "Cascadia";
        src: url("https://excalidraw.com/Cascadia.woff2");
      }
      @font-face {
        font-family: "Assistant";
        src: url("https://excalidraw.com/Assistant-Regular.woff2");
      }
    </style>
    
  </defs>
  <g transform="translate(77 24) rotate(0 78.5 60.5)" stroke="none"><path fill="#ffffff" d="M 4.94,0.54 Q 4.94,0.54 4.68,3.14 4.42,5.73 3.62,9.10 2.82,12.47 2.58,16.62 2.33,20.77 2.01,25.74 1.69,30.71 1.55,33.37 1.40,36.03 1.39,38.33 1.37,40.63 1.37,43.04 1.37,45.44 1.48,48.99 1.60,52.54 1.68,56.33 1.76,60.12 2.40,64.30 3.05,68.48 3.27,70.90 3.49,73.32 4.45,76.67 5.40,80.02 7.26,83.50 9.12,86.97 10.29,89.10 11.46,91.22 13.93,93.80 16.41,96.38 18.69,98.53 20.98,100.68 23.49,102.73 26.01,104.77 28.46,106.48 30.92,108.19 33.59,109.38 36.27,110.56 39.00,111.70 41.74,112.83 44.34,113.51 46.93,114.19 50.60,114.69 54.27,115.19 58.89,115.85 63.52,116.50 68.25,116.84 72.97,117.19 76.44,117.22 79.91,117.25 82.51,117.13 85.11,117.02 87.70,116.20 90.29,115.38 93.89,113.62 97.49,111.86 102.37,109.37 107.25,106.89 111.93,104.44 116.60,101.99 119.18,99.85 121.75,97.71 123.50,95.45 125.25,93.20 126.79,90.81 128.33,88.42 129.80,85.96 131.27,83.49 132.33,81.15 133.39,78.80 134.00,76.55 134.61,74.31 135.87,71.33 137.13,68.34 138.98,64.64 140.84,60.94 142.11,57.71 143.38,54.48 144.44,51.59 145.51,48.70 146.89,46.03 148.26,43.36 149.34,41.37 150.42,39.38 151.49,36.54 152.57,33.71 153.48,31.44 154.40,29.17 154.73,26.80 155.06,24.44 154.97,21.68 154.89,18.93 154.99,18.20 155.08,17.47 155.35,16.79 155.62,16.10 156.04,15.50 156.47,14.90 157.02,14.42 157.58,13.93 158.23,13.60 158.89,13.26 159.61,13.09 160.32,12.93 161.06,12.93 161.79,12.94 162.51,13.12 163.22,13.31 163.87,13.66 164.52,14.01 165.06,14.50 165.61,14.99 166.02,15.60 166.43,16.21 166.68,16.90 166.94,17.60 167.02,18.33 167.10,19.06 166.94,19.99 166.79,20.93 166.33,21.81 165.86,22.68 165.15,23.36 164.43,24.04 163.54,24.46 162.64,24.87 161.66,24.98 160.68,25.09 159.71,24.88 158.75,24.67 157.90,24.17 157.05,23.66 156.41,22.91 155.77,22.15 155.40,21.24 155.03,20.32 154.98,19.33 154.92,18.35 155.19,17.40 155.45,16.44 156.00,15.62 156.55,14.81 157.34,14.21 158.12,13.61 159.06,13.29 159.99,12.97 160.98,12.97 161.97,12.97 162.91,13.28 163.84,13.59 164.63,14.19 165.42,14.79 165.98,15.60 166.53,16.42 166.80,17.37 167.06,18.32 167.01,19.31 166.96,20.30 166.60,21.21 166.23,22.13 165.60,22.89 164.96,23.64 164.11,24.15 163.27,24.66 162.30,24.88 161.34,25.09 160.36,24.99 159.37,24.88 158.48,24.47 157.58,24.06 156.86,23.38 156.14,22.70 155.68,21.83 155.21,20.96 155.05,19.98 154.89,19.01 154.89,18.97 154.89,18.93 154.99,18.20 155.08,17.47 155.35,16.79 155.62,16.10 156.04,15.50 156.47,14.90 157.02,14.42 157.58,13.93 158.23,13.60 158.89,13.26 159.60,13.10 160.32,12.93 161.06,12.93 161.79,12.94 162.51,13.12 163.22,13.31 163.87,13.66 164.51,14.01 165.06,14.50 165.61,14.99 166.02,15.60 166.43,16.21 166.68,16.90 166.94,17.59 167.02,18.33 167.10,19.06 167.05,20.99 167.00,22.93 166.72,25.15 166.44,27.37 165.69,29.52 164.94,31.67 163.90,33.81 162.86,35.94 161.53,38.21 160.20,40.47 157.98,44.04 155.77,47.61 154.47,49.67 153.17,51.72 152.00,54.54 150.82,57.35 149.52,60.77 148.23,64.20 146.76,68.04 145.28,71.89 144.12,74.47 142.95,77.06 141.92,79.81 140.89,82.56 139.43,85.19 137.98,87.83 136.25,90.32 134.51,92.81 132.57,95.33 130.63,97.85 128.24,100.37 125.86,102.89 122.76,105.21 119.67,107.54 115.07,110.18 110.46,112.82 105.69,115.56 100.92,118.30 96.68,120.71 92.44,123.12 88.76,124.00 85.09,124.87 82.42,124.69 79.75,124.51 76.23,124.39 72.71,124.27 67.76,124.25 62.81,124.23 58.19,124.03 53.58,123.83 49.03,123.68 44.48,123.53 41.28,122.67 38.07,121.81 35.28,120.68 32.49,119.55 28.91,118.11 25.34,116.67 22.57,114.92 19.80,113.16 16.78,111.11 13.76,109.06 11.13,106.99 8.50,104.91 6.47,102.98 4.43,101.05 2.85,98.95 1.28,96.85 0.25,94.97 -0.78,93.09 -2.21,90.73 -3.65,88.38 -4.60,86.17 -5.56,83.96 -6.40,81.45 -7.25,78.94 -7.75,74.68 -8.26,70.41 -8.70,67.90 -9.14,65.38 -9.45,62.75 -9.76,60.13 -9.67,56.32 -9.58,52.51 -9.44,48.92 -9.30,45.34 -9.25,42.86 -9.20,40.38 -9.11,37.96 -9.01,35.54 -8.89,32.51 -8.77,29.48 -8.48,27.08 -8.19,24.68 -8.08,22.45 -7.96,20.22 -7.77,17.65 -7.57,15.09 -7.17,12.70 -6.76,10.32 -6.17,7.47 -5.57,4.61 -5.25,2.03 -4.94,-0.54 -4.80,-1.13 -4.66,-1.71 -4.39,-2.24 -4.11,-2.78 -3.72,-3.23 -3.33,-3.68 -2.84,-4.03 -2.35,-4.37 -1.79,-4.59 -1.23,-4.81 -0.64,-4.89 -0.05,-4.97 0.54,-4.90 1.14,-4.83 1.70,-4.63 2.26,-4.42 2.76,-4.08 3.25,-3.75 3.66,-3.30 4.06,-2.86 4.34,-2.33 4.63,-1.80 4.77,-1.22 4.92,-0.64 4.93,-0.04 4.94,0.54 4.94,0.54 L 4.94,0.54 Z"></path></g><g transform="translate(102 51) rotate(0 22.5 -7.5)" stroke="none"><path fill="#ffffff" d="M -3.51,-3.51 Q -3.51,-3.51 -1.81,-5.27 -0.12,-7.03 1.60,-8.56 3.33,-10.09 5.91,-11.88 8.48,-13.67 11.64,-15.16 14.80,-16.64 18.77,-17.52 22.75,-18.39 25.27,-18.86 27.80,-19.33 30.36,-19.68 32.92,-20.03 35.16,-19.25 37.40,-18.48 39.40,-16.81 41.40,-15.15 43.63,-12.57 45.86,-9.99 46.71,-8.09 47.56,-6.19 47.88,-5.60 48.19,-5.01 48.36,-4.36 48.52,-3.70 48.53,-3.03 48.53,-2.36 48.38,-1.71 48.22,-1.05 47.91,-0.46 47.60,0.13 47.16,0.63 46.72,1.14 46.17,1.53 45.62,1.91 44.99,2.15 44.37,2.40 43.70,2.48 43.03,2.57 42.37,2.49 41.70,2.41 41.07,2.18 40.44,1.95 39.88,1.57 39.33,1.19 38.88,0.69 38.43,0.19 38.72,0.54 39.00,0.88 38.48,0.14 37.97,-0.59 37.72,-1.46 37.46,-2.32 37.50,-3.22 37.54,-4.12 37.86,-4.96 38.18,-5.81 38.76,-6.50 39.33,-7.20 40.10,-7.67 40.87,-8.14 41.74,-8.35 42.62,-8.56 43.52,-8.47 44.42,-8.38 45.24,-8.02 46.06,-7.65 46.72,-7.04 47.39,-6.42 47.82,-5.63 48.25,-4.84 48.41,-3.95 48.57,-3.07 48.43,-2.18 48.30,-1.28 47.89,-0.48 47.47,0.31 46.83,0.94 46.18,1.57 45.37,1.96 44.55,2.34 43.66,2.45 42.76,2.56 41.88,2.38 41.00,2.20 40.22,1.74 39.44,1.29 38.85,0.61 38.26,-0.06 37.91,-0.89 37.57,-1.73 37.51,-2.63 37.45,-3.53 37.68,-4.40 37.91,-5.27 38.40,-6.02 38.90,-6.78 39.61,-7.33 40.32,-7.88 41.17,-8.18 42.02,-8.48 42.92,-8.49 43.83,-8.51 44.68,-8.23 45.54,-7.95 46.55,-7.07 47.56,-6.19 47.88,-5.60 48.19,-5.01 48.36,-4.36 48.52,-3.71 48.53,-3.03 48.53,-2.36 48.38,-1.71 48.22,-1.06 47.91,-0.46 47.60,0.13 47.16,0.63 46.72,1.14 46.17,1.53 45.62,1.91 44.99,2.15 44.37,2.40 43.70,2.48 43.03,2.57 42.37,2.49 41.70,2.41 41.07,2.18 40.44,1.95 39.88,1.57 39.33,1.19 38.88,0.69 38.43,0.19 38.19,-1.32 37.94,-2.84 35.98,-4.88 34.02,-6.92 31.65,-8.26 29.28,-9.60 27.14,-9.36 24.99,-9.11 22.03,-8.31 19.07,-7.50 16.74,-6.39 14.40,-5.28 10.71,-2.57 7.02,0.13 5.26,1.82 3.51,3.51 3.03,3.87 2.56,4.24 2.02,4.49 1.47,4.73 0.88,4.84 0.29,4.95 -0.29,4.91 -0.89,4.88 -1.46,4.70 -2.03,4.52 -2.54,4.21 -3.06,3.90 -3.48,3.48 -3.90,3.06 -4.21,2.54 -4.52,2.03 -4.70,1.46 -4.88,0.89 -4.91,0.29 -4.95,-0.30 -4.84,-0.88 -4.73,-1.47 -4.49,-2.02 -4.24,-2.56 -3.87,-3.03 -3.51,-3.51 -3.51,-3.51 L -3.51,-3.51 Z"></path></g><g transform="translate(134 53) rotate(0 0.5 0)" stroke="none"><path fill="#ffffff" d="M 4.24,-1.32 Q 4.24,-1.32 4.30,-0.26 4.36,0.80 3.93,1.76 3.49,2.73 2.65,3.39 1.82,4.05 0.77,4.24 -0.26,4.43 -1.28,4.11 -2.29,3.80 -3.04,3.04 -3.80,2.29 -4.11,1.28 -4.43,0.26 -4.24,-0.77 -4.04,-1.82 -3.39,-2.65 -2.73,-3.49 -1.76,-3.93 -0.79,-4.36 0.26,-4.30 1.32,-4.23 2.23,-3.68 3.14,-3.13 3.69,-2.23 L 4.24,-1.32 Z"></path></g><g transform="translate(177 49) rotate(0 13.5 -4.5)" stroke="none"><path fill="#ffffff" d="M -4.23,-3.17 Q -4.23,-3.17 -2.48,-5.45 -0.73,-7.73 0.61,-9.44 1.97,-11.15 4.49,-13.71 7.02,-16.28 10.16,-17.75 13.30,-19.22 15.76,-19.05 18.21,-18.87 20.49,-17.31 22.78,-15.75 24.99,-12.29 27.19,-8.84 28.16,-6.50 29.13,-4.17 29.72,-2.84 30.31,-1.51 31.10,-0.84 31.90,-0.17 32.44,0.71 32.97,1.61 33.20,2.62 33.42,3.64 33.31,4.68 33.20,5.71 32.76,6.66 32.33,7.60 31.61,8.36 30.90,9.12 29.98,9.61 29.06,10.10 28.03,10.26 27.00,10.43 25.97,10.27 24.94,10.10 24.02,9.61 23.10,9.12 22.38,8.37 21.67,7.61 21.23,6.67 20.79,5.72 20.68,4.69 20.57,3.65 20.79,2.63 21.01,1.62 21.55,0.72 22.08,-0.16 22.88,-0.84 23.67,-1.51 24.64,-1.90 25.61,-2.28 26.65,-2.34 27.69,-2.40 28.69,-2.12 29.70,-1.84 30.56,-1.26 31.42,-0.67 32.05,0.15 32.68,0.98 33.02,1.96 33.35,2.95 33.35,3.99 33.35,5.03 33.02,6.02 32.69,7.01 32.06,7.84 31.43,8.67 30.56,9.25 29.70,9.84 28.70,10.12 27.69,10.40 26.65,10.34 25.61,10.28 24.65,9.90 23.68,9.51 23.68,9.51 23.68,9.51 20.98,6.38 18.27,3.25 17.32,0.67 16.37,-1.89 14.37,-4.17 12.37,-6.45 10.00,-3.95 7.63,-1.46 5.93,0.85 4.23,3.17 3.79,3.63 3.35,4.09 2.81,4.43 2.27,4.78 1.66,4.98 1.06,5.18 0.42,5.23 -0.20,5.29 -0.83,5.18 -1.46,5.08 -2.05,4.83 -2.64,4.58 -3.15,4.20 -3.66,3.82 -4.06,3.32 -4.47,2.83 -4.74,2.25 -5.02,1.68 -5.14,1.05 -5.27,0.43 -5.25,-0.20 -5.22,-0.84 -5.04,-1.45 -4.87,-2.07 -4.55,-2.62 -4.23,-3.17 -4.23,-3.17 L -4.23,-3.17 Z"></path></g><g transform="translate(196 65) rotate(0 0.00004999999998744897 0.00004999999998744897)" stroke="none"><path fill="#ffffff" d="M 3.14,-3.14 Q 3.14,-3.14 3.55,-2.55 3.97,-1.97 4.18,-1.28 4.40,-0.59 4.38,0.11 4.36,0.83 4.11,1.51 3.86,2.18 3.41,2.74 2.96,3.30 2.36,3.69 1.75,4.08 1.05,4.25 0.36,4.42 -0.35,4.36 -1.07,4.31 -1.73,4.02 -2.39,3.74 -2.92,3.26 -3.46,2.78 -3.81,2.15 -4.16,1.53 -4.30,0.82 -4.43,0.11 -4.34,-0.59 -4.24,-1.30 -3.92,-1.94 -3.60,-2.59 -3.09,-3.09 -2.59,-3.60 -1.94,-3.92 -1.30,-4.24 -0.59,-4.34 0.12,-4.43 0.82,-4.30 1.53,-4.16 2.15,-3.81 2.78,-3.46 3.26,-2.92 3.74,-2.39 4.02,-1.73 4.31,-1.07 4.36,-0.35 4.42,0.36 4.25,1.05 4.07,1.75 3.69,2.36 3.30,2.96 2.74,3.41 2.18,3.86 1.51,4.11 0.83,4.36 0.11,4.38 -0.60,4.40 -1.28,4.18 -1.97,3.97 -2.55,3.55 -3.14,3.13 -3.14,3.14 -3.14,3.14 -3.47,2.71 -3.80,2.29 -4.02,1.80 -4.24,1.32 -4.33,0.79 -4.43,0.26 -4.40,-0.26 -4.36,-0.80 -4.20,-1.31 -4.04,-1.82 -3.77,-2.28 -3.49,-2.73 -3.11,-3.11 -2.73,-3.49 -2.28,-3.77 -1.82,-4.05 -1.31,-4.20 -0.80,-4.36 -0.26,-4.40 0.26,-4.43 0.79,-4.33 1.32,-4.24 1.80,-4.02 2.29,-3.80 2.71,-3.47 3.14,-3.14 3.14,-3.14 L 3.14,-3.14 Z"></path></g><g transform="translate(156 102) rotate(0 10 0.5)" stroke="none"><path fill="#ffffff" d="M 3.76,-3.76 Q 3.76,-3.76 5.23,-2.36 6.71,-0.96 9.36,-2.42 12.00,-3.89 13.21,-5.80 14.42,-7.72 15.01,-8.54 15.59,-9.35 16.40,-9.94 17.21,-10.53 18.17,-10.83 19.12,-11.13 20.13,-11.11 21.13,-11.09 22.07,-10.75 23.02,-10.41 23.80,-9.79 24.59,-9.16 25.13,-8.32 25.68,-7.48 25.92,-6.50 26.17,-5.53 26.10,-4.53 26.02,-3.53 25.63,-2.61 25.24,-1.68 24.57,-0.93 23.91,-0.18 23.04,0.30 22.17,0.80 21.18,1.00 20.20,1.19 19.20,1.06 18.21,0.93 17.31,0.49 16.41,0.05 15.69,-0.64 14.98,-1.35 14.53,-2.25 14.08,-3.14 13.94,-4.14 13.80,-5.13 13.98,-6.12 14.16,-7.10 14.65,-7.98 15.14,-8.85 15.88,-9.53 16.63,-10.20 17.55,-10.60 18.47,-11.00 19.47,-11.09 20.46,-11.18 21.44,-10.94 22.41,-10.70 23.26,-10.17 24.11,-9.63 24.74,-8.85 25.38,-8.08 25.73,-7.14 26.08,-6.20 26.11,-5.19 26.14,-4.19 25.85,-3.23 25.56,-2.27 25.56,-2.27 25.57,-2.27 22.63,1.57 19.70,5.43 16.07,7.82 12.44,10.22 7.86,10.32 3.28,10.42 1.15,8.56 -0.96,6.71 -2.36,5.23 -3.76,3.76 -4.15,3.25 -4.55,2.75 -4.81,2.16 -5.08,1.58 -5.19,0.95 -5.31,0.32 -5.27,-0.31 -5.23,-0.95 -5.04,-1.57 -4.85,-2.18 -4.52,-2.73 -4.18,-3.28 -3.73,-3.73 -3.28,-4.18 -2.73,-4.52 -2.18,-4.85 -1.57,-5.04 -0.95,-5.23 -0.31,-5.27 0.32,-5.31 0.95,-5.19 1.58,-5.07 2.16,-4.81 2.75,-4.55 3.25,-4.15 3.76,-3.76 3.76,-3.76 L 3.76,-3.76 Z"></path></g><g transform="translate(107 23) rotate(0 23.5 -6.5)" stroke="none"><path fill="#ffffff" d="M -3.00,-3.00 Q -3.00,-3.00 -1.02,-5.07 0.95,-7.15 6.14,-9.88 11.33,-12.62 17.01,-13.74 22.69,-14.87 27.37,-15.24 32.05,-15.61 35.75,-15.32 39.45,-15.04 41.93,-14.74 44.40,-14.44 44.58,-13.67 44.76,-12.89 45.21,-12.74 45.67,-12.60 46.08,-12.34 46.48,-12.09 46.82,-11.75 47.15,-11.40 47.39,-10.99 47.64,-10.58 47.77,-10.12 47.91,-9.66 47.93,-9.18 47.95,-8.71 47.86,-8.24 47.77,-7.77 47.57,-7.33 47.37,-6.90 47.07,-6.53 46.77,-6.15 46.39,-5.86 46.01,-5.57 45.57,-5.38 45.13,-5.19 44.66,-5.11 44.18,-5.03 43.71,-5.06 43.23,-5.10 43.16,-5.11 43.09,-5.13 42.49,-5.38 41.90,-5.62 41.42,-6.04 40.93,-6.47 40.61,-7.02 40.29,-7.58 40.16,-8.21 40.03,-8.84 40.11,-9.47 40.18,-10.11 40.46,-10.69 40.74,-11.27 41.19,-11.73 41.64,-12.19 42.21,-12.48 42.78,-12.78 43.42,-12.87 44.05,-12.97 44.68,-12.85 45.32,-12.74 45.88,-12.43 46.44,-12.12 46.88,-11.65 47.31,-11.18 47.57,-10.59 47.84,-10.00 47.90,-9.36 47.96,-8.72 47.81,-8.10 47.66,-7.47 47.32,-6.93 46.98,-6.38 46.49,-5.97 45.99,-5.56 45.39,-5.33 44.79,-5.11 44.15,-5.08 43.51,-5.05 42.89,-5.23 42.28,-5.42 41.75,-5.78 41.22,-6.15 40.84,-6.67 40.46,-7.18 40.26,-7.80 40.07,-8.41 40.08,-9.05 40.09,-9.69 40.30,-10.30 40.51,-10.90 40.91,-11.41 41.31,-11.92 41.84,-12.27 42.38,-12.62 43.00,-12.78 43.62,-12.95 44.19,-12.92 44.76,-12.89 45.21,-12.74 45.67,-12.60 46.08,-12.34 46.48,-12.09 46.82,-11.75 47.15,-11.40 47.39,-10.99 47.64,-10.58 47.77,-10.12 47.91,-9.66 47.93,-9.18 47.96,-8.71 47.86,-8.24 47.77,-7.77 47.57,-7.33 47.37,-6.90 47.07,-6.53 46.77,-6.15 46.39,-5.86 46.01,-5.57 45.57,-5.38 45.13,-5.19 44.66,-5.11 44.19,-5.03 43.71,-5.06 43.23,-5.10 43.04,-5.98 42.84,-6.87 40.75,-7.47 38.67,-8.07 35.69,-8.54 32.71,-9.01 28.45,-8.44 24.18,-7.88 19.63,-6.81 15.08,-5.74 11.08,-3.32 7.09,-0.89 5.04,1.05 3.00,3.00 2.60,3.32 2.19,3.63 1.73,3.84 1.26,4.05 0.76,4.14 0.25,4.24 -0.25,4.21 -0.76,4.17 -1.25,4.02 -1.74,3.87 -2.18,3.61 -2.62,3.34 -2.98,2.98 -3.34,2.62 -3.61,2.18 -3.87,1.74 -4.02,1.25 -4.17,0.76 -4.21,0.25 -4.24,-0.25 -4.14,-0.76 -4.05,-1.26 -3.84,-1.73 -3.63,-2.19 -3.32,-2.60 -3.00,-3.00 -3.00,-3.00 L -3.00,-3.00 Z"></path></g><g transform="translate(188 13) rotate(0 11.5 12.5)" stroke="none"><path fill="#ffffff" d="M 2.35,-4.71 Q 2.35,-4.71 4.13,-3.88 5.92,-3.06 8.16,-1.13 10.41,0.79 12.26,2.61 14.12,4.44 17.25,7.48 20.39,10.52 21.99,12.36 23.59,14.20 25.89,18.07 28.18,21.94 28.53,22.85 28.88,23.76 28.93,24.73 28.97,25.70 28.70,26.64 28.43,27.57 27.88,28.37 27.32,29.18 26.54,29.76 25.76,30.34 24.84,30.64 23.91,30.94 22.94,30.93 21.96,30.92 21.04,30.60 20.13,30.28 19.36,29.69 18.59,29.09 18.05,28.28 17.51,27.47 17.26,26.53 17.01,25.59 17.07,24.62 17.13,23.64 17.50,22.74 17.87,21.84 18.51,21.11 19.14,20.37 19.98,19.88 20.82,19.38 21.78,19.18 22.73,18.98 23.69,19.10 24.66,19.21 25.54,19.63 26.42,20.05 27.12,20.72 27.82,21.40 28.27,22.27 28.72,23.13 28.86,24.09 29.01,25.05 28.85,26.01 28.68,26.97 28.21,27.83 27.75,28.68 27.04,29.35 26.32,30.01 25.44,30.41 24.55,30.81 23.58,30.90 22.61,31.00 21.66,30.78 20.71,30.56 19.88,30.05 19.05,29.54 18.43,28.79 17.81,28.05 17.81,28.05 17.81,28.05 16.85,25.84 15.90,23.63 14.20,21.01 12.50,18.39 9.49,15.32 6.47,12.24 3.72,9.37 0.97,6.51 -0.68,5.61 -2.35,4.71 -2.88,4.36 -3.41,4.01 -3.84,3.54 -4.27,3.07 -4.58,2.52 -4.88,1.96 -5.05,1.35 -5.21,0.73 -5.22,0.10 -5.24,-0.53 -5.10,-1.15 -4.96,-1.77 -4.67,-2.33 -4.39,-2.90 -3.98,-3.38 -3.56,-3.87 -3.05,-4.24 -2.53,-4.61 -1.94,-4.85 -1.36,-5.08 -0.73,-5.17 -0.10,-5.26 0.52,-5.20 1.16,-5.13 1.75,-4.92 2.35,-4.71 2.35,-4.71 L 2.35,-4.71 Z"></path></g><g transform="translate(98 141) rotate(0 95 13.5)" stroke="none"><path fill="#ffffff" d="M 0,4.12 Q 0,4.12 -2.3,4.25 -4.6,4.38 -8.01,4.88 -11.42,5.38 -16.20,6.33 -20.98,7.27 -26.69,8.28 -32.41,9.30 -38.05,10.49 -43.70,11.69 -48.75,12.71 -53.80,13.73 -57.20,14.33 -60.59,14.94 -63.00,16.11 -65.41,17.28 -67.72,19.72 -70.03,22.16 -72.72,24.15 -75.42,26.14 -77.05,27.86 -78.68,29.58 -80.56,31.97 -82.45,34.36 -79.84,32.93 -77.23,31.50 -73.27,31.43 -69.31,31.36 -63.99,31.12 -58.67,30.88 -53.54,30.36 -48.40,29.84 -44.25,29.16 -40.10,28.48 -36.37,28.07 -32.64,27.65 -29.48,27.16 -26.33,26.67 -22.04,25.71 -17.75,24.74 -14.14,24.38 -10.53,24.02 -8.40,23.83 -6.26,23.64 -3.24,24.83 -0.21,26.01 0.63,28.66 1.49,31.31 0.91,35.03 0.34,38.74 -0.16,42.21 -0.66,45.68 -1.47,48.16 -2.29,50.64 -3.23,54.41 -4.17,58.18 -5.23,62.10 -6.28,66.02 -7.28,69.27 -8.27,72.52 -8.71,75.51 -9.15,78.50 -9.74,82.01 -10.33,85.51 -10.62,88.81 -10.91,92.10 -11.03,95.24 -11.14,98.37 -11.15,101.14 -11.15,103.91 -11.00,107.96 -10.84,112.00 -10.04,114.00 -9.24,115.99 -7.12,117.26 -4.99,118.53 -4.11,115.67 -3.23,112.81 -2.25,110.87 -1.27,108.93 -0.28,106.80 0.71,104.67 3.51,101.58 6.31,98.48 7.70,96.77 9.09,95.05 11.41,92.01 13.74,88.97 15.22,87.20 16.70,85.43 19.08,84.60 21.45,83.78 23.91,83.67 26.38,83.55 28.88,83.89 31.38,84.23 33.99,84.92 36.60,85.62 38.93,86.70 41.25,87.77 43.63,89.64 46.01,91.52 47.24,93.69 48.47,95.86 49.67,97.85 50.86,99.83 51.49,102.09 52.11,104.34 52.61,107.89 53.12,111.45 53.14,114.17 53.16,116.89 53.36,119.19 53.56,121.48 57.33,120.21 61.10,118.95 64.07,117.29 67.05,115.63 67.51,113.25 67.97,110.87 67.94,107.77 67.90,104.67 67.90,102.18 67.90,99.69 67.90,96.30 67.89,92.91 68.16,87.78 68.42,82.64 68.54,79.87 68.66,77.10 68.70,74.77 68.75,72.44 68.77,70.29 68.78,68.15 69.10,65.88 69.41,63.62 69.86,61.36 70.31,59.10 70.46,56.60 70.61,54.10 70.53,51.92 70.46,49.73 70.90,47.33 71.33,44.93 71.22,42.32 71.12,39.72 72.06,36.78 73.00,33.85 74.62,32.47 76.25,31.10 78.49,30.57 80.72,30.05 83.68,29.96 86.63,29.88 89.21,29.19 91.79,28.51 93.97,27.91 96.14,27.31 98.26,26.63 100.37,25.95 104.07,25.08 107.77,24.20 110.07,23.76 112.37,23.32 114.83,23.09 117.29,22.87 119.42,22.57 121.55,22.28 125.39,21.91 129.23,21.53 132.80,20.91 136.38,20.29 139.93,19.52 143.48,18.76 146.51,18.06 149.53,17.36 152.21,16.34 154.88,15.31 157.95,14.25 161.01,13.18 163.51,12.35 166.01,11.51 168.99,9.72 171.98,7.93 174.90,6.60 177.83,5.27 180.30,3.96 182.77,2.65 185.45,1.40 188.14,0.16 190.31,-0.92 192.48,-2.01 194.98,-3.46 197.47,-4.91 199.39,-6.18 201.32,-7.46 203.46,-9.03 205.60,-10.60 208.13,-12.25 210.66,-13.89 213.03,-15.60 215.40,-17.30 217.14,-18.86 218.88,-20.42 220.44,-21.95 222.00,-23.48 224.73,-25.57 227.47,-27.66 231.01,-28.22 234.55,-28.77 236.73,-27.54 238.90,-26.31 241.69,-25.91 244.47,-25.52 248.17,-25.48 251.86,-25.44 255.12,-25.66 258.38,-25.89 260.42,-26.95 262.46,-28.01 264.69,-30.98 266.93,-33.95 268.97,-37.00 271.01,-40.06 271.17,-42.24 271.32,-44.43 271.33,-46.88 271.34,-49.33 271.13,-51.50 270.91,-53.67 269.53,-56.83 268.15,-59.99 265.82,-61.71 263.48,-63.43 259.93,-65.58 256.37,-67.72 256.13,-71.95 255.88,-76.17 256.96,-78.18 258.03,-80.20 261.01,-83.27 263.99,-86.33 265.24,-88.77 266.49,-91.20 268.36,-93.36 270.22,-95.53 267.40,-94.58 264.59,-93.63 262.30,-91.19 260.02,-88.75 258.02,-87.22 256.02,-85.69 254.15,-84.01 252.28,-82.32 250.07,-80.71 247.86,-79.09 245.65,-78.63 243.43,-78.18 240.94,-78.07 238.45,-77.97 235.46,-77.93 232.47,-77.88 228.48,-77.42 224.49,-76.95 225.04,-74.43 225.58,-71.90 227.51,-68.86 229.44,-65.81 230.34,-63.37 231.24,-60.92 231.90,-58.59 232.56,-56.25 232.67,-52.86 232.78,-49.47 231.69,-47.49 230.60,-45.50 226.66,-44.24 222.72,-42.98 220.31,-42.10 217.89,-41.22 214.61,-40.46 211.34,-39.70 207.60,-39.37 203.86,-39.03 201.47,-38.44 199.08,-37.85 196.05,-37.07 193.02,-36.28 191.01,-35.37 188.99,-34.46 186.53,-34.15 184.07,-33.85 181.41,-32.49 178.74,-31.13 176.33,-30.08 173.91,-29.03 171.92,-28.16 169.94,-27.28 166.89,-26.14 163.85,-25.01 160.80,-23.57 157.76,-22.13 155.38,-20.84 153.00,-19.55 150.92,-18.30 148.83,-17.04 146.47,-15.97 144.12,-14.90 142.04,-14.05 139.96,-13.21 137.74,-12.03 135.53,-10.86 132.75,-10.05 129.98,-9.24 127.88,-8.29 125.79,-7.34 123.74,-6.33 121.69,-5.31 118.43,-4.36 115.16,-3.40 112.43,-2.73 109.70,-2.06 106.57,-1.59 103.45,-1.12 101.11,-0.51 98.77,0.09 96.20,0.94 93.63,1.79 89.07,2.53 84.51,3.27 83.34,3.16 82.16,3.06 81.09,2.58 80.01,2.10 79.14,1.31 78.26,0.51 77.69,-0.51 77.12,-1.55 76.91,-2.71 76.70,-3.87 76.87,-5.04 77.04,-6.21 77.58,-7.26 78.11,-8.31 78.96,-9.14 79.80,-9.96 80.86,-10.48 81.92,-10.99 83.09,-11.14 84.27,-11.28 85.42,-11.05 86.58,-10.82 87.60,-10.23 88.62,-9.63 89.40,-8.75 90.18,-7.86 90.64,-6.77 91.09,-5.68 91.18,-4.51 91.26,-3.33 90.96,-2.19 90.67,-1.05 90.02,-0.06 89.38,0.92 88.45,1.65 87.52,2.38 86.41,2.78 85.30,3.17 84.12,3.19 82.94,3.21 81.81,2.85 80.69,2.50 79.74,1.80 78.79,1.10 78.11,0.13 77.43,-0.82 77.09,-1.95 76.76,-3.08 76.80,-4.26 76.85,-5.44 77.26,-6.55 77.68,-7.65 78.43,-8.56 79.18,-9.47 80.18,-10.10 81.18,-10.72 82.33,-11.00 83.48,-11.27 83.48,-11.27 83.48,-11.27 83.14,-10.60 82.80,-9.93 84.75,-10.87 86.71,-11.81 89.79,-12.54 92.87,-13.26 95.39,-13.61 97.91,-13.96 100.06,-14.60 102.21,-15.24 105.85,-15.73 109.49,-16.23 111.69,-16.72 113.89,-17.20 116.24,-18.21 118.59,-19.22 121.39,-20.37 124.20,-21.51 127.75,-22.55 131.30,-23.59 134.45,-25.19 137.60,-26.80 140.00,-27.77 142.40,-28.73 144.95,-30.16 147.50,-31.59 149.84,-32.67 152.18,-33.75 155.40,-35.25 158.62,-36.76 161.31,-38.17 164.00,-39.58 166.04,-40.65 168.08,-41.71 171.35,-43.53 174.61,-45.35 177.15,-46.27 179.69,-47.20 183.58,-48.23 187.47,-49.27 189.73,-49.76 192.00,-50.25 194.72,-51.25 197.44,-52.25 200.32,-52.72 203.19,-53.19 205.52,-53.40 207.85,-53.60 210.95,-54.38 214.06,-55.16 216.82,-56.22 219.58,-57.28 221.69,-57.70 223.80,-58.12 222.41,-56.04 221.02,-53.96 220.94,-51.56 220.86,-49.16 219.80,-51.48 218.73,-53.80 217.77,-56.54 216.81,-59.28 215.36,-61.56 213.91,-63.84 213.16,-66.01 212.41,-68.18 211.19,-70.51 209.97,-72.83 209.57,-75.68 209.17,-78.53 209.90,-80.95 210.63,-83.36 213.23,-85.65 215.83,-87.93 218.90,-89.09 221.96,-90.25 224.37,-90.76 226.78,-91.27 231.54,-91.68 236.31,-92.09 238.79,-91.61 241.27,-91.12 243.11,-92.86 244.95,-94.61 247.58,-96.91 250.22,-99.22 253.01,-101.64 255.80,-104.06 257.82,-105.54 259.83,-107.02 261.92,-107.85 264.01,-108.67 268.75,-109.30 273.49,-109.93 276.05,-108.30 278.61,-106.67 280.95,-103.87 283.29,-101.07 283.60,-96.92 283.92,-92.77 282.92,-90.16 281.92,-87.56 279.93,-85.19 277.94,-82.82 276.20,-80.01 274.47,-77.21 271.76,-75.28 269.05,-73.36 267.38,-75.44 265.72,-77.53 267.68,-76.51 269.64,-75.49 272.79,-73.63 275.95,-71.77 278.47,-68.07 281.00,-64.37 282.46,-60.46 283.92,-56.55 284.26,-52.85 284.60,-49.16 284.51,-46.38 284.42,-43.61 283.90,-40.26 283.38,-36.91 281.48,-33.31 279.57,-29.71 278.08,-27.43 276.58,-25.14 274.27,-22.31 271.96,-19.48 269.41,-17.54 266.87,-15.59 263.67,-14.42 260.48,-13.25 256.16,-12.91 251.83,-12.56 249.69,-12.53 247.55,-12.51 244.52,-12.59 241.49,-12.68 239.35,-13.35 237.21,-14.02 235.21,-16.15 233.21,-18.28 231.12,-17.09 229.04,-15.90 227.25,-14.32 225.47,-12.74 223.39,-11.02 221.32,-9.30 218.76,-7.37 216.20,-5.43 213.92,-3.92 211.63,-2.41 209.20,-0.61 206.76,1.18 204.69,2.42 202.62,3.66 199.77,5.42 196.92,7.18 194.63,8.24 192.35,9.29 189.95,10.39 187.55,11.49 184.83,12.98 182.12,14.47 177.72,16.64 173.32,18.81 171.07,19.74 168.82,20.67 166.48,21.32 164.14,21.96 161.22,23.03 158.29,24.10 155.01,25.39 151.73,26.67 148.85,27.36 145.96,28.05 142.39,29.18 138.81,30.32 135.07,31.47 131.34,32.63 127.45,33.72 123.56,34.81 119.33,35.44 115.10,36.07 112.99,36.57 110.88,37.08 107.89,37.77 104.89,38.47 100.70,40.01 96.51,41.54 93.96,42.45 91.42,43.37 86.97,43.45 82.53,43.52 83.70,41.64 84.87,39.77 84.75,42.14 84.63,44.51 84.07,47.15 83.52,49.79 83.34,52.39 83.16,54.99 82.82,58.18 82.47,61.37 81.84,64.77 81.21,68.17 81.22,70.30 81.24,72.44 81.29,74.77 81.33,77.10 81.45,79.87 81.57,82.64 81.83,87.78 82.10,92.91 82.09,96.30 82.09,99.69 82.09,102.18 82.09,104.67 82.06,107.27 82.03,109.87 81.95,112.13 81.87,114.38 81.48,116.84 81.09,119.29 79.24,122.03 77.39,124.77 74.06,127.11 70.72,129.46 68.71,130.60 66.69,131.75 63.43,133.42 60.16,135.09 55.36,135.76 50.56,136.43 47.83,134.92 45.09,133.40 43.54,131.70 41.99,130.00 40.78,127.38 39.58,124.77 39.19,121.75 38.80,118.73 38.78,116.52 38.76,114.31 38.74,111.78 38.72,109.25 38.15,105.73 37.57,102.21 35.90,100.80 34.22,99.39 31.40,98.48 28.57,97.56 26.56,95.98 24.55,94.40 22.82,96.69 21.09,98.99 19.80,100.74 18.52,102.49 16.94,104.53 15.37,106.57 13.90,108.25 12.44,109.93 10.68,114.11 8.92,118.29 6.89,122.23 4.85,126.17 3.40,128.16 1.95,130.14 -1.64,131.13 -5.23,132.11 -8.30,130.81 -11.37,129.51 -13.12,128.03 -14.88,126.54 -16.09,124.61 -17.30,122.68 -18.44,120.80 -19.59,118.92 -20.36,115.47 -21.13,112.01 -20.93,107.91 -20.74,103.80 -20.68,100.97 -20.62,98.14 -20.58,94.87 -20.54,91.59 -20.46,87.92 -20.38,84.26 -20.10,80.84 -19.83,77.43 -19.59,73.62 -19.35,69.81 -18.74,66.53 -18.13,63.24 -17.58,60.79 -17.03,58.34 -15.85,54.82 -14.68,51.30 -13.74,47.88 -12.80,44.46 -12.57,42.15 -12.34,39.84 -11.62,37.15 -10.89,34.45 -10.30,31.99 -9.71,29.53 -8.76,31.88 -7.81,34.24 -10.64,34.08 -13.46,33.93 -17.15,33.93 -20.83,33.93 -23.01,34.30 -25.19,34.67 -28.47,35.10 -31.75,35.52 -35.06,35.90 -38.37,36.28 -42.66,37.48 -46.94,38.68 -52.19,39.87 -57.44,41.05 -63.03,42.13 -68.62,43.21 -72.69,43.81 -76.76,44.42 -79.78,45.29 -82.79,46.16 -85.33,45.76 -87.87,45.36 -90.22,43.14 -92.58,40.92 -92.89,37.33 -93.20,33.74 -92.07,30.95 -90.95,28.17 -88.30,25.43 -85.65,22.68 -83.44,20.53 -81.23,18.38 -78.97,16.66 -76.70,14.95 -72.74,12.09 -68.77,9.23 -65.26,8.40 -61.74,7.57 -58.60,7.16 -55.46,6.76 -50.55,5.41 -45.64,4.06 -40.02,2.39 -34.40,0.71 -28.49,-0.96 -22.59,-2.64 -19.85,-3.09 -17.11,-3.54 -14.98,-3.89 -12.86,-4.23 -8.73,-4.31 -4.6,-4.38 -2.3,-4.25 0,-4.12 0.49,-4.06 0.98,-4.00 1.45,-3.82 1.91,-3.65 2.32,-3.37 2.73,-3.08 3.06,-2.71 3.39,-2.34 3.62,-1.90 3.85,-1.46 3.97,-0.97 4.09,-0.49 4.09,0.00 4.09,0.49 3.97,0.98 3.85,1.46 3.62,1.90 3.39,2.34 3.06,2.71 2.73,3.08 2.32,3.37 1.91,3.65 1.45,3.82 0.98,4.00 0.49,4.06 -0.00,4.12 -0.00,4.12 L 0,4.12 Z"></path></g></svg>