<svg version="1.1" xmlns="http://www.w3.org/2000/svg" viewBox="0 0 982.4999999999989 526.2499999999998" width="982.4999999999989" height="526.2499999999998">
  <!-- svg-source:excalidraw -->
  
  <defs>
    <style class="style-fonts">
      @font-face {
        font-family: "Virgil";
        src: url("https://excalidraw.com/Virgil.woff2");
      }
      @font-face {
        font-family: "Cascadia";
        src: url("https://excalidraw.com/Cascadia.woff2");
      }
      @font-face {
        font-family: "Assistant";
        src: url("https://excalidraw.com/Assistant-Regular.woff2");
      }
    </style>
    
  </defs>
  <g stroke-linecap="round" transform="translate(422.7499999999993 227.49999999999977) rotate(0 68.75 68.75)"><path d="M12.02 31.65 C12.02 31.65, 12.02 31.65, 12.02 31.65 M12.02 31.65 C12.02 31.65, 12.02 31.65, 12.02 31.65 M2.45 67.05 C14.44 51.82, 27.27 37.38, 59.52 1.39 M2.45 67.05 C23.82 42.82, 45.16 17.5, 59.52 1.39 M4.68 88.87 C30.82 59.36, 52.98 30.03, 79.47 2.83 M4.68 88.87 C32.4 58.19, 58.5 26.58, 79.47 2.83 M12.16 104.65 C32.09 80.67, 52.72 56.95, 96.8 7.29 M12.16 104.65 C40.92 70.77, 72.54 34.57, 96.8 7.29 M21.62 118.17 C56.73 77.37, 90.88 37.37, 110.84 15.53 M21.62 118.17 C47.25 89.15, 73.47 60.53, 110.84 15.53 M35 127.15 C68.62 92.71, 99.51 55.41, 122.26 26.78 M35 127.15 C68.58 87.59, 102.14 48.24, 122.26 26.78 M50.36 133.88 C76.29 102.86, 103.56 71.39, 131.05 41.05 M50.36 133.88 C72.85 108.27, 97.85 80.3, 131.05 41.05 M69.65 136.07 C91.3 112.64, 109.58 88.75, 135.26 60.6 M69.65 136.07 C91.8 111.16, 114.87 85.23, 135.26 60.6 M95.5 130.72 C108.84 115.69, 124.17 98.11, 134.21 86.19 M95.5 130.72 C104.99 119.89, 116.24 108.06, 134.21 86.19" stroke="#e9ecef" stroke-width="2" fill="none"></path><path d="M63.62 -0.21 C73.02 -2.14, 83.6 1.31, 92.85 4.81 C102.09 8.31, 112.1 13.74, 119.11 20.81 C126.12 27.88, 132.09 37.6, 134.89 47.25 C137.68 56.89, 137.21 68.72, 135.88 78.68 C134.55 88.65, 132.18 98.98, 126.92 107.03 C121.66 115.08, 113.01 122.1, 104.33 126.98 C95.64 131.85, 84.72 135.31, 74.8 136.3 C64.88 137.3, 54.16 136.24, 44.81 132.96 C35.47 129.68, 25.55 123.65, 18.75 116.63 C11.95 109.6, 6.92 100.35, 4.01 90.79 C1.09 81.24, -0.1 69.18, 1.26 59.3 C2.61 49.42, 6.61 39.67, 12.14 31.51 C17.67 23.36, 25.21 15.76, 34.43 10.38 C43.64 5, 61.22 0.89, 67.42 -0.75 C73.62 -2.39, 71.69 -0.84, 71.64 0.54 M66.51 -0.32 C76.06 -1.91, 86.45 1.74, 95.26 5.9 C104.07 10.07, 112.77 17.46, 119.36 24.67 C125.95 31.87, 131.95 39.81, 134.78 49.12 C137.62 58.44, 138.31 70.6, 136.39 80.56 C134.48 90.52, 128.99 101.02, 123.32 108.89 C117.65 116.77, 111.03 123.24, 102.36 127.79 C93.69 132.33, 81.3 135.47, 71.31 136.17 C61.32 136.87, 51.64 135.86, 42.43 131.96 C33.23 128.07, 22.52 120.34, 16.1 112.81 C9.68 105.29, 6.67 96.08, 3.93 86.8 C1.19 77.53, -1.67 66.77, -0.33 57.17 C1.01 47.56, 5.89 37.15, 11.95 29.17 C18.01 21.19, 26.92 14.15, 36.03 9.31 C45.15 4.47, 61.88 1.38, 66.64 0.15 C71.4 -1.09, 64.7 0.97, 64.61 1.9" stroke="#1e1e1e" stroke-width="4" fill="none"></path></g><g stroke-linecap="round" transform="translate(448.9999999999993 256.2499999999998) rotate(0 42.5 42.5)"><path d="M16.6 7.7 C22.36 2.41, 33.83 -0.59, 41.53 -1.24 C49.22 -1.9, 56.36 -0.22, 62.76 3.79 C69.16 7.79, 76.03 15.57, 79.93 22.77 C83.83 29.97, 86.76 39.58, 86.18 47 C85.6 54.42, 81.4 61.66, 76.45 67.28 C71.5 72.89, 63.8 78.01, 56.47 80.67 C49.15 83.33, 39.59 84.71, 32.49 83.25 C25.38 81.78, 19.07 77.29, 13.85 71.9 C8.62 66.52, 2.67 58.37, 1.15 50.94 C-0.37 43.51, -0.71 35.83, 4.72 27.32 C10.14 18.82, 26.37 4.08, 33.69 -0.09 C41.01 -4.26, 48.54 1.47, 48.63 2.31 M63.83 8.03 C70.46 12.43, 78.81 21.75, 82.16 28.95 C85.52 36.15, 84.93 44.53, 83.98 51.24 C83.03 57.96, 81.23 63.67, 76.48 69.22 C71.73 74.78, 63.4 82.39, 55.5 84.57 C47.6 86.76, 37.16 84.93, 29.1 82.34 C21.05 79.76, 12.08 75.03, 7.17 69.05 C2.27 63.07, -0.19 54.12, -0.35 46.44 C-0.51 38.76, 2.5 30.14, 6.21 22.98 C9.93 15.81, 16.08 7.37, 21.96 3.46 C27.84 -0.45, 33.96 -1.19, 41.52 -0.51 C49.07 0.17, 63.57 5.9, 67.3 7.54 C71.03 9.18, 63.96 9.11, 63.89 9.32" stroke="#1e1e1e" stroke-width="4" fill="none"></path></g><g stroke-linecap="round" transform="translate(341.49999999999955 10) rotate(0 149.9999999999999 47.499999999999886)"><path d="M5.67 6.25 C5.67 6.25, 5.67 6.25, 5.67 6.25 M5.67 6.25 C5.67 6.25, 5.67 6.25, 5.67 6.25 M0.68 36.37 C12.82 23.53, 20.57 10.77, 32.17 0.14 M0.68 36.37 C12.9 23.93, 23.42 10.25, 32.17 0.14 M0.29 61.21 C12.45 45.98, 25.47 31.02, 53.43 0.07 M0.29 61.21 C18.15 40.16, 38.51 16.92, 53.43 0.07 M2.53 83.02 C30.88 50.01, 58.4 17.64, 74.69 0.01 M2.53 83.02 C23.28 59.46, 44.61 36.47, 74.69 0.01 M13.95 94.28 C45.63 62.01, 74.6 26.92, 95.95 -0.06 M13.95 94.28 C45.51 57.08, 77.02 20.09, 95.95 -0.06 M34.55 94.96 C60.93 63.44, 88.64 31.46, 116.56 0.62 M34.55 94.96 C57.42 68.93, 82.8 40.52, 116.56 0.62 M55.81 94.89 C82.58 65.61, 105.83 35.99, 137.82 0.55 M55.81 94.89 C83.62 63.58, 112.2 31.31, 137.82 0.55 M77.07 94.82 C105.51 62.29, 135.8 27.51, 159.08 0.48 M77.07 94.82 C97.74 70.8, 120.4 45.85, 159.08 0.48 M98.33 94.75 C122.11 69.04, 145.68 40.67, 180.34 0.42 M98.33 94.75 C126.93 62.81, 154.41 29.55, 180.34 0.42 M118.94 95.44 C143.46 69.67, 164.62 41.84, 201.6 0.35 M118.94 95.44 C138.49 74.42, 158.79 50.96, 201.6 0.35 M140.2 95.37 C168.99 61.07, 201.38 24.1, 222.86 0.28 M140.2 95.37 C169.25 61.62, 198.48 26.44, 222.86 0.28 M161.46 95.3 C192.2 59.45, 228.78 18.82, 244.12 0.21 M161.46 95.3 C184.83 69.32, 208.74 40.06, 244.12 0.21 M182.72 95.23 C213.96 61.27, 242.78 23.03, 265.38 0.14 M182.72 95.23 C216.33 57.96, 248.33 20.63, 265.38 0.14 M203.98 95.16 C222.42 74.78, 239.57 52.53, 285.33 1.58 M203.98 95.16 C223.02 74.46, 241.23 54.87, 285.33 1.58 M225.24 95.09 C248.56 67.96, 272.23 42.71, 297.4 12.08 M225.24 95.09 C244.82 71.48, 265.53 48.64, 297.4 12.08 M246.5 95.03 C262.69 79.27, 275.87 60.66, 300.29 33.14 M246.5 95.03 C263.43 77.19, 278.72 57.8, 300.29 33.14 M267.76 94.96 C281.33 79.49, 292.49 64.32, 299.9 57.98 M267.76 94.96 C277.81 82.04, 288.21 71.77, 299.9 57.98" stroke="#e9ecef" stroke-width="2" fill="none"></path><path d="M23.75 0 C96.51 -2.53, 166.08 -1.15, 276.25 0 M23.75 0 C113.49 -2.24, 204.33 -0.74, 276.25 0 M276.25 0 C292.66 0.88, 298.27 7.98, 300 23.75 M276.25 0 C289.94 0.82, 299.75 7.45, 300 23.75 M300 23.75 C301.56 40.08, 301.7 58.24, 300 71.25 M300 23.75 C299.58 41.42, 299.43 59.52, 300 71.25 M300 71.25 C301.28 86.9, 290.26 96.51, 276.25 95 M300 71.25 C301.45 86.49, 291.44 95.63, 276.25 95 M276.25 95 C217.65 94.69, 161.33 93.51, 23.75 95 M276.25 95 C203.28 92.33, 131.31 92.98, 23.75 95 M23.75 95 C6.66 93.34, 1.9 86.64, 0 71.25 M23.75 95 C5.75 95.91, -1.72 88.23, 0 71.25 M0 71.25 C-0.23 55.8, 0.27 43.31, 0 23.75 M0 71.25 C1.03 61.38, 0.04 50.39, 0 23.75 M0 23.75 C1.78 7.29, 7.03 -1.15, 23.75 0 M0 23.75 C-0.54 7.6, 7.13 1.28, 23.75 0" stroke="#1e1e1e" stroke-width="4" fill="none"></path></g><g stroke-linecap="round" transform="translate(10 157.5) rotate(0 149.9999999999999 47.499999999999886)"><path d="M23.75 0 C104.76 -1.64, 184.18 -2.25, 276.25 0 M23.75 0 C85.53 -0.35, 147.26 -0.56, 276.25 0 M276.25 0 C291.08 -0.1, 299.8 8.57, 300 23.75 M276.25 0 C290.51 -1.39, 301.75 10.21, 300 23.75 M300 23.75 C301.51 37.81, 299.98 49.03, 300 71.25 M300 23.75 C300.55 35.09, 300.85 47.95, 300 71.25 M300 71.25 C300.22 87.99, 291.47 96.39, 276.25 95 M300 71.25 C299.81 87.79, 294.15 93.17, 276.25 95 M276.25 95 C208.94 96.97, 144.19 96.81, 23.75 95 M276.25 95 C205.61 94.72, 134.68 93.99, 23.75 95 M23.75 95 C8.79 94.99, -1.53 87.89, 0 71.25 M23.75 95 C7.61 94.28, -2.22 86.71, 0 71.25 M0 71.25 C0.9 56.82, 0.05 44.15, 0 23.75 M0 71.25 C1.39 55.53, 0.67 38.92, 0 23.75 M0 23.75 C-0.13 7.43, 6.15 0.58, 23.75 0 M0 23.75 C0.15 6.42, 9.15 0.12, 23.75 0" stroke="#1e1e1e" stroke-width="4" fill="none"></path></g><g stroke-linecap="round" transform="translate(672.4999999999989 157.5) rotate(0 150 47.499999999999886)"><path d="M23.75 0 C98.37 1.67, 173.73 1.82, 276.25 0 M23.75 0 C82.99 0.95, 142.59 0.47, 276.25 0 M276.25 0 C290.88 1.52, 302 7.33, 300 23.75 M276.25 0 C292.16 -1.6, 301.71 9.31, 300 23.75 M300 23.75 C300.62 36.31, 300.65 51.09, 300 71.25 M300 23.75 C300.71 40.94, 300.95 58.66, 300 71.25 M300 71.25 C300.62 88.88, 290.49 94.27, 276.25 95 M300 71.25 C301 87.53, 290.9 97.23, 276.25 95 M276.25 95 C187.41 94.2, 97.79 95.15, 23.75 95 M276.25 95 C179.61 95.28, 83.3 95.79, 23.75 95 M23.75 95 C7.29 93.07, -0.32 86.53, 0 71.25 M23.75 95 C5.85 95.92, 0.55 85.36, 0 71.25 M0 71.25 C-1.55 58.38, 2.2 46.11, 0 23.75 M0 71.25 C-0.57 55.01, -0.04 40.61, 0 23.75 M0 23.75 C-1.31 8.99, 8.02 1.93, 23.75 0 M0 23.75 C-0.32 9.5, 7.56 -1.95, 23.75 0" stroke="#1e1e1e" stroke-width="4" fill="none"></path></g><g stroke-linecap="round" transform="translate(95 421.25) rotate(0 149.9999999999999 47.499999999999886)"><path d="M23.75 0 C92.25 0.52, 160.1 1.17, 276.25 0 M23.75 0 C108.42 2.05, 191.62 1.27, 276.25 0 M276.25 0 C290.69 1.49, 301.22 7.88, 300 23.75 M276.25 0 C291.6 -1.17, 300.83 6.09, 300 23.75 M300 23.75 C300.86 40.01, 300.68 55.22, 300 71.25 M300 23.75 C300.86 40.5, 299.59 59.28, 300 71.25 M300 71.25 C300.39 86.06, 294.02 96.11, 276.25 95 M300 71.25 C301.99 86.66, 293.31 94.39, 276.25 95 M276.25 95 C184.64 97.41, 94.9 95.45, 23.75 95 M276.25 95 C189.52 94.22, 104.13 93.62, 23.75 95 M23.75 95 C8.72 95.47, -1.5 86.71, 0 71.25 M23.75 95 C6.52 96.09, -2.11 87.65, 0 71.25 M0 71.25 C1 52.34, -0.86 31.91, 0 23.75 M0 71.25 C0.51 55.68, 0.94 39.86, 0 23.75 M0 23.75 C1.38 7.61, 6.22 1.94, 23.75 0 M0 23.75 C0.35 6.51, 5.68 1.63, 23.75 0" stroke="#1e1e1e" stroke-width="4" fill="none"></path></g><g stroke-linecap="round" transform="translate(604.9999999999989 421.25) rotate(0 150 47.499999999999886)"><path d="M23.75 0 C97.07 -1.66, 173.84 0.95, 276.25 0 M23.75 0 C92.65 1.92, 160.32 1.26, 276.25 0 M276.25 0 C291.06 0.72, 298.41 8.67, 300 23.75 M276.25 0 C290.96 1.57, 301.25 8.16, 300 23.75 M300 23.75 C299.69 40.77, 301.66 54.96, 300 71.25 M300 23.75 C299.69 37.23, 300.76 49.63, 300 71.25 M300 71.25 C299.63 88.15, 291.56 96.18, 276.25 95 M300 71.25 C300.74 88.99, 290.75 96.01, 276.25 95 M276.25 95 C200.4 95.32, 123.42 95.56, 23.75 95 M276.25 95 C207.66 95.22, 138.54 95.33, 23.75 95 M23.75 95 C8.87 93.16, 0.49 88.99, 0 71.25 M23.75 95 C9.72 95.53, 1.58 86.94, 0 71.25 M0 71.25 C0.55 56.84, 1.5 45.15, 0 23.75 M0 71.25 C-0.09 51.56, 1.04 33.71, 0 23.75 M0 23.75 C-1.22 5.97, 9.33 1.81, 23.75 0 M0 23.75 C-1.67 7.66, 8.97 -1.59, 23.75 0" stroke="#1e1e1e" stroke-width="4" fill="none"></path></g></svg>