<svg version="1.1" xmlns="http://www.w3.org/2000/svg" viewBox="0 0 784.9825174825164 785.9999999999991" width="784.9825174825164" height="785.9999999999991">
  <!-- svg-source:excalidraw -->
  
  <defs>
    <style class="style-fonts">
      @font-face {
        font-family: "Virgil";
        src: url("https://excalidraw.com/Virgil.woff2");
      }
      @font-face {
        font-family: "Cascadia";
        src: url("https://excalidraw.com/Cascadia.woff2");
      }
      @font-face {
        font-family: "Assistant";
        src: url("https://excalidraw.com/Assistant-Regular.woff2");
      }
    </style>
    
  </defs>
  <g stroke-linecap="round" transform="translate(10 10) rotate(0 382.4912587412582 50.99883449883441)"><path d="M25.5 0 C194.18 6.1, 362.01 5.59, 739.48 0 M25.5 0 C303.75 2.81, 582.2 1.83, 739.48 0 M739.48 0 C756.11 1.27, 765.35 11.48, 764.98 25.5 M739.48 0 C756.73 -0.61, 769.46 6.82, 764.98 25.5 M764.98 25.5 C767.95 44.72, 762.25 59.73, 764.98 76.5 M764.98 25.5 C766.25 41.93, 766.47 60.28, 764.98 76.5 M764.98 76.5 C764.19 90.84, 756.43 99.73, 739.48 102 M764.98 76.5 C769.18 96.33, 760.83 98.45, 739.48 102 M739.48 102 C455.71 99.96, 170.8 99.6, 25.5 102 M739.48 102 C565.49 101.61, 390.89 101.38, 25.5 102 M25.5 102 C5.1 99.06, 2.27 89.59, 0 76.5 M25.5 102 C12.54 106.26, -1.54 94.36, 0 76.5 M0 76.5 C1.59 58.98, 1.06 47.18, 0 25.5 M0 76.5 C-1.09 58.37, -1.99 39.57, 0 25.5 M0 25.5 C-0.22 9.85, 6.9 -0.32, 25.5 0 M0 25.5 C3.83 6.42, 6.04 3.48, 25.5 0" stroke="#1e1e1e" stroke-width="4" fill="none"></path></g><g stroke-linecap="round" transform="translate(28.789044289044227 23.420745920745844) rotate(0 112.73426573426553 37.57808857808851)"><path d="M18.79 0 C59.99 -1.06, 104.66 -0.48, 206.68 0 M18.79 0 C67.31 -4.09, 117.77 -2.89, 206.68 0 M206.68 0 C219.57 2.98, 225.69 5.73, 225.47 18.79 M206.68 0 C223.69 -1.68, 227.58 7.67, 225.47 18.79 M225.47 18.79 C222.92 32.12, 228.03 51.53, 225.47 56.37 M225.47 18.79 C226.04 29.61, 225.17 41.23, 225.47 56.37 M225.47 56.37 C225.41 66.63, 222.86 77.62, 206.68 75.16 M225.47 56.37 C229.82 65.34, 223.68 72.08, 206.68 75.16 M206.68 75.16 C152.7 73.13, 103.57 77.79, 18.79 75.16 M206.68 75.16 C149.41 72.52, 92.92 72.36, 18.79 75.16 M18.79 75.16 C8.53 71.24, 3.52 72.6, 0 56.37 M18.79 75.16 C4.72 76.02, 0.55 69.52, 0 56.37 M0 56.37 C0.87 50.08, 2.6 42.37, 0 18.79 M0 56.37 C-1 47.29, -0.04 36.65, 0 18.79 M0 18.79 C-1.6 5.94, 9.59 -1.81, 18.79 0 M0 18.79 C-2.46 9.74, 1.85 2.82, 18.79 0" stroke="#1e1e1e" stroke-width="4" fill="none"></path></g><g stroke-linecap="round" transform="translate(275.73076923076883 23.420745920745844) rotate(0 112.73426573426559 37.57808857808851)"><path d="M5 4.35 C5 4.35, 5 4.35, 5 4.35 M5 4.35 C5 4.35, 5 4.35, 5 4.35 M1.33 32.96 C9.62 22.19, 12.44 15.46, 29.54 0.51 M1.33 32.96 C5.52 25.6, 14.05 21.12, 29.54 0.51 M0.94 57.79 C13.58 44.22, 25.73 35.18, 50.8 0.44 M0.94 57.79 C12.53 44.18, 25.27 27.93, 50.8 0.44 M9.08 72.82 C29.13 50.42, 57.17 24.45, 72.06 0.37 M9.08 72.82 C26.09 53.33, 38.66 36.53, 72.06 0.37 M29.03 74.26 C47.57 55.3, 68.78 35.68, 92.67 1.05 M29.03 74.26 C45.07 55.22, 62.52 36.39, 92.67 1.05 M50.29 74.19 C65.11 53.86, 87.54 37.85, 113.93 0.98 M50.29 74.19 C67.9 53.84, 85.18 32.71, 113.93 0.98 M71.55 74.12 C89.27 54.54, 108.3 29.98, 135.19 0.91 M71.55 74.12 C90.06 52.08, 106.02 31.25, 135.19 0.91 M92.15 74.81 C111.12 52.02, 128.23 36.8, 156.45 0.85 M92.15 74.81 C115.81 46.21, 138.21 20.48, 156.45 0.85 M113.41 74.74 C130.14 55.49, 144.92 42.62, 177.05 1.53 M113.41 74.74 C131.86 54.6, 149.72 36.92, 177.05 1.53 M134.67 74.67 C150.9 56.8, 165.33 44.19, 198.31 1.46 M134.67 74.67 C148.18 57.53, 165.61 38.55, 198.31 1.46 M155.93 74.6 C167.61 57.07, 181.45 47.01, 218.26 2.9 M155.93 74.6 C180.08 46.71, 202.07 22.48, 218.26 2.9 M176.54 75.29 C192.66 62.32, 201.26 48.38, 225.09 19.44 M176.54 75.29 C194.38 55.58, 210.42 34.71, 225.09 19.44 M197.8 75.22 C205.02 69.46, 212.17 59.48, 224.7 44.27 M197.8 75.22 C207.11 64.82, 219.3 54.24, 224.7 44.27" stroke="#868e96" stroke-width="2" fill="none"></path><path d="M18.79 0 C96.02 0.72, 164.59 -3.82, 206.68 0 M18.79 0 C92.57 1.71, 166.91 2.57, 206.68 0 M206.68 0 C219.42 -0.53, 229.36 4.8, 225.47 18.79 M206.68 0 C221.32 1.4, 229.29 9.32, 225.47 18.79 M225.47 18.79 C226.95 35.51, 225.55 44.82, 225.47 56.37 M225.47 18.79 C225.25 25.92, 225.62 34.58, 225.47 56.37 M225.47 56.37 C229.12 71.35, 222.99 72.07, 206.68 75.16 M225.47 56.37 C229.94 65.81, 217.75 74.75, 206.68 75.16 M206.68 75.16 C150.78 76.94, 99.3 74.04, 18.79 75.16 M206.68 75.16 C155.28 71.25, 108.42 70.76, 18.79 75.16 M18.79 75.16 C9.78 78.86, -1.34 69.64, 0 56.37 M18.79 75.16 C6.82 75.78, -3.03 70.88, 0 56.37 M0 56.37 C2.7 50.2, -1.37 36.48, 0 18.79 M0 56.37 C0.29 44.09, -0.4 30.3, 0 18.79 M0 18.79 C3.33 4.45, 4.13 3.03, 18.79 0 M0 18.79 C-4.41 9.09, 6.65 4.26, 18.79 0" stroke="#1e1e1e" stroke-width="4" fill="none"></path></g><g stroke-linecap="round" transform="translate(525.3566433566425 23.420745920745844) rotate(0 112.73426573426559 37.57808857808851)"><path d="M18.79 0 C84.95 -4.36, 157.75 -4.92, 206.68 0 M18.79 0 C69.95 0.3, 120.85 -1.46, 206.68 0 M206.68 0 C223.1 -1.46, 227.31 7.48, 225.47 18.79 M206.68 0 C223.02 3.06, 227.28 2.76, 225.47 18.79 M225.47 18.79 C226.51 29.58, 222.86 40.3, 225.47 56.37 M225.47 18.79 C225.29 26.93, 227.15 38.57, 225.47 56.37 M225.47 56.37 C229.25 65.81, 223.1 72.48, 206.68 75.16 M225.47 56.37 C224.01 68.49, 218.54 71.07, 206.68 75.16 M206.68 75.16 C157.2 78.42, 106.45 75.67, 18.79 75.16 M206.68 75.16 C163.64 70.44, 120.09 74.25, 18.79 75.16 M18.79 75.16 C4.92 75.91, 0.48 69.43, 0 56.37 M18.79 75.16 C3.23 77.15, -1.84 70.27, 0 56.37 M0 56.37 C-1.7 42.39, 1.24 26.97, 0 18.79 M0 56.37 C-0.76 42.82, 1.71 28.69, 0 18.79 M0 18.79 C-2.14 9.29, 2.43 2.46, 18.79 0 M0 18.79 C0.39 10.53, 8.09 2.14, 18.79 0" stroke="#1e1e1e" stroke-width="4" fill="none"></path></g><g stroke-linecap="round" transform="translate(279.02039627039585 126.43589743589735) rotate(0 225.46853146853118 324.7820512820509)"><path d="M7.86 8.16 C7.86 8.16, 7.86 8.16, 7.86 8.16 M7.86 8.16 C7.86 8.16, 7.86 8.16, 7.86 8.16 M0.26 41.3 C4.77 33.69, 16.96 20.87, 36.34 -0.21 M0.26 41.3 C8.5 29.75, 18.04 18.29, 36.34 -0.21 M0.52 65.38 C13.51 45.89, 34.47 26.33, 57.6 -0.28 M0.52 65.38 C24.44 38.29, 45.27 12.74, 57.6 -0.28 M0.13 90.22 C26.63 57.43, 56.24 24.98, 78.2 0.41 M0.13 90.22 C18.79 70.33, 36.14 50.4, 78.2 0.41 M0.4 114.3 C29.73 73.27, 66.72 34.88, 99.46 0.34 M0.4 114.3 C29.99 77.17, 59.55 41.63, 99.46 0.34 M0.01 139.13 C30.04 97.01, 65.64 61.98, 120.72 0.27 M0.01 139.13 C38.37 95.83, 75.11 53.55, 120.72 0.27 M0.27 163.22 C47.7 112.97, 91.89 58.69, 141.98 0.2 M0.27 163.22 C32.11 130.07, 62.2 96.42, 141.98 0.2 M0.54 187.3 C34.9 150.56, 63.83 110.42, 163.24 0.13 M0.54 187.3 C40.84 140.21, 79 97.42, 163.24 0.13 M0.15 212.13 C41.83 160.19, 83.74 114.08, 184.5 0.06 M0.15 212.13 C37.63 164.49, 78.65 117.03, 184.5 0.06 M0.42 236.22 C51.53 173.14, 107.18 108.96, 205.76 -0.01 M0.42 236.22 C67.99 155.54, 138.79 75.51, 205.76 -0.01 M0.03 261.05 C50.59 204.71, 99.17 151.01, 227.02 -0.08 M0.03 261.05 C58.48 189.32, 119.33 122.28, 227.02 -0.08 M0.29 285.13 C84.22 190.47, 165.05 96.29, 248.28 -0.15 M0.29 285.13 C71.67 205, 144.32 120.85, 248.28 -0.15 M-0.1 309.97 C89.64 206.43, 176.59 102.75, 269.54 -0.22 M-0.1 309.97 C88.27 205.29, 176.29 101.9, 269.54 -0.22 M0.17 334.05 C79.95 248.39, 154.28 159.7, 290.8 -0.28 M0.17 334.05 C61.79 265.3, 119.69 199.99, 290.8 -0.28 M0.44 358.13 C77.99 274.69, 153.68 185.86, 311.41 0.4 M0.44 358.13 C69.28 278.61, 137.42 201.27, 311.41 0.4 M0.05 382.97 C112.01 254.19, 223.88 125.31, 332.67 0.33 M0.05 382.97 C103.85 266.5, 206.51 147.92, 332.67 0.33 M0.31 407.05 C99.08 294.72, 197.18 180.72, 353.93 0.26 M0.31 407.05 C140.91 247.22, 281.33 87.03, 353.93 0.26 M-0.08 431.89 C140.39 273.26, 276.61 117.26, 375.19 0.19 M-0.08 431.89 C110.14 307.06, 221.04 178.2, 375.19 0.19 M0.19 455.97 C148 285.98, 295.82 117.28, 396.45 0.12 M0.19 455.97 C125.53 308.02, 253.94 160.67, 396.45 0.12 M0.46 480.05 C87.59 375.37, 177.42 271.67, 417.71 0.06 M0.46 480.05 C160.67 296.06, 319.18 113.29, 417.71 0.06 M0.07 504.89 C142.17 340.99, 286.04 175.89, 435.69 3.76 M0.07 504.89 C152.64 328.14, 304.99 151.79, 435.69 3.76 M0.33 528.97 C126.05 385.85, 253.08 240.98, 447.11 15.01 M0.33 528.97 C96.32 420.85, 189.25 313.2, 447.11 15.01 M-0.06 553.81 C167.48 364.69, 332.74 176.25, 451.97 33.81 M-0.06 553.81 C90.18 444.23, 184.1 335.57, 451.97 33.81 M0.21 577.89 C96.62 470.2, 188.66 361.87, 451.58 58.65 M0.21 577.89 C168.35 380.67, 336.59 187.54, 451.58 58.65 M0.48 601.97 C167.9 411.98, 335.04 223.29, 451.84 82.73 M0.48 601.97 C136.95 441.08, 278.48 279.01, 451.84 82.73 M2.05 624.54 C165.72 435.95, 328.77 252.32, 451.45 107.57 M2.05 624.54 C137.28 474.75, 269.65 322.85, 451.45 107.57 M8.88 641.08 C103.28 525.88, 200.54 411.81, 451.72 131.65 M8.88 641.08 C128.72 508.92, 245.68 372.79, 451.72 131.65 M23.58 648.55 C177.31 474.92, 332.52 298.42, 451.99 155.73 M23.58 648.55 C170.52 482.27, 312.96 316.61, 451.99 155.73 M43.53 649.99 C166.24 509.21, 285.93 371, 451.6 180.57 M43.53 649.99 C189.92 482.62, 339.56 311.14, 451.6 180.57 M64.79 649.93 C205.58 491.26, 344.23 335.2, 451.86 204.65 M64.79 649.93 C178 525.31, 288.1 398.22, 451.86 204.65 M86.05 649.86 C221.35 498.05, 354.45 346.4, 451.47 229.48 M86.05 649.86 C189.87 535.41, 290.94 419.63, 451.47 229.48 M106.65 650.54 C227.32 515.23, 347.05 378.02, 451.74 253.57 M106.65 650.54 C205.47 537.14, 300.38 426.34, 451.74 253.57 M127.91 650.47 C215.23 550.67, 300.58 453.72, 451.35 278.4 M127.91 650.47 C246.88 514.44, 367.52 376.89, 451.35 278.4 M149.17 650.4 C230.84 555.7, 312.29 464.19, 451.62 302.48 M149.17 650.4 C237.94 552.55, 324.61 453.92, 451.62 302.48 M170.43 650.34 C240.54 570.49, 307.48 490.55, 451.88 326.57 M170.43 650.34 C279.93 524.3, 389.68 397.53, 451.88 326.57 M191.69 650.27 C265.72 566.58, 336.19 483.72, 451.49 351.4 M191.69 650.27 C245.45 587.99, 297.44 526.61, 451.49 351.4 M212.95 650.2 C267.12 593.53, 323.8 533.03, 451.76 375.48 M212.95 650.2 C302.6 548.74, 391.22 446.84, 451.76 375.48 M234.21 650.13 C300.25 570.37, 364.22 497.47, 451.37 400.32 M234.21 650.13 C313.9 558.03, 394.31 465.67, 451.37 400.32 M255.47 650.06 C318.72 575.84, 377.61 504.18, 451.64 424.4 M255.47 650.06 C320.43 578.8, 383.46 502.69, 451.64 424.4 M276.73 649.99 C326.94 594.45, 378.78 532.48, 451.9 448.48 M276.73 649.99 C328.09 591.12, 375.35 537.19, 451.9 448.48 M297.99 649.92 C350.96 584.93, 410.71 522.17, 451.51 473.32 M297.99 649.92 C355.7 585.5, 414.21 517.52, 451.51 473.32 M319.25 649.85 C362.1 606.24, 398.15 552.85, 451.78 497.4 M319.25 649.85 C345.62 613.74, 374.41 584.33, 451.78 497.4 M339.86 650.54 C371.8 610.69, 409.21 570.75, 451.39 522.24 M339.86 650.54 C383.55 598.96, 426.67 549.73, 451.39 522.24 M361.12 650.47 C388.17 622.67, 412.45 588.94, 451.66 546.32 M361.12 650.47 C380.13 624.96, 400.92 601.12, 451.66 546.32 M382.38 650.4 C404.32 632.96, 423.79 608.31, 451.92 570.4 M382.38 650.4 C408.58 619.09, 432.64 588.87, 451.92 570.4 M403.64 650.33 C423.59 631.02, 434.58 608.24, 451.53 595.24 M403.64 650.33 C413.86 638.43, 426.61 622.88, 451.53 595.24 M426.21 648.75 C433.63 639.47, 443.7 631.91, 451.14 620.07 M426.21 648.75 C430.98 640.03, 438.9 635.45, 451.14 620.07" stroke="#e9ecef" stroke-width="2" fill="none"></path><path d="M32 0 C179.02 0.54, 320.95 1.57, 418.94 0 M32 0 C160.4 -3.55, 289.81 -3.83, 418.94 0 M418.94 0 C442.11 1.22, 454.26 13.32, 450.94 32 M418.94 0 C442.09 -3.51, 449.72 13.03, 450.94 32 M450.94 32 C450.5 266.04, 450.85 499.01, 450.94 617.56 M450.94 32 C451.6 169.26, 451.63 304.92, 450.94 617.56 M450.94 617.56 C454.83 636.22, 439.01 649.21, 418.94 649.56 M450.94 617.56 C450.27 634.82, 438.57 646.98, 418.94 649.56 M418.94 649.56 C271.27 648.42, 123.75 647.88, 32 649.56 M418.94 649.56 C332.26 646.2, 243.12 645.33, 32 649.56 M32 649.56 C11.15 650.11, -2.64 640.63, 0 617.56 M32 649.56 C8.82 650.94, 2.89 642.26, 0 617.56 M0 617.56 C2.06 388.35, 2.24 160.76, 0 32 M0 617.56 C2.54 421.81, 1.44 227.38, 0 32 M0 32 C-3.84 13.12, 11 3.71, 32 0 M0 32 C1.83 12.81, 12.21 0.82, 32 0" stroke="#1e1e1e" stroke-width="4" fill="none"></path></g><g stroke-linecap="round" transform="translate(290.8212898212894 226.92191142191018) rotate(0 215.2342657342656 20.91142191142191)"><path d="M0.66 5.87 C0.66 5.87, 0.66 5.87, 0.66 5.87 M0.66 5.87 C0.66 5.87, 0.66 5.87, 0.66 5.87 M0.27 30.71 C5.63 21.45, 15.72 13.62, 19.95 8.07 M0.27 30.71 C5.3 23.75, 14.38 17.14, 19.95 8.07 M11.03 42.72 C15.04 30.34, 28.54 26.16, 41.21 8 M11.03 42.72 C18.08 33.34, 27.7 25.11, 41.21 8 M32.29 42.65 C38.55 36.15, 48.47 27.55, 62.47 7.93 M32.29 42.65 C39.69 35.33, 47.54 29.26, 62.47 7.93 M53.55 42.58 C60.03 34.65, 62.94 27.34, 83.73 7.86 M53.55 42.58 C61.65 29.58, 73.37 20.38, 83.73 7.86 M74.81 42.51 C82.03 36.32, 88.65 28.92, 104.34 8.55 M74.81 42.51 C84.19 32.62, 93.69 20.5, 104.34 8.55 M96.07 42.44 C107.51 33.3, 123.22 18.91, 125.6 8.48 M96.07 42.44 C105.5 36.07, 111.24 26.55, 125.6 8.48 M117.33 42.37 C126.62 29.28, 142.18 20.28, 146.86 8.41 M117.33 42.37 C125.52 31.58, 135.76 21.96, 146.86 8.41 M138.59 42.3 C144.03 37.48, 148.54 25.36, 168.12 8.34 M138.59 42.3 C150.73 27.61, 161.66 15.72, 168.12 8.34 M159.85 42.23 C168.57 31, 177.07 19.1, 189.38 8.27 M159.85 42.23 C167.62 34.51, 173.67 25.7, 189.38 8.27 M181.11 42.16 C184.85 33.38, 200.41 27.73, 210.64 8.2 M181.11 42.16 C186.61 34.02, 196.08 24.01, 210.64 8.2 M201.72 42.85 C209.71 28.58, 222.03 19.11, 231.9 8.13 M201.72 42.85 C209.96 34.17, 215.88 25.21, 231.9 8.13 M222.98 42.78 C226.48 36.07, 239.88 25.25, 253.16 8.06 M222.98 42.78 C235.06 31.72, 246.72 17.33, 253.16 8.06 M244.24 42.71 C249.66 29.54, 259.19 26.74, 274.42 8 M244.24 42.71 C254.45 29.32, 266.54 15.3, 274.42 8 M265.5 42.64 C279.57 27.34, 286.08 17.83, 295.68 7.93 M265.5 42.64 C272.46 33.69, 281.14 26.13, 295.68 7.93 M286.76 42.57 C292.86 28.18, 307.23 15.62, 316.94 7.86 M286.76 42.57 C297.78 28.34, 307.66 18.2, 316.94 7.86 M308.02 42.51 C312.45 39.28, 319.69 30.53, 337.54 8.54 M308.02 42.51 C315.9 36.21, 322.15 25.76, 337.54 8.54 M329.28 42.44 C338.15 33.91, 348.79 16.03, 358.8 8.47 M329.28 42.44 C336.61 32.8, 346.59 22.72, 358.8 8.47 M350.54 42.37 C357.84 29.71, 370.72 25.14, 380.06 8.41 M350.54 42.37 C361.3 31.84, 368.76 19.64, 380.06 8.41 M371.8 42.3 C382.69 29.21, 394.65 16.32, 401.32 8.34 M371.8 42.3 C378.59 32.82, 386.97 24.9, 401.32 8.34 M393.06 42.23 C402.27 29.62, 413.05 26.2, 425.86 4.49 M393.06 42.23 C401.88 34.75, 407.9 23.69, 425.86 4.49 M414.32 42.16 C425.98 28.17, 433.56 20.54, 439.25 13.48 M414.32 42.16 C418.66 36.99, 423.77 31.89, 439.25 13.48" stroke="#868e96" stroke-width="2" fill="none"></path><path d="M10.46 0 C111.11 -5.37, 206.79 -1.91, 420.01 0 M10.46 0 C121.66 1.6, 230.98 2.52, 420.01 0 M420.01 0 C429.62 -3.74, 430.6 2.51, 430.47 10.46 M420.01 0 C429.77 -4.49, 431.53 1.87, 430.47 10.46 M430.47 10.46 C430.16 14.27, 434.04 23.59, 430.47 31.37 M430.47 10.46 C430.14 15.19, 430.34 18.71, 430.47 31.37 M430.47 31.37 C433.8 37.78, 429.31 45.64, 420.01 41.82 M430.47 31.37 C430.53 33.92, 428.85 40.2, 420.01 41.82 M420.01 41.82 C262.02 42.96, 106.19 43.97, 10.46 41.82 M420.01 41.82 C290.42 44.03, 161.3 44.24, 10.46 41.82 M10.46 41.82 C7.26 42.53, -0.81 41.57, 0 31.37 M10.46 41.82 C2.71 38.25, -3.57 37.08, 0 31.37 M0 31.37 C-0.23 25.6, 0.05 25.04, 0 10.46 M0 31.37 C0.43 23.63, -1.24 18.08, 0 10.46 M0 10.46 C-2.96 4.39, 7.11 1.45, 10.46 0 M0 10.46 C-2.72 7.12, 4.9 -1.72, 10.46 0" stroke="#1e1e1e" stroke-width="4" fill="none"></path></g><g transform="translate(205.22222222222183 287.8333333333321) rotate(0 19.166666666666686 -19.166666666666686)" stroke="none"><path d="M-1.63 1.01 C-1.78 -0.11, -0.75 -3.12, -1.87 -4.16 C-2.99 -5.19, -7.13 -5.05, -8.35 -5.22 C-9.56 -5.39, -9.36 -4.98, -9.17 -5.19 C-8.98 -5.4, -7.92 -6.63, -7.21 -6.49 C-6.51 -6.35, -4.92 -3.84, -4.95 -4.36 C-4.97 -4.89, -6.71 -9.37, -7.37 -9.63 C-8.03 -9.9, -10.19 -3.53, -8.91 -5.95 C-7.63 -8.36, -2.8 -20.55, 0.29 -24.13 C3.37 -27.7, 8.61 -26.64, 9.6 -27.39 C10.58 -28.13, 7.82 -27.26, 6.18 -28.6 C4.55 -29.94, 0.59 -34.25, -0.19 -35.41 C-0.97 -36.57, 0.43 -35.44, 1.52 -35.56 C2.62 -35.68, 5.51 -34.75, 6.38 -36.11 C7.26 -37.48, 2.34 -42.43, 6.77 -43.74 C11.2 -45.06, 27.87 -45.2, 32.96 -44.02 C38.05 -42.84, 36.57 -37.5, 37.3 -36.66 C38.03 -35.81, 35.66 -38.41, 37.34 -38.94 C39.01 -39.46, 46.36 -40.61, 47.36 -39.79 C48.37 -38.98, 43.36 -36.35, 43.36 -34.04 C43.36 -31.74, 47.1 -27.42, 47.36 -25.96 C47.61 -24.5, 45.73 -26.35, 44.89 -25.28 C44.06 -24.21, 42.32 -22.09, 42.37 -19.53 C42.42 -16.97, 44.92 -12.14, 45.2 -9.94 C45.48 -7.75, 44.78 -6.44, 44.06 -6.34 C43.33 -6.23, 40.91 -9.58, 40.87 -9.3 C40.82 -9.02, 44.99 -5.54, 43.79 -4.64 C42.6 -3.74, 35.73 -3.9, 33.7 -3.88 C31.67 -3.87, 32.2 -3.21, 31.6 -4.56 C31 -5.91, 30.56 -11.28, 30.1 -11.96 C29.65 -12.65, 29.83 -8.87, 28.85 -8.65 C27.86 -8.43, 24.48 -9.88, 24.21 -10.67 C23.95 -11.45, 27.51 -13.24, 27.25 -13.38 C26.99 -13.52, 23.31 -12.1, 22.64 -11.5 C21.96 -10.91, 24.38 -10.21, 23.21 -9.79 C22.03 -9.38, 17.07 -8.57, 15.58 -9 C14.1 -9.43, 14.47 -12.91, 14.29 -12.39 C14.1 -11.86, 15.01 -7.46, 14.47 -5.85 C13.93 -4.25, 11.09 -2.57, 11.06 -2.75 C11.03 -2.92, 14.78 -6.8, 14.3 -6.91 C13.83 -7.02, 9.65 -3.76, 8.19 -3.4 C6.72 -3.05, 6.1 -5.59, 5.51 -4.79 C4.91 -3.98, 5.27 1.07, 4.62 1.44 C3.97 1.8, 1.71 -3.03, 1.64 -2.59 C1.56 -2.15, 4.26 3.3, 4.19 4.09" stroke="none" stroke-width="0" fill="#e9ecef" fill-rule="evenodd"></path><path fill="#1e1e1e" d="M -0.74,1.11 Q -0.74,1.11 -2.49,0.56 -4.23,0.01 -5.09,-1.11 -5.95,-2.24 -7.03,-3.31 -8.10,-4.37 -9.18,-5.42 -10.26,-6.46 -10.18,-8.16 -10.11,-9.86 -9.44,-10.72 -8.78,-11.59 -7.77,-12.57 -6.77,-13.55 -5.34,-14.96 -3.91,-16.37 -2.82,-17.45 -1.73,-18.53 -0.76,-19.48 0.20,-20.43 1.42,-21.07 2.64,-21.70 4.45,-22.68 6.26,-23.66 7.78,-24.39 9.31,-25.12 8.32,-26.04 7.33,-26.96 6.40,-28.47 5.47,-29.98 4.76,-30.88 4.04,-31.77 3.26,-32.65 2.48,-33.53 2.04,-35.57 1.60,-37.61 2.16,-38.67 2.72,-39.73 3.86,-40.21 5.01,-40.70 7.15,-41.52 9.29,-42.35 10.42,-42.46 11.56,-42.58 13.04,-42.64 14.52,-42.69 16.10,-42.72 17.67,-42.74 18.82,-42.76 19.96,-42.77 21.41,-42.78 22.86,-42.79 23.95,-42.79 25.04,-42.80 26.47,-42.80 27.89,-42.81 29.45,-42.81 31.02,-42.81 32.23,-42.80 33.44,-42.78 34.94,-42.18 36.45,-41.58 38.44,-41.41 40.43,-41.25 41.87,-40.59 43.31,-39.92 44.86,-39.57 46.41,-39.23 47.46,-38.27 48.51,-37.32 48.87,-36.15 49.23,-34.97 49.35,-32.63 49.47,-30.29 49.46,-29.17 49.45,-28.05 48.84,-26.57 48.23,-25.09 48.09,-22.75 47.94,-20.41 47.36,-18.46 46.78,-16.51 45.87,-14.10 44.96,-11.69 44.79,-10.48 44.62,-9.26 44.36,-8.11 44.10,-6.96 43.33,-6.07 42.56,-5.18 41.53,-3.29 40.49,-1.40 39.15,-1.12 37.80,-0.84 36.32,-1.37 34.83,-1.90 33.35,-2.21 31.88,-2.53 31.01,-3.32 30.14,-4.11 28.96,-4.67 27.78,-5.23 26.42,-6.36 25.06,-7.49 24.17,-8.39 23.28,-9.30 22.46,-10.16 21.64,-11.02 20.84,-10.12 20.04,-9.22 18.72,-8.63 17.39,-8.04 16.59,-7.21 15.79,-6.39 14.97,-5.54 14.15,-4.70 13.32,-3.86 12.49,-3.02 11.45,-1.97 10.41,-0.91 8.97,-0.20 7.54,0.50 6.47,1.47 5.40,2.43 2.52,1.84 -0.36,1.26 -0.55,1.16 -0.74,1.07 -0.90,0.93 -1.05,0.78 -1.15,0.59 -1.24,0.40 -1.28,0.19 -1.31,-0.01 -1.27,-0.22 -1.23,-0.43 -1.13,-0.62 -1.03,-0.80 -0.88,-0.95 -0.72,-1.09 -0.53,-1.18 -0.33,-1.26 -0.12,-1.28 0.08,-1.31 0.29,-1.26 0.50,-1.21 0.68,-1.10 0.86,-0.99 0.99,-0.82 1.13,-0.66 1.20,-0.46 1.28,-0.26 1.29,-0.05 1.30,0.15 1.24,0.36 1.18,0.56 1.06,0.73 0.94,0.91 0.77,1.04 0.60,1.16 0.39,1.23 0.19,1.29 -0.01,1.29 -0.22,1.29 -0.42,1.22 -0.62,1.15 -0.79,1.02 -0.96,0.89 -1.08,0.71 -1.19,0.53 -1.25,0.33 -1.30,0.12 -1.29,-0.08 -1.27,-0.29 -1.19,-0.49 -1.11,-0.69 -0.97,-0.85 -0.83,-1.01 -0.65,-1.11 -0.47,-1.22 -0.26,-1.26 -0.05,-1.31 0.15,-1.28 0.36,-1.26 0.36,-1.26 0.36,-1.26 1.77,-1.96 3.17,-2.66 4.53,-3.80 5.89,-4.94 6.96,-5.39 8.02,-5.83 8.86,-6.66 9.69,-7.49 10.54,-8.32 11.39,-9.14 12.26,-9.97 13.12,-10.80 14.06,-11.66 15.00,-12.53 15.81,-13.32 16.61,-14.10 18.31,-14.72 20.01,-15.34 21.78,-15.37 23.54,-15.41 24.60,-14.41 25.66,-13.41 26.51,-12.60 27.36,-11.80 28.22,-11.05 29.08,-10.30 30.48,-9.63 31.88,-8.97 33.50,-8.22 35.13,-7.47 36.39,-7.14 37.65,-6.81 38.33,-8.37 39.01,-9.94 39.15,-10.99 39.29,-12.05 40.09,-13.84 40.89,-15.63 41.15,-16.93 41.40,-18.23 41.85,-19.50 42.30,-20.77 42.40,-22.42 42.49,-24.07 42.83,-25.84 43.16,-27.61 43.47,-28.89 43.77,-30.17 43.39,-32.20 43.01,-34.22 41.39,-34.94 39.76,-35.66 38.66,-35.75 37.56,-35.83 35.37,-36.52 33.17,-37.21 32.10,-37.19 31.02,-37.18 29.46,-37.18 27.89,-37.18 26.47,-37.19 25.05,-37.19 23.96,-37.19 22.87,-37.19 21.43,-37.20 20.00,-37.20 18.87,-37.20 17.74,-37.19 16.21,-37.18 14.69,-37.18 13.39,-37.15 12.08,-37.12 10.41,-37.03 8.73,-36.94 7.67,-37.02 6.61,-37.09 7.48,-36.13 8.35,-35.18 9.26,-34.01 10.18,-32.85 10.82,-31.78 11.46,-30.70 12.25,-29.84 13.05,-28.98 13.91,-27.19 14.78,-25.41 13.93,-23.99 13.09,-22.58 11.64,-21.46 10.20,-20.35 8.55,-19.50 6.90,-18.66 5.28,-17.72 3.67,-16.78 2.75,-15.85 1.83,-14.93 0.74,-13.84 -0.35,-12.75 -1.81,-11.32 -3.27,-9.88 -4.67,-9.05 -6.07,-8.22 -5.16,-7.30 -4.26,-6.37 -2.88,-5.11 -1.51,-3.85 -0.38,-2.48 0.74,-1.11 0.86,-1.00 0.98,-0.90 1.07,-0.77 1.17,-0.63 1.23,-0.49 1.29,-0.34 1.31,-0.18 1.33,-0.02 1.31,0.13 1.30,0.29 1.24,0.45 1.19,0.60 1.10,0.73 1.01,0.86 0.89,0.97 0.77,1.08 0.63,1.16 0.49,1.24 0.33,1.28 0.18,1.32 0.02,1.32 -0.13,1.32 -0.29,1.29 -0.45,1.25 -0.59,1.18 -0.74,1.11 -0.74,1.11 L -0.74,1.11 Z"></path></g><g transform="translate(98.55555555555497 209.49999999999886) rotate(319.61905007290864 27.99261474609375 75.08946673324664)"><text x="0" y="105.24539657331852" font-family="Virgil, Segoe UI Emoji" font-size="120.14314677319464px" fill="#1e1e1e" text-anchor="start" style="white-space: pre;" direction="ltr" dominant-baseline="alphabetic">?</text></g><g transform="translate(131.27870757081575 146.1326897710611) rotate(341.565051177078 20.526987348346267 55.06170821884683)"><text x="0" y="77.17449023953569" font-family="Virgil, Segoe UI Emoji" font-size="88.0987331501549px" fill="#1e1e1e" text-anchor="start" style="white-space: pre;" direction="ltr" dominant-baseline="alphabetic">?</text></g><g transform="translate(196.43977914934476 125.71350627375159) rotate(4.666858371438975 24.688434476280236 66.22439778638915)"><text x="0" y="92.82011593740303" font-family="Virgil, Segoe UI Emoji" font-size="105.95903645822263px" fill="#1e1e1e" text-anchor="start" style="white-space: pre;" direction="ltr" dominant-baseline="alphabetic">?</text></g></svg>