<svg version="1.1" xmlns="http://www.w3.org/2000/svg" viewBox="0 0 484.99999999999955 489.1666666666664" width="484.99999999999955" height="489.1666666666664">
  <!-- svg-source:excalidraw -->
  
  <defs>
    <style class="style-fonts">
      @font-face {
        font-family: "Virgil";
        src: url("https://excalidraw.com/Virgil.woff2");
      }
      @font-face {
        font-family: "Cascadia";
        src: url("https://excalidraw.com/Cascadia.woff2");
      }
      @font-face {
        font-family: "Assistant";
        src: url("https://excalidraw.com/Assistant-Regular.woff2");
      }
    </style>
    
  </defs>
  <g transform="translate(38.33333333333303 247.5) rotate(0 19.166666666666742 -19.166666666666686)" stroke="none"><path d="M-4.02 -3.9 C-4.41 -5.11, -3.25 -5.77, -3.86 -6.62 C-4.46 -7.47, -6.58 -9.75, -7.66 -9 C-8.73 -8.25, -11.2 -3.11, -10.33 -2.12 C-9.46 -1.14, -2.87 -1.97, -2.42 -3.09 C-1.97 -4.21, -6.8 -8.43, -7.64 -8.86 C-8.48 -9.29, -7.58 -5.66, -7.45 -5.67 C-7.33 -5.67, -8.56 -6.63, -6.87 -8.91 C-5.19 -11.2, -0.06 -16.52, 2.68 -19.39 C5.42 -22.25, 8.56 -24.06, 9.56 -26.08 C10.56 -28.1, 10.31 -29.87, 8.68 -31.48 C7.05 -33.09, 1.1 -35.19, -0.2 -35.74 C-1.5 -36.29, 0.13 -34.51, 0.9 -34.8 C1.68 -35.1, 3.29 -36.43, 4.44 -37.52 C5.6 -38.6, 2.52 -40.61, 7.83 -41.31 C13.14 -42.02, 31.68 -42.48, 36.3 -41.76 C40.91 -41.04, 34.79 -38.08, 35.52 -36.99 C36.24 -35.89, 38.81 -34.84, 40.64 -35.18 C42.47 -35.51, 44.81 -38.15, 46.49 -38.98 C48.18 -39.81, 50.05 -42.11, 50.78 -40.15 C51.51 -38.19, 51.28 -29.03, 50.86 -27.2 C50.45 -25.38, 49.32 -30.03, 48.31 -29.22 C47.3 -28.41, 46.61 -24.96, 44.8 -22.34 C43 -19.72, 38.3 -16.49, 37.48 -13.51 C36.67 -10.54, 39.85 -6.02, 39.92 -4.48 C39.98 -2.94, 38.44 -4.76, 37.86 -4.28 C37.28 -3.79, 36.91 -0.75, 36.43 -1.58 C35.96 -2.41, 35.55 -9.1, 35.03 -9.28 C34.52 -9.46, 35.24 -3.14, 33.35 -2.67 C31.46 -2.19, 24.89 -4.24, 23.69 -6.44 C22.5 -8.64, 25.84 -14.71, 26.18 -15.88 C26.52 -17.06, 25.98 -13.64, 25.72 -13.5 C25.46 -13.36, 25.79 -14.79, 24.64 -15.04 C23.49 -15.29, 20.09 -15.82, 18.82 -15.01 C17.55 -14.19, 18.08 -10.03, 17.03 -10.16 C15.97 -10.29, 12.11 -16.41, 12.47 -15.79 C12.83 -15.17, 18.64 -8.24, 19.17 -6.44 C19.7 -4.63, 16.14 -4.52, 15.67 -4.96 C15.2 -5.4, 17.62 -9.53, 16.35 -9.09 C15.08 -8.65, 8.59 -3.65, 8.04 -2.31 C7.48 -0.97, 13.69 -1.39, 13.02 -1.05 C12.36 -0.71, 4.66 0.16, 4.05 -0.25 C3.43 -0.67, 9.64 -4.35, 9.32 -3.52 C9 -2.69, 3.4 3.81, 2.13 4.73 C0.86 5.66, 2.21 2.5, 1.69 2.04" stroke="none" stroke-width="0" fill="#e9ecef" fill-rule="evenodd"></path><path fill="#1e1e1e" d="M -0.74,1.11 Q -0.74,1.11 -2.49,0.56 -4.23,0.01 -5.09,-1.11 -5.95,-2.24 -7.03,-3.31 -8.10,-4.37 -9.18,-5.42 -10.26,-6.46 -10.18,-8.16 -10.11,-9.86 -9.44,-10.72 -8.78,-11.59 -7.77,-12.57 -6.77,-13.55 -5.34,-14.96 -3.91,-16.37 -2.82,-17.45 -1.73,-18.53 -0.76,-19.48 0.20,-20.43 1.42,-21.07 2.64,-21.70 4.45,-22.68 6.26,-23.66 7.78,-24.39 9.31,-25.12 8.32,-26.04 7.33,-26.96 6.40,-28.47 5.47,-29.98 4.76,-30.88 4.04,-31.77 3.26,-32.65 2.48,-33.53 2.04,-35.57 1.60,-37.61 2.16,-38.67 2.72,-39.73 3.86,-40.21 5.01,-40.70 7.15,-41.52 9.29,-42.35 10.42,-42.46 11.56,-42.58 13.04,-42.64 14.52,-42.69 16.10,-42.72 17.67,-42.74 18.82,-42.76 19.96,-42.77 21.41,-42.78 22.86,-42.79 23.95,-42.79 25.04,-42.80 26.47,-42.80 27.89,-42.81 29.45,-42.81 31.02,-42.81 32.23,-42.80 33.44,-42.78 34.94,-42.18 36.45,-41.58 38.44,-41.41 40.43,-41.25 41.87,-40.59 43.31,-39.92 44.86,-39.57 46.41,-39.23 47.46,-38.27 48.51,-37.32 48.87,-36.15 49.23,-34.97 49.35,-32.63 49.47,-30.29 49.46,-29.17 49.45,-28.05 48.84,-26.57 48.23,-25.09 48.09,-22.75 47.94,-20.41 47.36,-18.46 46.78,-16.51 45.87,-14.10 44.96,-11.69 44.79,-10.48 44.62,-9.26 44.36,-8.11 44.10,-6.96 43.33,-6.07 42.56,-5.18 41.53,-3.29 40.49,-1.40 39.15,-1.12 37.80,-0.84 36.32,-1.37 34.83,-1.90 33.35,-2.21 31.88,-2.53 31.01,-3.32 30.14,-4.11 28.96,-4.67 27.78,-5.23 26.42,-6.36 25.06,-7.49 24.17,-8.39 23.28,-9.30 22.46,-10.16 21.64,-11.02 20.84,-10.12 20.04,-9.22 18.72,-8.63 17.39,-8.04 16.59,-7.21 15.79,-6.39 14.97,-5.54 14.15,-4.70 13.32,-3.86 12.49,-3.02 11.45,-1.97 10.41,-0.91 8.97,-0.20 7.54,0.50 6.47,1.47 5.40,2.43 3.10,2.01 0.80,1.60 0.61,1.51 0.42,1.41 0.27,1.27 0.12,1.12 0.02,0.93 -0.07,0.74 -0.10,0.53 -0.13,0.32 -0.10,0.11 -0.06,-0.09 0.03,-0.27 0.13,-0.46 0.29,-0.61 0.45,-0.75 0.64,-0.84 0.83,-0.92 1.05,-0.94 1.26,-0.96 1.46,-0.92 1.67,-0.87 1.85,-0.76 2.03,-0.65 2.17,-0.48 2.30,-0.32 2.38,-0.12 2.46,0.07 2.47,0.28 2.47,0.49 2.42,0.70 2.36,0.90 2.23,1.08 2.11,1.25 1.94,1.38 1.77,1.50 1.57,1.57 1.37,1.63 1.16,1.63 0.94,1.63 0.74,1.56 0.54,1.49 0.37,1.36 0.21,1.23 0.09,1.05 -0.02,0.87 -0.07,0.67 -0.13,0.46 -0.11,0.25 -0.10,0.04 -0.02,-0.15 0.05,-0.34 0.19,-0.50 0.33,-0.66 0.52,-0.77 0.70,-0.88 0.91,-0.92 1.11,-0.97 1.33,-0.94 1.54,-0.92 1.54,-0.92 1.54,-0.92 2.35,-1.79 3.17,-2.66 4.53,-3.80 5.89,-4.94 6.96,-5.39 8.02,-5.83 8.86,-6.66 9.69,-7.49 10.54,-8.32 11.39,-9.14 12.26,-9.97 13.12,-10.80 14.06,-11.66 15.00,-12.53 15.81,-13.32 16.61,-14.10 18.31,-14.72 20.01,-15.34 21.78,-15.37 23.54,-15.41 24.60,-14.41 25.66,-13.41 26.51,-12.60 27.36,-11.80 28.22,-11.05 29.08,-10.30 30.48,-9.63 31.88,-8.97 33.50,-8.22 35.13,-7.47 36.39,-7.14 37.65,-6.81 38.33,-8.37 39.01,-9.94 39.15,-10.99 39.29,-12.05 40.09,-13.84 40.89,-15.63 41.15,-16.93 41.40,-18.23 41.85,-19.50 42.30,-20.77 42.40,-22.42 42.49,-24.07 42.83,-25.84 43.16,-27.61 43.47,-28.89 43.77,-30.17 43.39,-32.20 43.01,-34.22 41.39,-34.94 39.76,-35.66 38.66,-35.75 37.56,-35.83 35.37,-36.52 33.17,-37.21 32.10,-37.19 31.02,-37.18 29.46,-37.18 27.89,-37.18 26.47,-37.19 25.05,-37.19 23.96,-37.19 22.87,-37.19 21.43,-37.20 20.00,-37.20 18.87,-37.20 17.74,-37.19 16.21,-37.18 14.69,-37.18 13.39,-37.15 12.08,-37.12 10.41,-37.03 8.73,-36.94 7.67,-37.02 6.61,-37.09 7.48,-36.13 8.35,-35.18 9.26,-34.01 10.18,-32.85 10.82,-31.78 11.46,-30.70 12.25,-29.84 13.05,-28.98 13.91,-27.19 14.78,-25.41 13.93,-23.99 13.09,-22.58 11.64,-21.46 10.20,-20.35 8.55,-19.50 6.90,-18.66 5.28,-17.72 3.67,-16.78 2.75,-15.85 1.83,-14.93 0.74,-13.84 -0.35,-12.75 -1.81,-11.32 -3.27,-9.88 -4.67,-9.05 -6.07,-8.22 -5.16,-7.30 -4.26,-6.37 -2.88,-5.11 -1.51,-3.85 -0.38,-2.48 0.74,-1.11 0.86,-1.00 0.98,-0.90 1.07,-0.77 1.17,-0.63 1.23,-0.49 1.29,-0.34 1.31,-0.18 1.33,-0.02 1.31,0.13 1.30,0.29 1.24,0.45 1.19,0.60 1.10,0.73 1.01,0.86 0.89,0.97 0.77,1.08 0.63,1.16 0.49,1.24 0.33,1.28 0.18,1.32 0.02,1.32 -0.13,1.32 -0.29,1.29 -0.45,1.25 -0.59,1.18 -0.74,1.11 -0.74,1.11 L -0.74,1.11 Z"></path></g><g transform="translate(208.33333333333303 237.5) rotate(0 19.166666666666742 -19.166666666666686)" stroke="none"><path d="M-4 -3.66 C-3.81 -3.07, -2.55 1.02, -2.12 0.91 C-1.69 0.81, -0.3 -3.47, -1.42 -4.31 C-2.54 -5.15, -8.71 -3.69, -8.86 -4.12 C-9.01 -4.55, -2.6 -6.34, -2.33 -6.87 C-2.06 -7.41, -6.35 -6.17, -7.25 -7.32 C-8.15 -8.47, -7.64 -13.39, -7.72 -13.77 C-7.8 -14.16, -9.34 -8.03, -7.75 -9.65 C-6.15 -11.28, -1.82 -20.57, 1.85 -23.53 C5.52 -26.5, 12.59 -25.98, 14.26 -27.43 C15.93 -28.88, 13.55 -30.6, 11.86 -32.23 C10.18 -33.85, 5.79 -36.37, 4.15 -37.17 C2.51 -37.97, 1.89 -36.65, 2.02 -37.03 C2.15 -37.42, 3.63 -38.82, 4.91 -39.48 C6.18 -40.15, 4.14 -41.46, 9.68 -41.02 C15.22 -40.58, 34.04 -37.97, 38.16 -36.84 C42.27 -35.71, 34.35 -34.67, 34.35 -34.22 C34.35 -33.77, 36.77 -34.28, 38.18 -34.14 C39.59 -33.99, 42.08 -32.9, 42.8 -33.36 C43.51 -33.81, 42.47 -37.28, 42.45 -36.87 C42.43 -36.45, 42.54 -32.54, 42.66 -30.85 C42.78 -29.16, 42.4 -28.48, 43.15 -26.75 C43.91 -25.02, 47.04 -22.39, 47.19 -20.47 C47.34 -18.55, 44.68 -18.09, 44.06 -15.23 C43.43 -12.37, 44.81 -5.01, 43.42 -3.3 C42.03 -1.59, 35.62 -4.49, 35.72 -4.99 C35.82 -5.49, 44.36 -6.5, 44 -6.31 C43.64 -6.11, 36.32 -4.16, 33.56 -3.82 C30.8 -3.48, 28.91 -3.75, 27.45 -4.28 C26 -4.82, 25.53 -5.6, 24.84 -7.03 C24.14 -8.46, 23.82 -11.58, 23.29 -12.85 C22.76 -14.12, 21.4 -13.86, 21.66 -14.64 C21.92 -15.42, 25.81 -18.17, 24.84 -17.53 C23.88 -16.9, 16.09 -12.2, 15.88 -10.83 C15.67 -9.46, 22.87 -9.69, 23.56 -9.33 C24.26 -8.97, 21.59 -7.94, 20.04 -8.65 C18.49 -9.37, 14.64 -14.19, 14.24 -13.63 C13.85 -13.07, 17.46 -6.31, 17.69 -5.31 C17.92 -4.31, 16.38 -8.11, 15.62 -7.62 C14.85 -7.12, 14.6 -3.14, 13.08 -2.34 C11.56 -1.55, 7.32 -3.26, 6.48 -2.87 C5.65 -2.48, 7.97 -0.29, 8.07 0.02 C8.16 0.33, 7.78 -0.63, 7.04 -1.03 C6.29 -1.43, 4.63 -2.01, 3.6 -2.37 C2.58 -2.73, 2.06 -3.32, 0.89 -3.19" stroke="none" stroke-width="0" fill="#e9ecef" fill-rule="evenodd"></path><path fill="#1e1e1e" d="M -0.74,1.11 Q -0.74,1.11 -2.49,0.56 -4.23,0.01 -5.09,-1.11 -5.95,-2.24 -7.03,-3.31 -8.10,-4.37 -9.18,-5.42 -10.26,-6.46 -10.18,-8.16 -10.11,-9.86 -9.44,-10.72 -8.78,-11.59 -7.77,-12.57 -6.77,-13.55 -5.34,-14.96 -3.91,-16.37 -2.82,-17.45 -1.73,-18.53 -0.76,-19.48 0.20,-20.43 1.42,-21.07 2.64,-21.70 4.45,-22.68 6.26,-23.66 7.78,-24.39 9.31,-25.12 8.32,-26.04 7.33,-26.96 6.40,-28.47 5.47,-29.98 4.76,-30.88 4.04,-31.77 3.26,-32.65 2.48,-33.53 2.04,-35.57 1.60,-37.61 2.16,-38.67 2.72,-39.73 3.86,-40.21 5.01,-40.70 7.15,-41.52 9.29,-42.35 10.42,-42.46 11.56,-42.58 13.04,-42.64 14.52,-42.69 16.10,-42.72 17.67,-42.74 18.82,-42.76 19.96,-42.77 21.41,-42.78 22.86,-42.79 23.95,-42.79 25.04,-42.80 26.47,-42.80 27.89,-42.81 29.45,-42.81 31.02,-42.81 32.23,-42.80 33.44,-42.78 34.94,-42.18 36.45,-41.58 38.44,-41.41 40.43,-41.25 41.87,-40.59 43.31,-39.92 44.86,-39.57 46.41,-39.23 47.46,-38.27 48.51,-37.32 48.87,-36.15 49.23,-34.97 49.35,-32.63 49.47,-30.29 49.46,-29.17 49.45,-28.05 48.84,-26.57 48.23,-25.09 48.09,-22.75 47.94,-20.41 47.36,-18.46 46.78,-16.51 45.87,-14.10 44.96,-11.69 44.79,-10.48 44.62,-9.26 44.36,-8.11 44.10,-6.96 43.33,-6.07 42.56,-5.18 41.53,-3.29 40.49,-1.40 39.15,-1.12 37.80,-0.84 36.32,-1.37 34.83,-1.90 33.35,-2.21 31.88,-2.53 31.01,-3.32 30.14,-4.11 28.96,-4.67 27.78,-5.23 26.42,-6.36 25.06,-7.49 24.17,-8.39 23.28,-9.30 22.46,-10.16 21.64,-11.02 20.84,-10.12 20.04,-9.22 18.72,-8.63 17.39,-8.04 16.59,-7.21 15.79,-6.39 14.97,-5.54 14.15,-4.70 13.32,-3.86 12.49,-3.02 11.45,-1.97 10.41,-0.91 8.97,-0.20 7.54,0.50 6.47,1.47 5.40,2.43 3.10,2.01 0.80,1.60 0.61,1.51 0.42,1.41 0.27,1.27 0.12,1.12 0.02,0.93 -0.07,0.74 -0.10,0.53 -0.13,0.32 -0.10,0.11 -0.06,-0.09 0.03,-0.27 0.13,-0.46 0.29,-0.61 0.45,-0.75 0.64,-0.84 0.83,-0.92 1.05,-0.94 1.26,-0.96 1.46,-0.92 1.67,-0.87 1.85,-0.76 2.03,-0.65 2.17,-0.48 2.30,-0.32 2.38,-0.12 2.46,0.07 2.47,0.28 2.47,0.49 2.42,0.70 2.36,0.90 2.23,1.08 2.11,1.25 1.94,1.38 1.77,1.50 1.57,1.57 1.37,1.63 1.16,1.63 0.94,1.63 0.74,1.56 0.54,1.49 0.37,1.36 0.21,1.23 0.09,1.05 -0.02,0.87 -0.07,0.67 -0.13,0.46 -0.11,0.25 -0.10,0.04 -0.02,-0.15 0.05,-0.34 0.19,-0.50 0.33,-0.66 0.52,-0.77 0.70,-0.88 0.91,-0.92 1.11,-0.97 1.33,-0.94 1.54,-0.92 1.54,-0.92 1.54,-0.92 2.35,-1.79 3.17,-2.66 4.53,-3.80 5.89,-4.94 6.96,-5.39 8.02,-5.83 8.86,-6.66 9.69,-7.49 10.54,-8.32 11.39,-9.14 12.26,-9.97 13.12,-10.80 14.06,-11.66 15.00,-12.53 15.81,-13.32 16.61,-14.10 18.31,-14.72 20.01,-15.34 21.78,-15.37 23.54,-15.41 24.60,-14.41 25.66,-13.41 26.51,-12.60 27.36,-11.80 28.22,-11.05 29.08,-10.30 30.48,-9.63 31.88,-8.97 33.50,-8.22 35.13,-7.47 36.39,-7.14 37.65,-6.81 38.33,-8.37 39.01,-9.94 39.15,-10.99 39.29,-12.05 40.09,-13.84 40.89,-15.63 41.15,-16.93 41.40,-18.23 41.85,-19.50 42.30,-20.77 42.40,-22.42 42.49,-24.07 42.83,-25.84 43.16,-27.61 43.47,-28.89 43.77,-30.17 43.39,-32.20 43.01,-34.22 41.39,-34.94 39.76,-35.66 38.66,-35.75 37.56,-35.83 35.37,-36.52 33.17,-37.21 32.10,-37.19 31.02,-37.18 29.46,-37.18 27.89,-37.18 26.47,-37.19 25.05,-37.19 23.96,-37.19 22.87,-37.19 21.43,-37.20 20.00,-37.20 18.87,-37.20 17.74,-37.19 16.21,-37.18 14.69,-37.18 13.39,-37.15 12.08,-37.12 10.41,-37.03 8.73,-36.94 7.67,-37.02 6.61,-37.09 7.48,-36.13 8.35,-35.18 9.26,-34.01 10.18,-32.85 10.82,-31.78 11.46,-30.70 12.25,-29.84 13.05,-28.98 13.91,-27.19 14.78,-25.41 13.93,-23.99 13.09,-22.58 11.64,-21.46 10.20,-20.35 8.55,-19.50 6.90,-18.66 5.28,-17.72 3.67,-16.78 2.75,-15.85 1.83,-14.93 0.74,-13.84 -0.35,-12.75 -1.81,-11.32 -3.27,-9.88 -4.67,-9.05 -6.07,-8.22 -5.16,-7.30 -4.26,-6.37 -2.88,-5.11 -1.51,-3.85 -0.38,-2.48 0.74,-1.11 0.86,-1.00 0.98,-0.90 1.07,-0.77 1.17,-0.63 1.23,-0.49 1.29,-0.34 1.31,-0.18 1.33,-0.02 1.31,0.13 1.30,0.29 1.24,0.45 1.19,0.60 1.10,0.73 1.01,0.86 0.89,0.97 0.77,1.08 0.63,1.16 0.49,1.24 0.33,1.28 0.18,1.32 0.02,1.32 -0.13,1.32 -0.29,1.29 -0.45,1.25 -0.59,1.18 -0.74,1.11 -0.74,1.11 L -0.74,1.11 Z"></path></g><g transform="translate(223.33333333333303 397.4999999999998) rotate(0 19.166666666666742 -19.166666666666686)" stroke="none"><path d="M0.69 -2.19 C-0.7 -2.62, -3.14 1.29, -4.12 1 C-5.1 0.71, -4.67 -3.02, -5.21 -3.91 C-5.74 -4.81, -6.45 -3.75, -7.32 -4.39 C-8.2 -5.02, -10.33 -7.12, -10.44 -7.75 C-10.55 -8.37, -7.75 -7.93, -7.99 -8.15 C-8.22 -8.37, -11.68 -9.35, -11.87 -9.07 C-12.05 -8.79, -11.26 -4.78, -9.1 -6.47 C-6.93 -8.15, -2.55 -15.88, 1.11 -19.19 C4.76 -22.49, 11.41 -24.22, 12.83 -26.31 C14.25 -28.41, 11.41 -30.26, 9.63 -31.76 C7.86 -33.26, 3.4 -34.75, 2.18 -35.32 C0.96 -35.89, 1.04 -34.29, 2.31 -35.18 C3.59 -36.07, 8.14 -39.27, 9.83 -40.65 C11.52 -42.03, 7.55 -43.5, 12.44 -43.48 C17.34 -43.47, 34.61 -40.69, 39.2 -40.54 C43.79 -40.38, 39.6 -42.25, 39.98 -42.55 C40.35 -42.85, 41.61 -43.01, 41.47 -42.34 C41.33 -41.67, 38.57 -39.82, 39.15 -38.51 C39.72 -37.2, 44.02 -36.85, 44.92 -34.48 C45.81 -32.11, 45.11 -26.15, 44.53 -24.28 C43.95 -22.41, 40.8 -23.53, 41.43 -23.25 C42.07 -22.97, 48.05 -25.21, 48.37 -22.61 C48.68 -20.02, 44.96 -10.64, 43.35 -7.67 C41.73 -4.69, 39.06 -4.24, 38.69 -4.77 C38.33 -5.31, 40.56 -10.82, 41.18 -10.88 C41.79 -10.95, 43.75 -5.86, 42.39 -5.16 C41.02 -4.47, 34.95 -6.18, 32.97 -6.71 C30.99 -7.24, 32.03 -8.32, 30.49 -8.34 C28.94 -8.36, 25.31 -5.58, 23.69 -6.82 C22.08 -8.06, 20.45 -15.57, 20.8 -15.79 C21.16 -16, 25.02 -9.08, 25.84 -8.1 C26.65 -7.13, 26.14 -8.68, 25.67 -9.96 C25.2 -11.23, 24.56 -16.2, 23.01 -15.76 C21.46 -15.32, 16.93 -8.37, 16.37 -7.31 C15.82 -6.25, 19.8 -9.17, 19.69 -9.38 C19.58 -9.6, 16.05 -8.18, 15.71 -8.59 C15.38 -9, 17.97 -12.68, 17.66 -11.85 C17.34 -11.02, 14.51 -4.8, 13.8 -3.6 C13.08 -2.4, 14.16 -5, 13.35 -4.63 C12.55 -4.26, 11.04 -2.04, 8.97 -1.4 C6.9 -0.75, 2.15 -0.44, 0.96 -0.77 C-0.23 -1.11, 1.96 -3.92, 1.81 -3.41 C1.67 -2.91, 1.1 2.37, 0.09 2.25 C-0.92 2.13, -4.27 -4.36, -4.25 -4.12" stroke="none" stroke-width="0" fill="#e9ecef" fill-rule="evenodd"></path><path fill="#1e1e1e" d="M -0.74,1.11 Q -0.74,1.11 -2.49,0.56 -4.23,0.01 -5.09,-1.11 -5.95,-2.24 -7.03,-3.31 -8.10,-4.37 -9.18,-5.42 -10.26,-6.46 -10.18,-8.16 -10.11,-9.86 -9.44,-10.72 -8.78,-11.59 -7.77,-12.57 -6.77,-13.55 -5.34,-14.96 -3.91,-16.37 -2.82,-17.45 -1.73,-18.53 -0.76,-19.48 0.20,-20.43 1.42,-21.07 2.64,-21.70 4.45,-22.68 6.26,-23.66 7.78,-24.39 9.31,-25.12 8.32,-26.04 7.33,-26.96 6.40,-28.47 5.47,-29.98 4.76,-30.88 4.04,-31.77 3.26,-32.65 2.48,-33.53 2.04,-35.57 1.60,-37.61 2.16,-38.67 2.72,-39.73 3.86,-40.21 5.01,-40.70 7.15,-41.52 9.29,-42.35 10.42,-42.46 11.56,-42.58 13.04,-42.64 14.52,-42.69 16.10,-42.72 17.67,-42.74 18.82,-42.76 19.96,-42.77 21.41,-42.78 22.86,-42.79 23.95,-42.79 25.04,-42.80 26.47,-42.80 27.89,-42.81 29.45,-42.81 31.02,-42.81 32.23,-42.80 33.44,-42.78 34.94,-42.18 36.45,-41.58 38.44,-41.41 40.43,-41.25 41.87,-40.59 43.31,-39.92 44.86,-39.57 46.41,-39.23 47.46,-38.27 48.51,-37.32 48.87,-36.15 49.23,-34.97 49.35,-32.63 49.47,-30.29 49.46,-29.17 49.45,-28.05 48.84,-26.57 48.23,-25.09 48.09,-22.75 47.94,-20.41 47.36,-18.46 46.78,-16.51 45.87,-14.10 44.96,-11.69 44.79,-10.48 44.62,-9.26 44.36,-8.11 44.10,-6.96 43.33,-6.07 42.56,-5.18 41.53,-3.29 40.49,-1.40 39.15,-1.12 37.80,-0.84 36.32,-1.37 34.83,-1.90 33.35,-2.21 31.88,-2.53 31.01,-3.32 30.14,-4.11 28.96,-4.67 27.78,-5.23 26.42,-6.36 25.06,-7.49 24.17,-8.39 23.28,-9.30 22.46,-10.16 21.64,-11.02 20.84,-10.12 20.04,-9.22 18.72,-8.63 17.39,-8.04 16.59,-7.21 15.79,-6.39 14.97,-5.54 14.15,-4.70 13.32,-3.86 12.49,-3.02 11.45,-1.97 10.41,-0.91 8.97,-0.20 7.54,0.50 6.47,1.47 5.40,2.43 3.10,2.01 0.80,1.60 0.61,1.51 0.42,1.41 0.27,1.27 0.12,1.12 0.02,0.93 -0.07,0.74 -0.10,0.53 -0.13,0.32 -0.10,0.11 -0.06,-0.09 0.03,-0.27 0.13,-0.46 0.29,-0.61 0.45,-0.75 0.64,-0.84 0.83,-0.92 1.05,-0.94 1.26,-0.96 1.46,-0.92 1.67,-0.87 1.85,-0.76 2.03,-0.65 2.17,-0.48 2.30,-0.32 2.38,-0.12 2.46,0.07 2.47,0.28 2.47,0.49 2.42,0.70 2.36,0.90 2.23,1.08 2.11,1.25 1.94,1.38 1.77,1.50 1.57,1.57 1.37,1.63 1.16,1.63 0.94,1.63 0.74,1.56 0.54,1.49 0.37,1.36 0.21,1.23 0.09,1.05 -0.02,0.87 -0.07,0.67 -0.13,0.46 -0.11,0.25 -0.10,0.04 -0.02,-0.15 0.05,-0.34 0.19,-0.50 0.33,-0.66 0.52,-0.77 0.70,-0.88 0.91,-0.92 1.11,-0.97 1.33,-0.94 1.54,-0.92 1.54,-0.92 1.54,-0.92 2.35,-1.79 3.17,-2.66 4.53,-3.80 5.89,-4.94 6.96,-5.39 8.02,-5.83 8.86,-6.66 9.69,-7.49 10.54,-8.32 11.39,-9.14 12.26,-9.97 13.12,-10.80 14.06,-11.66 15.00,-12.53 15.81,-13.32 16.61,-14.10 18.31,-14.72 20.01,-15.34 21.78,-15.37 23.54,-15.41 24.60,-14.41 25.66,-13.41 26.51,-12.60 27.36,-11.80 28.22,-11.05 29.08,-10.30 30.48,-9.63 31.88,-8.97 33.50,-8.22 35.13,-7.47 36.39,-7.14 37.65,-6.81 38.33,-8.37 39.01,-9.94 39.15,-10.99 39.29,-12.05 40.09,-13.84 40.89,-15.63 41.15,-16.93 41.40,-18.23 41.85,-19.50 42.30,-20.77 42.40,-22.42 42.49,-24.07 42.83,-25.84 43.16,-27.61 43.47,-28.89 43.77,-30.17 43.39,-32.20 43.01,-34.22 41.39,-34.94 39.76,-35.66 38.66,-35.75 37.56,-35.83 35.37,-36.52 33.17,-37.21 32.10,-37.19 31.02,-37.18 29.46,-37.18 27.89,-37.18 26.47,-37.19 25.05,-37.19 23.96,-37.19 22.87,-37.19 21.43,-37.20 20.00,-37.20 18.87,-37.20 17.74,-37.19 16.21,-37.18 14.69,-37.18 13.39,-37.15 12.08,-37.12 10.41,-37.03 8.73,-36.94 7.67,-37.02 6.61,-37.09 7.48,-36.13 8.35,-35.18 9.26,-34.01 10.18,-32.85 10.82,-31.78 11.46,-30.70 12.25,-29.84 13.05,-28.98 13.91,-27.19 14.78,-25.41 13.93,-23.99 13.09,-22.58 11.64,-21.46 10.20,-20.35 8.55,-19.50 6.90,-18.66 5.28,-17.72 3.67,-16.78 2.75,-15.85 1.83,-14.93 0.74,-13.84 -0.35,-12.75 -1.81,-11.32 -3.27,-9.88 -4.67,-9.05 -6.07,-8.22 -5.16,-7.30 -4.26,-6.37 -2.88,-5.11 -1.51,-3.85 -0.38,-2.48 0.74,-1.11 0.86,-1.00 0.98,-0.90 1.07,-0.77 1.17,-0.63 1.23,-0.49 1.29,-0.34 1.31,-0.18 1.33,-0.02 1.31,0.13 1.30,0.29 1.24,0.45 1.19,0.60 1.10,0.73 1.01,0.86 0.89,0.97 0.77,1.08 0.63,1.16 0.49,1.24 0.33,1.28 0.18,1.32 0.02,1.32 -0.13,1.32 -0.29,1.29 -0.45,1.25 -0.59,1.18 -0.74,1.11 -0.74,1.11 L -0.74,1.11 Z"></path></g><g transform="translate(18.33333333333303 477.4999999999998) rotate(0 19.166666666666742 -19.166666666666686)" stroke="none"><path d="M1.09 -0.66 C-0.37 -1.81, -3.19 -6.44, -4.39 -7.11 C-5.58 -7.77, -5.45 -4.41, -6.08 -4.65 C-6.71 -4.89, -8.21 -7.79, -8.15 -8.53 C-8.09 -9.27, -6.3 -9.04, -5.74 -9.1 C-5.18 -9.16, -4.51 -8.66, -4.8 -8.89 C-5.1 -9.13, -6.99 -10.54, -7.52 -10.5 C-8.05 -10.47, -9.5 -6.93, -7.98 -8.7 C-6.47 -10.48, -2.2 -18.26, 1.57 -21.15 C5.35 -24.04, 13.03 -25.07, 14.68 -26.02 C16.33 -26.97, 13.77 -25.75, 11.49 -26.84 C9.21 -27.93, 2.96 -31.34, 1.02 -32.56 C-0.92 -33.77, -1 -33.72, -0.15 -34.14 C0.7 -34.55, 5.42 -34.01, 6.13 -35.02 C6.84 -36.03, -0.03 -38.67, 4.12 -40.2 C8.26 -41.73, 25.88 -44.2, 31 -44.18 C36.11 -44.16, 32.68 -40.7, 34.82 -40.08 C36.96 -39.46, 42.04 -40.45, 43.85 -40.47 C45.67 -40.5, 44.96 -41.43, 45.72 -40.23 C46.48 -39.04, 48.97 -35.84, 48.42 -33.3 C47.86 -30.76, 42.29 -25.88, 42.39 -24.99 C42.48 -24.1, 48.25 -29.28, 49 -27.97 C49.75 -26.67, 48.82 -20.27, 46.89 -17.16 C44.97 -14.04, 38.63 -11.25, 37.45 -9.28 C36.28 -7.32, 39.7 -5.6, 39.84 -5.36 C39.97 -5.13, 38.54 -7.69, 38.29 -7.85 C38.04 -8.01, 39.18 -6.08, 38.33 -6.31 C37.48 -6.53, 34.97 -9.55, 33.18 -9.2 C31.38 -8.84, 28.04 -4.7, 27.55 -4.16 C27.06 -3.63, 30.09 -5.25, 30.23 -5.99 C30.37 -6.74, 29.93 -7.1, 28.37 -8.65 C26.82 -10.2, 21.02 -15.02, 20.91 -15.3 C20.8 -15.57, 27.46 -10.48, 27.69 -10.31 C27.92 -10.14, 23.33 -14.78, 22.28 -14.29 C21.24 -13.79, 22.94 -7.86, 21.41 -7.34 C19.89 -6.83, 13.43 -11.04, 13.15 -11.2 C12.87 -11.36, 19.36 -8.62, 19.73 -8.31 C20.1 -8.01, 16.11 -8.96, 15.37 -9.36 C14.63 -9.76, 15.74 -10.63, 15.27 -10.71 C14.8 -10.79, 14.01 -10.82, 12.56 -9.86 C11.11 -8.89, 7.75 -5.57, 6.59 -4.91 C5.42 -4.25, 6.53 -6.77, 5.58 -5.92 C4.63 -5.06, 0.92 -1.27, 0.88 0.23 C0.84 1.74, 5.95 2.65, 5.32 3.11 C4.7 3.57, -2.52 3.24, -2.85 2.98" stroke="none" stroke-width="0" fill="#e9ecef" fill-rule="evenodd"></path><path fill="#1e1e1e" d="M -0.74,1.11 Q -0.74,1.11 -2.49,0.56 -4.23,0.01 -5.09,-1.11 -5.95,-2.24 -7.03,-3.31 -8.10,-4.37 -9.18,-5.42 -10.26,-6.46 -10.18,-8.16 -10.11,-9.86 -9.44,-10.72 -8.78,-11.59 -7.77,-12.57 -6.77,-13.55 -5.34,-14.96 -3.91,-16.37 -2.82,-17.45 -1.73,-18.53 -0.76,-19.48 0.20,-20.43 1.42,-21.07 2.64,-21.70 4.45,-22.68 6.26,-23.66 7.78,-24.39 9.31,-25.12 8.32,-26.04 7.33,-26.96 6.40,-28.47 5.47,-29.98 4.76,-30.88 4.04,-31.77 3.26,-32.65 2.48,-33.53 2.04,-35.57 1.60,-37.61 2.16,-38.67 2.72,-39.73 3.86,-40.21 5.01,-40.70 7.15,-41.52 9.29,-42.35 10.42,-42.46 11.56,-42.58 13.04,-42.64 14.52,-42.69 16.10,-42.72 17.67,-42.74 18.82,-42.76 19.96,-42.77 21.41,-42.78 22.86,-42.79 23.95,-42.79 25.04,-42.80 26.47,-42.80 27.89,-42.81 29.45,-42.81 31.02,-42.81 32.23,-42.80 33.44,-42.78 34.94,-42.18 36.45,-41.58 38.44,-41.41 40.43,-41.25 41.87,-40.59 43.31,-39.92 44.86,-39.57 46.41,-39.23 47.46,-38.27 48.51,-37.32 48.87,-36.15 49.23,-34.97 49.35,-32.63 49.47,-30.29 49.46,-29.17 49.45,-28.05 48.84,-26.57 48.23,-25.09 48.09,-22.75 47.94,-20.41 47.36,-18.46 46.78,-16.51 45.87,-14.10 44.96,-11.69 44.79,-10.48 44.62,-9.26 44.36,-8.11 44.10,-6.96 43.33,-6.07 42.56,-5.18 41.53,-3.29 40.49,-1.40 39.15,-1.12 37.80,-0.84 36.32,-1.37 34.83,-1.90 33.35,-2.21 31.88,-2.53 31.01,-3.32 30.14,-4.11 28.96,-4.67 27.78,-5.23 26.42,-6.36 25.06,-7.49 24.17,-8.39 23.28,-9.30 22.46,-10.16 21.64,-11.02 20.84,-10.12 20.04,-9.22 18.72,-8.63 17.39,-8.04 16.59,-7.21 15.79,-6.39 14.97,-5.54 14.15,-4.70 13.32,-3.86 12.49,-3.02 11.45,-1.97 10.41,-0.91 8.97,-0.20 7.54,0.50 6.47,1.47 5.40,2.43 3.10,2.01 0.80,1.60 0.61,1.51 0.42,1.41 0.27,1.27 0.12,1.12 0.02,0.93 -0.07,0.74 -0.10,0.53 -0.13,0.32 -0.10,0.11 -0.06,-0.09 0.03,-0.27 0.13,-0.46 0.29,-0.61 0.45,-0.75 0.64,-0.84 0.83,-0.92 1.05,-0.94 1.26,-0.96 1.46,-0.92 1.67,-0.87 1.85,-0.76 2.03,-0.65 2.17,-0.48 2.30,-0.32 2.38,-0.12 2.46,0.07 2.47,0.28 2.47,0.49 2.42,0.70 2.36,0.90 2.23,1.08 2.11,1.25 1.94,1.38 1.77,1.50 1.57,1.57 1.37,1.63 1.16,1.63 0.94,1.63 0.74,1.56 0.54,1.49 0.37,1.36 0.21,1.23 0.09,1.05 -0.02,0.87 -0.07,0.67 -0.13,0.46 -0.11,0.25 -0.10,0.04 -0.02,-0.15 0.05,-0.34 0.19,-0.50 0.33,-0.66 0.52,-0.77 0.70,-0.88 0.91,-0.92 1.11,-0.97 1.33,-0.94 1.54,-0.92 1.54,-0.92 1.54,-0.92 2.35,-1.79 3.17,-2.66 4.53,-3.80 5.89,-4.94 6.96,-5.39 8.02,-5.83 8.86,-6.66 9.69,-7.49 10.54,-8.32 11.39,-9.14 12.26,-9.97 13.12,-10.80 14.06,-11.66 15.00,-12.53 15.81,-13.32 16.61,-14.10 18.31,-14.72 20.01,-15.34 21.78,-15.37 23.54,-15.41 24.60,-14.41 25.66,-13.41 26.51,-12.60 27.36,-11.80 28.22,-11.05 29.08,-10.30 30.48,-9.63 31.88,-8.97 33.50,-8.22 35.13,-7.47 36.39,-7.14 37.65,-6.81 38.33,-8.37 39.01,-9.94 39.15,-10.99 39.29,-12.05 40.09,-13.84 40.89,-15.63 41.15,-16.93 41.40,-18.23 41.85,-19.50 42.30,-20.77 42.40,-22.42 42.49,-24.07 42.83,-25.84 43.16,-27.61 43.47,-28.89 43.77,-30.17 43.39,-32.20 43.01,-34.22 41.39,-34.94 39.76,-35.66 38.66,-35.75 37.56,-35.83 35.37,-36.52 33.17,-37.21 32.10,-37.19 31.02,-37.18 29.46,-37.18 27.89,-37.18 26.47,-37.19 25.05,-37.19 23.96,-37.19 22.87,-37.19 21.43,-37.20 20.00,-37.20 18.87,-37.20 17.74,-37.19 16.21,-37.18 14.69,-37.18 13.39,-37.15 12.08,-37.12 10.41,-37.03 8.73,-36.94 7.67,-37.02 6.61,-37.09 7.48,-36.13 8.35,-35.18 9.26,-34.01 10.18,-32.85 10.82,-31.78 11.46,-30.70 12.25,-29.84 13.05,-28.98 13.91,-27.19 14.78,-25.41 13.93,-23.99 13.09,-22.58 11.64,-21.46 10.20,-20.35 8.55,-19.50 6.90,-18.66 5.28,-17.72 3.67,-16.78 2.75,-15.85 1.83,-14.93 0.74,-13.84 -0.35,-12.75 -1.81,-11.32 -3.27,-9.88 -4.67,-9.05 -6.07,-8.22 -5.16,-7.30 -4.26,-6.37 -2.88,-5.11 -1.51,-3.85 -0.38,-2.48 0.74,-1.11 0.86,-1.00 0.98,-0.90 1.07,-0.77 1.17,-0.63 1.23,-0.49 1.29,-0.34 1.31,-0.18 1.33,-0.02 1.31,0.13 1.30,0.29 1.24,0.45 1.19,0.60 1.10,0.73 1.01,0.86 0.89,0.97 0.77,1.08 0.63,1.16 0.49,1.24 0.33,1.28 0.18,1.32 0.02,1.32 -0.13,1.32 -0.29,1.29 -0.45,1.25 -0.59,1.18 -0.74,1.11 -0.74,1.11 L -0.74,1.11 Z"></path></g><g transform="translate(163.33333333333303 312.5) rotate(0 19.166666666666742 -19.166666666666686)" stroke="none"><path d="M0.35 -1.48 C-0.45 -1.7, -7.24 -2.41, -8.53 -2.41 C-9.83 -2.41, -7.37 -1.17, -7.43 -1.47 C-7.49 -1.77, -8.94 -3.1, -8.89 -4.19 C-8.85 -5.27, -7.48 -7.27, -7.17 -7.98 C-6.86 -8.69, -6.65 -8.32, -7.03 -8.43 C-7.42 -8.54, -9.37 -8.92, -9.48 -8.65 C-9.59 -8.39, -10.35 -4.57, -7.69 -6.84 C-5.03 -9.12, 2.31 -18.71, 6.49 -22.32 C10.68 -25.92, 16.44 -27.11, 17.44 -28.48 C18.45 -29.85, 14.33 -28.47, 12.53 -30.54 C10.73 -32.6, 8.21 -38.92, 6.64 -40.88 C5.08 -42.85, 3.83 -42.46, 3.13 -42.34 C2.44 -42.22, 1.91 -40.93, 2.48 -40.18 C3.06 -39.43, 1.52 -38.24, 6.58 -37.81 C11.65 -37.38, 28.44 -37.82, 32.86 -37.61 C37.28 -37.41, 31.07 -35.75, 33.1 -36.58 C35.13 -37.41, 43.05 -43.26, 45.03 -42.61 C47.02 -41.96, 45.24 -33.97, 45.01 -32.67 C44.79 -31.36, 43.22 -35.07, 43.69 -34.77 C44.17 -34.48, 47.23 -32.21, 47.84 -30.88 C48.46 -29.56, 47.64 -28.64, 47.39 -26.83 C47.13 -25.03, 47.45 -22.29, 46.3 -20.04 C45.15 -17.79, 41.75 -15.82, 40.49 -13.34 C39.22 -10.86, 39.47 -5.58, 38.69 -5.16 C37.91 -4.73, 35.17 -11.68, 35.8 -10.79 C36.44 -9.89, 42.8 -1.3, 42.5 0.23 C42.2 1.76, 35.31 -0.07, 34.01 -1.63 C32.7 -3.18, 36.51 -8.7, 34.68 -9.09 C32.85 -9.48, 24.15 -3.93, 23.04 -3.98 C21.93 -4.03, 28.13 -8.34, 28.02 -9.38 C27.91 -10.43, 22.44 -9.01, 22.38 -10.25 C22.32 -11.5, 27.97 -16.85, 27.66 -16.85 C27.34 -16.85, 21.46 -11.47, 20.46 -10.27 C19.47 -9.06, 22.49 -9.72, 21.69 -9.63 C20.88 -9.54, 17.15 -9.82, 15.64 -9.73 C14.13 -9.64, 13.54 -8.77, 12.63 -9.11 C11.71 -9.44, 10.29 -12.25, 10.14 -11.75 C10 -11.24, 12.21 -6.24, 11.76 -6.08 C11.3 -5.92, 7.67 -11.86, 7.42 -10.79 C7.16 -9.72, 10.4 -0.72, 10.23 0.32 C10.07 1.37, 6.82 -5.02, 6.45 -4.52 C6.07 -4.02, 8.51 2.41, 7.98 3.32 C7.45 4.23, 5.12 2.09, 3.27 0.95 C1.41 -0.18, -2.01 -3.05, -3.13 -3.48" stroke="none" stroke-width="0" fill="#e9ecef" fill-rule="evenodd"></path><path fill="#1e1e1e" d="M -0.74,1.11 Q -0.74,1.11 -2.49,0.56 -4.23,0.01 -5.09,-1.11 -5.95,-2.24 -7.03,-3.31 -8.10,-4.37 -9.18,-5.42 -10.26,-6.46 -10.18,-8.16 -10.11,-9.86 -9.44,-10.72 -8.78,-11.59 -7.77,-12.57 -6.77,-13.55 -5.34,-14.96 -3.91,-16.37 -2.82,-17.45 -1.73,-18.53 -0.76,-19.48 0.20,-20.43 1.42,-21.07 2.64,-21.70 4.45,-22.68 6.26,-23.66 7.78,-24.39 9.31,-25.12 8.32,-26.04 7.33,-26.96 6.40,-28.47 5.47,-29.98 4.76,-30.88 4.04,-31.77 3.26,-32.65 2.48,-33.53 2.04,-35.57 1.60,-37.61 2.16,-38.67 2.72,-39.73 3.86,-40.21 5.01,-40.70 7.15,-41.52 9.29,-42.35 10.42,-42.46 11.56,-42.58 13.04,-42.64 14.52,-42.69 16.10,-42.72 17.67,-42.74 18.82,-42.76 19.96,-42.77 21.41,-42.78 22.86,-42.79 23.95,-42.79 25.04,-42.80 26.47,-42.80 27.89,-42.81 29.45,-42.81 31.02,-42.81 32.23,-42.80 33.44,-42.78 34.94,-42.18 36.45,-41.58 38.44,-41.41 40.43,-41.25 41.87,-40.59 43.31,-39.92 44.86,-39.57 46.41,-39.23 47.46,-38.27 48.51,-37.32 48.87,-36.15 49.23,-34.97 49.35,-32.63 49.47,-30.29 49.46,-29.17 49.45,-28.05 48.84,-26.57 48.23,-25.09 48.09,-22.75 47.94,-20.41 47.36,-18.46 46.78,-16.51 45.87,-14.10 44.96,-11.69 44.79,-10.48 44.62,-9.26 44.36,-8.11 44.10,-6.96 43.33,-6.07 42.56,-5.18 41.53,-3.29 40.49,-1.40 39.15,-1.12 37.80,-0.84 36.32,-1.37 34.83,-1.90 33.35,-2.21 31.88,-2.53 31.01,-3.32 30.14,-4.11 28.96,-4.67 27.78,-5.23 26.42,-6.36 25.06,-7.49 24.17,-8.39 23.28,-9.30 22.46,-10.16 21.64,-11.02 20.84,-10.12 20.04,-9.22 18.72,-8.63 17.39,-8.04 16.59,-7.21 15.79,-6.39 14.97,-5.54 14.15,-4.70 13.32,-3.86 12.49,-3.02 11.45,-1.97 10.41,-0.91 8.97,-0.20 7.54,0.50 6.47,1.47 5.40,2.43 3.10,2.01 0.80,1.60 0.61,1.51 0.42,1.41 0.27,1.27 0.12,1.12 0.02,0.93 -0.07,0.74 -0.10,0.53 -0.13,0.32 -0.10,0.11 -0.06,-0.09 0.03,-0.27 0.13,-0.46 0.29,-0.61 0.45,-0.75 0.64,-0.84 0.83,-0.92 1.05,-0.94 1.26,-0.96 1.46,-0.92 1.67,-0.87 1.85,-0.76 2.03,-0.65 2.17,-0.48 2.30,-0.32 2.38,-0.12 2.46,0.07 2.47,0.28 2.47,0.49 2.42,0.70 2.36,0.90 2.23,1.08 2.11,1.25 1.94,1.38 1.77,1.50 1.57,1.57 1.37,1.63 1.16,1.63 0.94,1.63 0.74,1.56 0.54,1.49 0.37,1.36 0.21,1.23 0.09,1.05 -0.02,0.87 -0.07,0.67 -0.13,0.46 -0.11,0.25 -0.10,0.04 -0.02,-0.15 0.05,-0.34 0.19,-0.50 0.33,-0.66 0.52,-0.77 0.70,-0.88 0.91,-0.92 1.11,-0.97 1.33,-0.94 1.54,-0.92 1.54,-0.92 1.54,-0.92 2.35,-1.79 3.17,-2.66 4.53,-3.80 5.89,-4.94 6.96,-5.39 8.02,-5.83 8.86,-6.66 9.69,-7.49 10.54,-8.32 11.39,-9.14 12.26,-9.97 13.12,-10.80 14.06,-11.66 15.00,-12.53 15.81,-13.32 16.61,-14.10 18.31,-14.72 20.01,-15.34 21.78,-15.37 23.54,-15.41 24.60,-14.41 25.66,-13.41 26.51,-12.60 27.36,-11.80 28.22,-11.05 29.08,-10.30 30.48,-9.63 31.88,-8.97 33.50,-8.22 35.13,-7.47 36.39,-7.14 37.65,-6.81 38.33,-8.37 39.01,-9.94 39.15,-10.99 39.29,-12.05 40.09,-13.84 40.89,-15.63 41.15,-16.93 41.40,-18.23 41.85,-19.50 42.30,-20.77 42.40,-22.42 42.49,-24.07 42.83,-25.84 43.16,-27.61 43.47,-28.89 43.77,-30.17 43.39,-32.20 43.01,-34.22 41.39,-34.94 39.76,-35.66 38.66,-35.75 37.56,-35.83 35.37,-36.52 33.17,-37.21 32.10,-37.19 31.02,-37.18 29.46,-37.18 27.89,-37.18 26.47,-37.19 25.05,-37.19 23.96,-37.19 22.87,-37.19 21.43,-37.20 20.00,-37.20 18.87,-37.20 17.74,-37.19 16.21,-37.18 14.69,-37.18 13.39,-37.15 12.08,-37.12 10.41,-37.03 8.73,-36.94 7.67,-37.02 6.61,-37.09 7.48,-36.13 8.35,-35.18 9.26,-34.01 10.18,-32.85 10.82,-31.78 11.46,-30.70 12.25,-29.84 13.05,-28.98 13.91,-27.19 14.78,-25.41 13.93,-23.99 13.09,-22.58 11.64,-21.46 10.20,-20.35 8.55,-19.50 6.90,-18.66 5.28,-17.72 3.67,-16.78 2.75,-15.85 1.83,-14.93 0.74,-13.84 -0.35,-12.75 -1.81,-11.32 -3.27,-9.88 -4.67,-9.05 -6.07,-8.22 -5.16,-7.30 -4.26,-6.37 -2.88,-5.11 -1.51,-3.85 -0.38,-2.48 0.74,-1.11 0.86,-1.00 0.98,-0.90 1.07,-0.77 1.17,-0.63 1.23,-0.49 1.29,-0.34 1.31,-0.18 1.33,-0.02 1.31,0.13 1.30,0.29 1.24,0.45 1.19,0.60 1.10,0.73 1.01,0.86 0.89,0.97 0.77,1.08 0.63,1.16 0.49,1.24 0.33,1.28 0.18,1.32 0.02,1.32 -0.13,1.32 -0.29,1.29 -0.45,1.25 -0.59,1.18 -0.74,1.11 -0.74,1.11 L -0.74,1.11 Z"></path></g><g transform="translate(428.33333333333303 372.4999999999998) rotate(0 19.166666666666742 -19.166666666666686)" stroke="none"><path d="M3.53 -2.23 C2.68 -2.46, -2.54 -3.59, -4.19 -3.84 C-5.83 -4.08, -5.61 -3.32, -6.31 -3.7 C-7.02 -4.09, -8.59 -5.49, -8.43 -6.15 C-8.26 -6.82, -5.86 -8.13, -5.32 -7.69 C-4.78 -7.25, -4.29 -3.81, -5.18 -3.51 C-6.07 -3.21, -9.82 -5.51, -10.65 -5.89 C-11.48 -6.27, -12.39 -4, -10.15 -5.8 C-7.91 -7.6, -0.42 -13.46, 2.8 -16.69 C6.01 -19.92, 8.86 -22.28, 9.12 -25.2 C9.37 -28.12, 5.6 -31.98, 4.33 -34.18 C3.06 -36.39, 1.29 -37.37, 1.49 -38.42 C1.69 -39.46, 4.26 -39.89, 5.52 -40.47 C6.78 -41.05, 8.3 -42.54, 9.06 -41.9 C9.82 -41.26, 6.47 -37.23, 10.09 -36.63 C13.7 -36.04, 25.62 -37.54, 30.72 -38.32 C35.82 -39.1, 38.53 -41.5, 40.67 -41.31 C42.81 -41.11, 43.82 -38.33, 43.56 -37.16 C43.3 -35.98, 38.91 -34.58, 39.12 -34.28 C39.33 -33.98, 43.86 -36.44, 44.84 -35.36 C45.81 -34.29, 45.21 -29.08, 44.96 -27.85 C44.71 -26.62, 43.07 -28.86, 43.33 -27.97 C43.59 -27.09, 47.47 -25.67, 46.51 -22.53 C45.55 -19.4, 37.76 -12.2, 37.55 -9.16 C37.33 -6.13, 44.26 -5.25, 45.23 -4.33 C46.2 -3.41, 44.65 -3.21, 43.37 -3.65 C42.1 -4.09, 38.8 -7.24, 37.58 -6.96 C36.35 -6.68, 36.63 -1.87, 36.02 -1.98 C35.42 -2.09, 35.27 -7.28, 33.95 -7.62 C32.63 -7.96, 30.16 -3.41, 28.08 -4.01 C26 -4.61, 21.76 -10.21, 21.48 -11.2 C21.2 -12.2, 25.75 -9.45, 26.4 -9.98 C27.05 -10.51, 26.11 -13.13, 25.37 -14.36 C24.63 -15.6, 22.68 -17.29, 21.94 -17.37 C21.19 -17.46, 22.34 -15.54, 20.89 -14.86 C19.45 -14.17, 13.86 -13.34, 13.25 -13.24 C12.65 -13.14, 17.92 -15.11, 17.25 -14.25 C16.58 -13.39, 9.26 -9.6, 9.21 -8.1 C9.17 -6.59, 17.06 -5.96, 16.99 -5.22 C16.92 -4.49, 9.42 -4.26, 8.81 -3.68 C8.2 -3.1, 14.07 -1.55, 13.32 -1.73 C12.56 -1.92, 6.25 -4.51, 4.29 -4.8 C2.32 -5.08, 2.22 -4.54, 1.52 -3.46 C0.82 -2.38, 0.81 0.49, 0.07 1.67 C-0.67 2.85, -3.06 3.61, -2.92 3.6" stroke="none" stroke-width="0" fill="#e9ecef" fill-rule="evenodd"></path><path fill="#1e1e1e" d="M -0.74,1.11 Q -0.74,1.11 -2.49,0.56 -4.23,0.01 -5.09,-1.11 -5.95,-2.24 -7.03,-3.31 -8.10,-4.37 -9.18,-5.42 -10.26,-6.46 -10.18,-8.16 -10.11,-9.86 -9.44,-10.72 -8.78,-11.59 -7.77,-12.57 -6.77,-13.55 -5.34,-14.96 -3.91,-16.37 -2.82,-17.45 -1.73,-18.53 -0.76,-19.48 0.20,-20.43 1.42,-21.07 2.64,-21.70 4.45,-22.68 6.26,-23.66 7.78,-24.39 9.31,-25.12 8.32,-26.04 7.33,-26.96 6.40,-28.47 5.47,-29.98 4.76,-30.88 4.04,-31.77 3.26,-32.65 2.48,-33.53 2.04,-35.57 1.60,-37.61 2.16,-38.67 2.72,-39.73 3.86,-40.21 5.01,-40.70 7.15,-41.52 9.29,-42.35 10.42,-42.46 11.56,-42.58 13.04,-42.64 14.52,-42.69 16.10,-42.72 17.67,-42.74 18.82,-42.76 19.96,-42.77 21.41,-42.78 22.86,-42.79 23.95,-42.79 25.04,-42.80 26.47,-42.80 27.89,-42.81 29.45,-42.81 31.02,-42.81 32.23,-42.80 33.44,-42.78 34.94,-42.18 36.45,-41.58 38.44,-41.41 40.43,-41.25 41.87,-40.59 43.31,-39.92 44.86,-39.57 46.41,-39.23 47.46,-38.27 48.51,-37.32 48.87,-36.15 49.23,-34.97 49.35,-32.63 49.47,-30.29 49.46,-29.17 49.45,-28.05 48.84,-26.57 48.23,-25.09 48.09,-22.75 47.94,-20.41 47.36,-18.46 46.78,-16.51 45.87,-14.10 44.96,-11.69 44.79,-10.48 44.62,-9.26 44.36,-8.11 44.10,-6.96 43.33,-6.07 42.56,-5.18 41.53,-3.29 40.49,-1.40 39.15,-1.12 37.80,-0.84 36.32,-1.37 34.83,-1.90 33.35,-2.21 31.88,-2.53 31.01,-3.32 30.14,-4.11 28.96,-4.67 27.78,-5.23 26.42,-6.36 25.06,-7.49 24.17,-8.39 23.28,-9.30 22.46,-10.16 21.64,-11.02 20.84,-10.12 20.04,-9.22 18.72,-8.63 17.39,-8.04 16.59,-7.21 15.79,-6.39 14.97,-5.54 14.15,-4.70 13.32,-3.86 12.49,-3.02 11.45,-1.97 10.41,-0.91 8.97,-0.20 7.54,0.50 6.47,1.47 5.40,2.43 3.10,2.01 0.80,1.60 0.61,1.51 0.42,1.41 0.27,1.27 0.12,1.12 0.02,0.93 -0.07,0.74 -0.10,0.53 -0.13,0.32 -0.10,0.11 -0.06,-0.09 0.03,-0.27 0.13,-0.46 0.29,-0.61 0.45,-0.75 0.64,-0.84 0.83,-0.92 1.05,-0.94 1.26,-0.96 1.46,-0.92 1.67,-0.87 1.85,-0.76 2.03,-0.65 2.17,-0.48 2.30,-0.32 2.38,-0.12 2.46,0.07 2.47,0.28 2.47,0.49 2.42,0.70 2.36,0.90 2.23,1.08 2.11,1.25 1.94,1.38 1.77,1.50 1.57,1.57 1.37,1.63 1.16,1.63 0.94,1.63 0.74,1.56 0.54,1.49 0.37,1.36 0.21,1.23 0.09,1.05 -0.02,0.87 -0.07,0.67 -0.13,0.46 -0.11,0.25 -0.10,0.04 -0.02,-0.15 0.05,-0.34 0.19,-0.50 0.33,-0.66 0.52,-0.77 0.70,-0.88 0.91,-0.92 1.11,-0.97 1.33,-0.94 1.54,-0.92 1.54,-0.92 1.54,-0.92 2.35,-1.79 3.17,-2.66 4.53,-3.80 5.89,-4.94 6.96,-5.39 8.02,-5.83 8.86,-6.66 9.69,-7.49 10.54,-8.32 11.39,-9.14 12.26,-9.97 13.12,-10.80 14.06,-11.66 15.00,-12.53 15.81,-13.32 16.61,-14.10 18.31,-14.72 20.01,-15.34 21.78,-15.37 23.54,-15.41 24.60,-14.41 25.66,-13.41 26.51,-12.60 27.36,-11.80 28.22,-11.05 29.08,-10.30 30.48,-9.63 31.88,-8.97 33.50,-8.22 35.13,-7.47 36.39,-7.14 37.65,-6.81 38.33,-8.37 39.01,-9.94 39.15,-10.99 39.29,-12.05 40.09,-13.84 40.89,-15.63 41.15,-16.93 41.40,-18.23 41.85,-19.50 42.30,-20.77 42.40,-22.42 42.49,-24.07 42.83,-25.84 43.16,-27.61 43.47,-28.89 43.77,-30.17 43.39,-32.20 43.01,-34.22 41.39,-34.94 39.76,-35.66 38.66,-35.75 37.56,-35.83 35.37,-36.52 33.17,-37.21 32.10,-37.19 31.02,-37.18 29.46,-37.18 27.89,-37.18 26.47,-37.19 25.05,-37.19 23.96,-37.19 22.87,-37.19 21.43,-37.20 20.00,-37.20 18.87,-37.20 17.74,-37.19 16.21,-37.18 14.69,-37.18 13.39,-37.15 12.08,-37.12 10.41,-37.03 8.73,-36.94 7.67,-37.02 6.61,-37.09 7.48,-36.13 8.35,-35.18 9.26,-34.01 10.18,-32.85 10.82,-31.78 11.46,-30.70 12.25,-29.84 13.05,-28.98 13.91,-27.19 14.78,-25.41 13.93,-23.99 13.09,-22.58 11.64,-21.46 10.20,-20.35 8.55,-19.50 6.90,-18.66 5.28,-17.72 3.67,-16.78 2.75,-15.85 1.83,-14.93 0.74,-13.84 -0.35,-12.75 -1.81,-11.32 -3.27,-9.88 -4.67,-9.05 -6.07,-8.22 -5.16,-7.30 -4.26,-6.37 -2.88,-5.11 -1.51,-3.85 -0.38,-2.48 0.74,-1.11 0.86,-1.00 0.98,-0.90 1.07,-0.77 1.17,-0.63 1.23,-0.49 1.29,-0.34 1.31,-0.18 1.33,-0.02 1.31,0.13 1.30,0.29 1.24,0.45 1.19,0.60 1.10,0.73 1.01,0.86 0.89,0.97 0.77,1.08 0.63,1.16 0.49,1.24 0.33,1.28 0.18,1.32 0.02,1.32 -0.13,1.32 -0.29,1.29 -0.45,1.25 -0.59,1.18 -0.74,1.11 -0.74,1.11 L -0.74,1.11 Z"></path></g><g transform="translate(318.33333333333303 50) rotate(0 19.166666666666742 -19.166666666666686)" stroke="none"><path d="M1.3 -1.76 C0.36 -1.87, -4.93 -1.97, -6.15 -1.99 C-7.37 -2, -6.46 -0.96, -6.02 -1.84 C-5.58 -2.73, -4.08 -5.93, -3.51 -7.32 C-2.93 -8.7, -2.45 -10.17, -2.56 -10.15 C-2.66 -10.13, -3.72 -6.53, -4.14 -7.2 C-4.55 -7.88, -4.57 -13.08, -5.02 -14.22 C-5.48 -15.35, -7.56 -12.73, -6.87 -14 C-6.17 -15.28, -3.93 -20.38, -0.85 -21.85 C2.22 -23.31, 10.41 -21.85, 11.58 -22.81 C12.76 -23.77, 8.17 -25.59, 6.2 -27.61 C4.23 -29.63, -0.32 -32.41, -0.23 -34.91 C-0.15 -37.41, 5.27 -42.71, 6.7 -42.61 C8.13 -42.52, 8.57 -35.08, 8.35 -34.33 C8.12 -33.58, 0.72 -36.46, 5.36 -38.11 C10 -39.75, 30.56 -43.87, 36.18 -44.22 C41.79 -44.56, 37.92 -40.86, 39.05 -40.16 C40.18 -39.47, 42.45 -40.35, 42.97 -40.04 C43.49 -39.74, 42.03 -39.15, 42.15 -38.34 C42.27 -37.52, 43.64 -36.41, 43.69 -35.16 C43.75 -33.9, 41.83 -33.07, 42.47 -30.79 C43.1 -28.5, 46.69 -24.08, 47.5 -21.44 C48.31 -18.8, 47.81 -16.18, 47.34 -14.96 C46.87 -13.73, 46.23 -16.2, 44.68 -14.09 C43.13 -11.98, 38.31 -3.93, 38.04 -2.31 C37.76 -0.69, 42.85 -4.45, 43.02 -4.38 C43.19 -4.32, 40.22 -1.23, 39.05 -1.92 C37.88 -2.61, 37.14 -8.24, 35.99 -8.52 C34.84 -8.8, 33.4 -3.97, 32.13 -3.6 C30.86 -3.23, 29.71 -5.27, 28.35 -6.3 C26.99 -7.32, 25.48 -8.98, 23.97 -9.73 C22.46 -10.48, 19.93 -9.6, 19.29 -10.77 C18.65 -11.94, 20.29 -16.42, 20.14 -16.75 C20 -17.08, 19.16 -12.91, 18.42 -12.75 C17.69 -12.59, 16.01 -16.58, 15.75 -15.79 C15.5 -15, 16.51 -8.5, 16.9 -8.01 C17.29 -7.52, 18.21 -13.35, 18.11 -12.85 C18.01 -12.36, 16.85 -5.93, 16.32 -5.02 C15.79 -4.1, 16.23 -6.53, 14.93 -7.38 C13.63 -8.24, 9.93 -10.55, 8.54 -10.15 C7.14 -9.74, 7.13 -5.86, 6.54 -4.93 C5.95 -4, 4.66 -5.56, 5 -4.59 C5.35 -3.61, 8.89 0.47, 8.6 0.9 C8.32 1.34, 4.67 -2.11, 3.29 -1.98 C1.91 -1.85, 0.63 0.91, 0.32 1.66" stroke="none" stroke-width="0" fill="#e9ecef" fill-rule="evenodd"></path><path fill="#1e1e1e" d="M -0.74,1.11 Q -0.74,1.11 -2.49,0.56 -4.23,0.01 -5.09,-1.11 -5.95,-2.24 -7.03,-3.31 -8.10,-4.37 -9.18,-5.42 -10.26,-6.46 -10.18,-8.16 -10.11,-9.86 -9.44,-10.72 -8.78,-11.59 -7.77,-12.57 -6.77,-13.55 -5.34,-14.96 -3.91,-16.37 -2.82,-17.45 -1.73,-18.53 -0.76,-19.48 0.20,-20.43 1.42,-21.07 2.64,-21.70 4.45,-22.68 6.26,-23.66 7.78,-24.39 9.31,-25.12 8.32,-26.04 7.33,-26.96 6.40,-28.47 5.47,-29.98 4.76,-30.88 4.04,-31.77 3.26,-32.65 2.48,-33.53 2.04,-35.57 1.60,-37.61 2.16,-38.67 2.72,-39.73 3.86,-40.21 5.01,-40.70 7.15,-41.52 9.29,-42.35 10.42,-42.46 11.56,-42.58 13.04,-42.64 14.52,-42.69 16.10,-42.72 17.67,-42.74 18.82,-42.76 19.96,-42.77 21.41,-42.78 22.86,-42.79 23.95,-42.79 25.04,-42.80 26.47,-42.80 27.89,-42.81 29.45,-42.81 31.02,-42.81 32.23,-42.80 33.44,-42.78 34.94,-42.18 36.45,-41.58 38.44,-41.41 40.43,-41.25 41.87,-40.59 43.31,-39.92 44.86,-39.57 46.41,-39.23 47.46,-38.27 48.51,-37.32 48.87,-36.15 49.23,-34.97 49.35,-32.63 49.47,-30.29 49.46,-29.17 49.45,-28.05 48.84,-26.57 48.23,-25.09 48.09,-22.75 47.94,-20.41 47.36,-18.46 46.78,-16.51 45.87,-14.10 44.96,-11.69 44.79,-10.48 44.62,-9.26 44.36,-8.11 44.10,-6.96 43.33,-6.07 42.56,-5.18 41.53,-3.29 40.49,-1.40 39.15,-1.12 37.80,-0.84 36.32,-1.37 34.83,-1.90 33.35,-2.21 31.88,-2.53 31.01,-3.32 30.14,-4.11 28.96,-4.67 27.78,-5.23 26.42,-6.36 25.06,-7.49 24.17,-8.39 23.28,-9.30 22.46,-10.16 21.64,-11.02 20.84,-10.12 20.04,-9.22 18.72,-8.63 17.39,-8.04 16.59,-7.21 15.79,-6.39 14.97,-5.54 14.15,-4.70 13.32,-3.86 12.49,-3.02 11.45,-1.97 10.41,-0.91 8.97,-0.20 7.54,0.50 6.47,1.47 5.40,2.43 3.10,2.01 0.80,1.60 0.61,1.51 0.42,1.41 0.27,1.27 0.12,1.12 0.02,0.93 -0.07,0.74 -0.10,0.53 -0.13,0.32 -0.10,0.11 -0.06,-0.09 0.03,-0.27 0.13,-0.46 0.29,-0.61 0.45,-0.75 0.64,-0.84 0.83,-0.92 1.05,-0.94 1.26,-0.96 1.46,-0.92 1.67,-0.87 1.85,-0.76 2.03,-0.65 2.17,-0.48 2.30,-0.32 2.38,-0.12 2.46,0.07 2.47,0.28 2.47,0.49 2.42,0.70 2.36,0.90 2.23,1.08 2.11,1.25 1.94,1.38 1.77,1.50 1.57,1.57 1.37,1.63 1.16,1.63 0.94,1.63 0.74,1.56 0.54,1.49 0.37,1.36 0.21,1.23 0.09,1.05 -0.02,0.87 -0.07,0.67 -0.13,0.46 -0.11,0.25 -0.10,0.04 -0.02,-0.15 0.05,-0.34 0.19,-0.50 0.33,-0.66 0.52,-0.77 0.70,-0.88 0.91,-0.92 1.11,-0.97 1.33,-0.94 1.54,-0.92 1.54,-0.92 1.54,-0.92 2.35,-1.79 3.17,-2.66 4.53,-3.80 5.89,-4.94 6.96,-5.39 8.02,-5.83 8.86,-6.66 9.69,-7.49 10.54,-8.32 11.39,-9.14 12.26,-9.97 13.12,-10.80 14.06,-11.66 15.00,-12.53 15.81,-13.32 16.61,-14.10 18.31,-14.72 20.01,-15.34 21.78,-15.37 23.54,-15.41 24.60,-14.41 25.66,-13.41 26.51,-12.60 27.36,-11.80 28.22,-11.05 29.08,-10.30 30.48,-9.63 31.88,-8.97 33.50,-8.22 35.13,-7.47 36.39,-7.14 37.65,-6.81 38.33,-8.37 39.01,-9.94 39.15,-10.99 39.29,-12.05 40.09,-13.84 40.89,-15.63 41.15,-16.93 41.40,-18.23 41.85,-19.50 42.30,-20.77 42.40,-22.42 42.49,-24.07 42.83,-25.84 43.16,-27.61 43.47,-28.89 43.77,-30.17 43.39,-32.20 43.01,-34.22 41.39,-34.94 39.76,-35.66 38.66,-35.75 37.56,-35.83 35.37,-36.52 33.17,-37.21 32.10,-37.19 31.02,-37.18 29.46,-37.18 27.89,-37.18 26.47,-37.19 25.05,-37.19 23.96,-37.19 22.87,-37.19 21.43,-37.20 20.00,-37.20 18.87,-37.20 17.74,-37.19 16.21,-37.18 14.69,-37.18 13.39,-37.15 12.08,-37.12 10.41,-37.03 8.73,-36.94 7.67,-37.02 6.61,-37.09 7.48,-36.13 8.35,-35.18 9.26,-34.01 10.18,-32.85 10.82,-31.78 11.46,-30.70 12.25,-29.84 13.05,-28.98 13.91,-27.19 14.78,-25.41 13.93,-23.99 13.09,-22.58 11.64,-21.46 10.20,-20.35 8.55,-19.50 6.90,-18.66 5.28,-17.72 3.67,-16.78 2.75,-15.85 1.83,-14.93 0.74,-13.84 -0.35,-12.75 -1.81,-11.32 -3.27,-9.88 -4.67,-9.05 -6.07,-8.22 -5.16,-7.30 -4.26,-6.37 -2.88,-5.11 -1.51,-3.85 -0.38,-2.48 0.74,-1.11 0.86,-1.00 0.98,-0.90 1.07,-0.77 1.17,-0.63 1.23,-0.49 1.29,-0.34 1.31,-0.18 1.33,-0.02 1.31,0.13 1.30,0.29 1.24,0.45 1.19,0.60 1.10,0.73 1.01,0.86 0.89,0.97 0.77,1.08 0.63,1.16 0.49,1.24 0.33,1.28 0.18,1.32 0.02,1.32 -0.13,1.32 -0.29,1.29 -0.45,1.25 -0.59,1.18 -0.74,1.11 -0.74,1.11 L -0.74,1.11 Z"></path></g><g transform="translate(318.33333333333303 459.9999999999998) rotate(0 19.166666666666742 -19.166666666666686)" stroke="none"><path d="M3.16 3.16 C1.71 3.46, -5.38 1.44, -7.32 0.78 C-9.26 0.12, -8.5 -0.39, -8.48 -0.8 C-8.47 -1.21, -6.8 -0.68, -7.2 -1.69 C-7.6 -2.7, -10.03 -5.34, -10.88 -6.87 C-11.74 -8.39, -12.46 -10.04, -12.34 -10.85 C-12.22 -11.66, -11.49 -11.53, -10.18 -11.75 C-8.87 -11.96, -7.13 -10.17, -4.48 -12.14 C-1.83 -14.11, 2.46 -21.98, 5.72 -23.57 C8.98 -25.15, 15.36 -20.84, 15.09 -21.63 C14.81 -22.43, 5.35 -25.32, 4.05 -28.32 C2.76 -31.32, 7.14 -38.17, 7.33 -39.64 C7.53 -41.11, 6.04 -37.77, 5.23 -37.16 C4.41 -36.54, 2.24 -35.69, 2.45 -35.95 C2.66 -36.2, 1.36 -37.83, 6.5 -38.7 C11.64 -39.57, 28.54 -40.75, 33.29 -41.18 C38.04 -41.62, 33.35 -41.08, 34.99 -41.31 C36.64 -41.53, 42.47 -43.72, 43.18 -42.53 C43.88 -41.34, 38.04 -35.53, 39.21 -34.16 C40.39 -32.8, 48.42 -36.08, 50.23 -34.33 C52.03 -32.58, 51.32 -24.6, 50.04 -23.65 C48.77 -22.7, 42.69 -30.02, 42.58 -28.63 C42.46 -27.24, 49.13 -17.98, 49.36 -15.31 C49.59 -12.64, 45 -14.78, 43.95 -12.62 C42.9 -10.46, 44.32 -3.41, 43.08 -2.34 C41.83 -1.28, 36.48 -6.32, 36.48 -6.2 C36.48 -6.09, 43.53 -1.68, 43.07 -1.65 C42.6 -1.62, 35.28 -4.52, 33.7 -6.03 C32.13 -7.54, 34.63 -9.79, 33.6 -10.71 C32.58 -11.62, 29.56 -11.1, 27.56 -11.52 C25.56 -11.94, 22.19 -12.51, 21.59 -13.24 C20.98 -13.97, 24.31 -15.94, 23.92 -15.92 C23.52 -15.89, 19.26 -13.77, 19.21 -13.1 C19.17 -12.43, 24 -12.62, 23.66 -11.89 C23.31 -11.15, 17.76 -8.99, 17.15 -8.68 C16.53 -8.38, 20.18 -9.33, 19.98 -10.07 C19.79 -10.81, 17.64 -12.84, 15.95 -13.13 C14.26 -13.42, 10.56 -12.87, 9.85 -11.79 C9.15 -10.71, 11.92 -8.12, 11.74 -6.66 C11.55 -5.21, 8.88 -3.89, 8.75 -3.06 C8.61 -2.24, 12.14 -2, 10.9 -1.71 C9.67 -1.43, 2.06 -1.87, 1.35 -1.35 C0.65 -0.83, 6.19 1.13, 6.66 1.41 C7.14 1.7, 5.81 1.19, 4.22 0.35 C2.63 -0.48, -2.41 -3.07, -2.87 -3.6" stroke="none" stroke-width="0" fill="#e9ecef" fill-rule="evenodd"></path><path fill="#1e1e1e" d="M -0.74,1.11 Q -0.74,1.11 -2.49,0.56 -4.23,0.01 -5.09,-1.11 -5.95,-2.24 -7.03,-3.31 -8.10,-4.37 -9.18,-5.42 -10.26,-6.46 -10.18,-8.16 -10.11,-9.86 -9.44,-10.72 -8.78,-11.59 -7.77,-12.57 -6.77,-13.55 -5.34,-14.96 -3.91,-16.37 -2.82,-17.45 -1.73,-18.53 -0.76,-19.48 0.20,-20.43 1.42,-21.07 2.64,-21.70 4.45,-22.68 6.26,-23.66 7.78,-24.39 9.31,-25.12 8.32,-26.04 7.33,-26.96 6.40,-28.47 5.47,-29.98 4.76,-30.88 4.04,-31.77 3.26,-32.65 2.48,-33.53 2.04,-35.57 1.60,-37.61 2.16,-38.67 2.72,-39.73 3.86,-40.21 5.01,-40.70 7.15,-41.52 9.29,-42.35 10.42,-42.46 11.56,-42.58 13.04,-42.64 14.52,-42.69 16.10,-42.72 17.67,-42.74 18.82,-42.76 19.96,-42.77 21.41,-42.78 22.86,-42.79 23.95,-42.79 25.04,-42.80 26.47,-42.80 27.89,-42.81 29.45,-42.81 31.02,-42.81 32.23,-42.80 33.44,-42.78 34.94,-42.18 36.45,-41.58 38.44,-41.41 40.43,-41.25 41.87,-40.59 43.31,-39.92 44.86,-39.57 46.41,-39.23 47.46,-38.27 48.51,-37.32 48.87,-36.15 49.23,-34.97 49.35,-32.63 49.47,-30.29 49.46,-29.17 49.45,-28.05 48.84,-26.57 48.23,-25.09 48.09,-22.75 47.94,-20.41 47.36,-18.46 46.78,-16.51 45.87,-14.10 44.96,-11.69 44.79,-10.48 44.62,-9.26 44.36,-8.11 44.10,-6.96 43.33,-6.07 42.56,-5.18 41.53,-3.29 40.49,-1.40 39.15,-1.12 37.80,-0.84 36.32,-1.37 34.83,-1.90 33.35,-2.21 31.88,-2.53 31.01,-3.32 30.14,-4.11 28.96,-4.67 27.78,-5.23 26.42,-6.36 25.06,-7.49 24.17,-8.39 23.28,-9.30 22.46,-10.16 21.64,-11.02 20.84,-10.12 20.04,-9.22 18.72,-8.63 17.39,-8.04 16.59,-7.21 15.79,-6.39 14.97,-5.54 14.15,-4.70 13.32,-3.86 12.49,-3.02 11.45,-1.97 10.41,-0.91 8.97,-0.20 7.54,0.50 6.47,1.47 5.40,2.43 3.10,2.01 0.80,1.60 0.61,1.51 0.42,1.41 0.27,1.27 0.12,1.12 0.02,0.93 -0.07,0.74 -0.10,0.53 -0.13,0.32 -0.10,0.11 -0.06,-0.09 0.03,-0.27 0.13,-0.46 0.29,-0.61 0.45,-0.75 0.64,-0.84 0.83,-0.92 1.05,-0.94 1.26,-0.96 1.46,-0.92 1.67,-0.87 1.85,-0.76 2.03,-0.65 2.17,-0.48 2.30,-0.32 2.38,-0.12 2.46,0.07 2.47,0.28 2.47,0.49 2.42,0.70 2.36,0.90 2.23,1.08 2.11,1.25 1.94,1.38 1.77,1.50 1.57,1.57 1.37,1.63 1.16,1.63 0.94,1.63 0.74,1.56 0.54,1.49 0.37,1.36 0.21,1.23 0.09,1.05 -0.02,0.87 -0.07,0.67 -0.13,0.46 -0.11,0.25 -0.10,0.04 -0.02,-0.15 0.05,-0.34 0.19,-0.50 0.33,-0.66 0.52,-0.77 0.70,-0.88 0.91,-0.92 1.11,-0.97 1.33,-0.94 1.54,-0.92 1.54,-0.92 1.54,-0.92 2.35,-1.79 3.17,-2.66 4.53,-3.80 5.89,-4.94 6.96,-5.39 8.02,-5.83 8.86,-6.66 9.69,-7.49 10.54,-8.32 11.39,-9.14 12.26,-9.97 13.12,-10.80 14.06,-11.66 15.00,-12.53 15.81,-13.32 16.61,-14.10 18.31,-14.72 20.01,-15.34 21.78,-15.37 23.54,-15.41 24.60,-14.41 25.66,-13.41 26.51,-12.60 27.36,-11.80 28.22,-11.05 29.08,-10.30 30.48,-9.63 31.88,-8.97 33.50,-8.22 35.13,-7.47 36.39,-7.14 37.65,-6.81 38.33,-8.37 39.01,-9.94 39.15,-10.99 39.29,-12.05 40.09,-13.84 40.89,-15.63 41.15,-16.93 41.40,-18.23 41.85,-19.50 42.30,-20.77 42.40,-22.42 42.49,-24.07 42.83,-25.84 43.16,-27.61 43.47,-28.89 43.77,-30.17 43.39,-32.20 43.01,-34.22 41.39,-34.94 39.76,-35.66 38.66,-35.75 37.56,-35.83 35.37,-36.52 33.17,-37.21 32.10,-37.19 31.02,-37.18 29.46,-37.18 27.89,-37.18 26.47,-37.19 25.05,-37.19 23.96,-37.19 22.87,-37.19 21.43,-37.20 20.00,-37.20 18.87,-37.20 17.74,-37.19 16.21,-37.18 14.69,-37.18 13.39,-37.15 12.08,-37.12 10.41,-37.03 8.73,-36.94 7.67,-37.02 6.61,-37.09 7.48,-36.13 8.35,-35.18 9.26,-34.01 10.18,-32.85 10.82,-31.78 11.46,-30.70 12.25,-29.84 13.05,-28.98 13.91,-27.19 14.78,-25.41 13.93,-23.99 13.09,-22.58 11.64,-21.46 10.20,-20.35 8.55,-19.50 6.90,-18.66 5.28,-17.72 3.67,-16.78 2.75,-15.85 1.83,-14.93 0.74,-13.84 -0.35,-12.75 -1.81,-11.32 -3.27,-9.88 -4.67,-9.05 -6.07,-8.22 -5.16,-7.30 -4.26,-6.37 -2.88,-5.11 -1.51,-3.85 -0.38,-2.48 0.74,-1.11 0.86,-1.00 0.98,-0.90 1.07,-0.77 1.17,-0.63 1.23,-0.49 1.29,-0.34 1.31,-0.18 1.33,-0.02 1.31,0.13 1.30,0.29 1.24,0.45 1.19,0.60 1.10,0.73 1.01,0.86 0.89,0.97 0.77,1.08 0.63,1.16 0.49,1.24 0.33,1.28 0.18,1.32 0.02,1.32 -0.13,1.32 -0.29,1.29 -0.45,1.25 -0.59,1.18 -0.74,1.11 -0.74,1.11 L -0.74,1.11 Z"></path></g></svg>