<svg version="1.1" xmlns="http://www.w3.org/2000/svg" viewBox="0 0 808.333333333333 280.83333333333303" width="808.333333333333" height="280.83333333333303">
  <!-- svg-source:excalidraw -->
  
  <defs>
    <style class="style-fonts">
      @font-face {
        font-family: "Virgil";
        src: url("https://excalidraw.com/Virgil.woff2");
      }
      @font-face {
        font-family: "Cascadia";
        src: url("https://excalidraw.com/Cascadia.woff2");
      }
      @font-face {
        font-family: "Assistant";
        src: url("https://excalidraw.com/Assistant-Regular.woff2");
      }
    </style>
    
  </defs>
  <g stroke-linecap="round" transform="translate(10 155.83333333333303) rotate(0 60.346534653465255 57.49999999999994)"><path d="M16.54 17.02 C16.54 17.02, 16.54 17.02, 16.54 17.02 M16.54 17.02 C16.54 17.02, 16.54 17.02, 16.54 17.02 M1.71 58.46 C12.29 43.48, 22.75 30.56, 50.92 1.86 M1.71 58.46 C17.03 40.02, 34.38 20.37, 50.92 1.86 M5.91 78.02 C28.34 51.67, 52.66 20.01, 72.18 1.79 M5.91 78.02 C26.32 54.31, 45.22 32.49, 72.18 1.79 M13.4 93.8 C37.33 63.9, 64.45 36.07, 88.19 7.76 M13.4 93.8 C31.26 74.28, 49.03 53.96, 88.19 7.76 M26.13 103.54 C49.4 78.15, 67.96 56.54, 101.58 16.75 M26.13 103.54 C48.49 78.67, 70.5 53.18, 101.58 16.75 M40.17 111.77 C57.18 91.59, 77.86 71.42, 111.68 29.51 M40.17 111.77 C57.17 90.25, 76.65 69.94, 111.68 29.51 M59.46 113.97 C81.86 87.87, 105.9 59.36, 117.85 46.8 M59.46 113.97 C78.07 93.61, 96.92 71.01, 117.85 46.8 M86.63 107.11 C95.42 96.95, 102.94 85.44, 119.43 69.37 M86.63 107.11 C95.82 96.41, 105.5 86.02, 119.43 69.37" stroke="#e9ecef" stroke-width="2" fill="none"></path><path d="M40.48 2.85 C48.8 -0.85, 60.85 -0.92, 70.26 0.51 C79.67 1.93, 89.56 5.98, 96.93 11.42 C104.31 16.86, 110.48 25.08, 114.51 33.15 C118.54 41.22, 121.34 50.94, 121.12 59.85 C120.91 68.76, 118.05 79.06, 113.24 86.6 C108.43 94.14, 100.24 100.49, 92.27 105.07 C84.3 109.65, 74.64 113.11, 65.41 114.09 C56.19 115.07, 45.51 114.12, 36.93 110.94 C28.35 107.76, 19.89 101.86, 13.96 95.01 C8.02 88.15, 3.38 78.76, 1.3 69.82 C-0.77 60.88, -1.02 50.17, 1.52 41.37 C4.05 32.58, 9.15 23.6, 16.51 17.05 C23.87 10.5, 40.09 4.53, 45.69 2.07 C51.28 -0.38, 49.67 1.45, 50.09 2.35 M61.94 -0.62 C70.71 -1.37, 79.69 2.78, 87.78 6.97 C95.86 11.17, 104.96 17.24, 110.45 24.55 C115.95 31.86, 119.55 42.05, 120.76 50.82 C121.98 59.59, 121.12 68.98, 117.74 77.18 C114.37 85.38, 107.48 93.95, 100.51 100.02 C93.54 106.08, 84.99 111.4, 75.91 113.56 C66.82 115.72, 55.22 114.99, 45.97 112.96 C36.72 110.94, 27.5 107.4, 20.41 101.41 C13.32 95.43, 6.8 85.5, 3.42 77.04 C0.05 68.59, -0.97 59.26, 0.18 50.68 C1.32 42.11, 4.91 33.13, 10.29 25.58 C15.67 18.03, 24.29 9.52, 32.47 5.38 C40.66 1.23, 54.54 1.26, 59.41 0.72 C64.27 0.18, 61.73 1.42, 61.68 2.16" stroke="#1e1e1e" stroke-width="4" fill="none"></path></g><g transform="translate(17.970297029702806 187.71452145214482) rotate(0 7.4009900990099595 29.034653465346537)" stroke="none"><path fill="#1e1e1e" d="M 0.67,-1.13 Q 0.67,-1.13 2.49,-0.45 4.31,0.22 5.41,1.01 6.52,1.80 7.52,2.38 8.53,2.96 10.03,3.70 11.53,4.43 13.34,5.12 15.14,5.80 15.87,7.44 16.60,9.08 16.22,10.85 15.84,12.63 15.43,13.73 15.01,14.83 14.04,16.22 13.07,17.61 12.43,18.69 11.78,19.78 11.18,20.89 10.58,21.99 10.04,23.36 9.49,24.73 8.81,26.66 8.12,28.59 8.39,30.02 8.65,31.44 8.69,32.87 8.73,34.31 8.98,35.58 9.22,36.86 9.50,38.38 9.77,39.90 10.26,41.43 10.75,42.96 10.86,44.33 10.97,45.71 10.98,46.90 10.99,48.09 10.95,49.30 10.91,50.51 10.42,51.80 9.92,53.09 9.21,54.35 8.50,55.60 6.86,57.40 5.22,59.19 5.02,59.27 4.82,59.35 4.61,59.36 4.40,59.37 4.20,59.31 3.99,59.25 3.82,59.13 3.64,59.01 3.51,58.84 3.39,58.67 3.32,58.47 3.25,58.27 3.25,58.06 3.25,57.84 3.32,57.64 3.39,57.44 3.52,57.27 3.65,57.11 3.83,56.99 4.00,56.87 4.21,56.81 4.41,56.76 4.63,56.77 4.84,56.78 5.04,56.86 5.23,56.94 5.39,57.08 5.56,57.22 5.66,57.40 5.77,57.59 5.82,57.79 5.86,58.00 5.84,58.21 5.81,58.42 5.72,58.62 5.63,58.81 5.49,58.96 5.34,59.11 5.15,59.21 4.96,59.31 4.75,59.34 4.54,59.38 4.33,59.34 4.12,59.31 3.94,59.21 3.75,59.11 3.60,58.95 3.46,58.79 3.37,58.60 3.28,58.41 3.26,58.20 3.24,57.99 3.29,57.78 3.33,57.57 3.44,57.39 3.55,57.21 3.72,57.07 3.88,56.93 3.88,56.94 3.88,56.94 4.75,55.59 5.63,54.24 6.02,53.24 6.42,52.24 6.83,50.75 7.24,49.26 7.22,48.13 7.19,47.00 7.15,45.90 7.11,44.80 6.96,43.70 6.80,42.61 6.27,40.52 5.73,38.43 5.32,37.35 4.91,36.28 4.89,34.70 4.87,33.12 4.80,31.53 4.73,29.93 4.63,28.70 4.54,27.48 4.94,26.45 5.34,25.42 5.63,24.36 5.91,23.29 6.55,21.72 7.18,20.16 7.82,18.97 8.46,17.79 9.19,16.57 9.93,15.34 10.66,14.39 11.39,13.43 11.91,11.08 12.44,8.74 10.85,8.32 9.27,7.91 7.86,7.21 6.45,6.51 5.28,5.81 4.11,5.10 3.17,4.40 2.22,3.70 0.77,2.41 -0.67,1.13 -0.80,1.03 -0.93,0.93 -1.02,0.81 -1.12,0.68 -1.19,0.54 -1.25,0.39 -1.28,0.24 -1.31,0.08 -1.30,-0.07 -1.29,-0.23 -1.25,-0.38 -1.20,-0.53 -1.12,-0.67 -1.04,-0.81 -0.93,-0.92 -0.81,-1.03 -0.68,-1.11 -0.54,-1.20 -0.39,-1.25 -0.24,-1.29 -0.08,-1.30 0.07,-1.31 0.23,-1.29 0.38,-1.26 0.53,-1.19 0.67,-1.13 0.67,-1.13 L 0.67,-1.13 Z"></path></g><g transform="translate(49.85148514851471 215.04125412541214) rotate(0 23.3415841584158 -26.188118811881168)" stroke="none"><path fill="#1e1e1e" d="M -1.33,-0.26 Q -1.33,-0.26 -1.28,-1.95 -1.23,-3.65 -1.13,-4.91 -1.03,-6.17 -0.63,-7.87 -0.23,-9.56 0.28,-10.99 0.80,-12.42 1.32,-13.94 1.84,-15.46 2.02,-16.62 2.21,-17.78 2.72,-18.92 3.22,-20.06 3.37,-21.36 3.52,-22.66 3.54,-23.97 3.56,-25.28 4.24,-26.86 4.92,-28.44 5.72,-29.26 6.52,-30.08 7.60,-30.11 8.68,-30.14 9.60,-31.00 10.53,-31.86 11.58,-32.40 12.63,-32.94 13.11,-34.06 13.59,-35.18 14.71,-36.69 15.82,-38.19 17.00,-39.87 18.17,-41.56 18.87,-42.52 19.58,-43.48 20.53,-44.85 21.49,-46.22 22.97,-47.34 24.46,-48.46 25.67,-49.10 26.89,-49.74 28.04,-50.32 29.19,-50.90 30.36,-51.48 31.52,-52.06 33.26,-52.65 34.99,-53.25 36.37,-53.38 37.75,-53.51 39.43,-54.05 41.10,-54.59 42.31,-54.61 43.53,-54.64 45.31,-53.56 47.08,-52.48 47.27,-52.39 47.46,-52.29 47.61,-52.14 47.76,-51.98 47.85,-51.79 47.94,-51.60 47.96,-51.39 47.99,-51.18 47.95,-50.97 47.90,-50.76 47.80,-50.58 47.69,-50.40 47.53,-50.26 47.37,-50.12 47.17,-50.04 46.98,-49.95 46.77,-49.94 46.55,-49.93 46.35,-49.98 46.14,-50.03 45.97,-50.15 45.79,-50.27 45.66,-50.43 45.53,-50.60 45.46,-50.80 45.39,-51.00 45.38,-51.22 45.38,-51.43 45.44,-51.63 45.51,-51.83 45.64,-52.00 45.76,-52.17 45.94,-52.30 46.11,-52.42 46.31,-52.48 46.52,-52.54 46.73,-52.53 46.94,-52.52 47.14,-52.44 47.34,-52.37 47.50,-52.23 47.67,-52.10 47.78,-51.92 47.89,-51.73 47.94,-51.53 47.99,-51.32 47.97,-51.11 47.95,-50.90 47.86,-50.70 47.77,-50.51 47.63,-50.35 47.49,-50.20 47.30,-50.10 47.11,-49.99 46.90,-49.96 46.70,-49.92 46.49,-49.95 46.28,-49.98 46.28,-49.98 46.28,-49.98 44.95,-50.03 43.62,-50.07 42.38,-50.21 41.15,-50.35 39.56,-49.61 37.98,-48.87 36.82,-48.80 35.66,-48.73 33.99,-48.16 32.33,-47.60 31.20,-47.02 30.07,-46.45 28.97,-45.89 27.87,-45.32 26.29,-44.13 24.71,-42.94 24.05,-41.71 23.39,-40.48 22.47,-39.60 21.55,-38.73 20.87,-37.56 20.19,-36.39 19.23,-35.35 18.27,-34.31 17.65,-33.17 17.04,-32.03 16.18,-30.83 15.31,-29.64 14.16,-29.05 13.01,-28.46 11.62,-27.57 10.22,-26.68 9.00,-25.94 7.78,-25.19 7.70,-23.76 7.63,-22.33 7.51,-21.21 7.40,-20.09 6.81,-18.57 6.21,-17.05 5.94,-15.59 5.68,-14.13 5.12,-12.57 4.57,-11.01 4.10,-9.80 3.64,-8.60 3.27,-7.18 2.89,-5.76 2.72,-4.33 2.54,-2.89 1.94,-1.31 1.33,0.26 1.28,0.42 1.23,0.58 1.14,0.71 1.06,0.85 0.94,0.97 0.82,1.08 0.68,1.17 0.54,1.25 0.38,1.30 0.22,1.34 0.05,1.35 -0.10,1.36 -0.26,1.32 -0.42,1.29 -0.57,1.22 -0.72,1.15 -0.85,1.05 -0.98,0.94 -1.08,0.81 -1.17,0.68 -1.24,0.53 -1.30,0.38 -1.33,0.22 -1.36,0.06 -1.35,-0.10 -1.33,-0.26 -1.33,-0.26 L -1.33,-0.26 Z"></path></g><g transform="translate(52.12871287128701 208.20957095709537) rotate(0 34.727722772277275 1.1386138613861476)" stroke="none"><path fill="#1e1e1e" d="M 1.09,0.73 Q 1.09,0.73 0.57,1.82 0.05,2.92 -0.70,3.75 -1.46,4.58 -1.98,5.78 -2.50,6.98 -2.13,8.02 -1.77,9.07 -1.01,10.31 -0.26,11.55 0.35,12.67 0.97,13.80 2.47,14.83 3.97,15.87 4.90,16.67 5.83,17.48 7.08,17.81 8.33,18.13 9.49,18.19 10.65,18.25 11.76,18.07 12.88,17.90 13.95,17.41 15.02,16.93 16.12,16.38 17.23,15.83 18.49,15.11 19.75,14.38 20.78,13.47 21.81,12.55 23.20,11.72 24.60,10.88 25.44,10.15 26.29,9.42 27.48,8.74 28.67,8.06 29.73,7.08 30.79,6.10 32.34,5.08 33.88,4.06 35.26,3.82 36.63,3.57 37.74,3.54 38.85,3.51 39.79,3.03 40.74,2.55 42.43,1.96 44.11,1.38 45.42,1.27 46.74,1.16 47.71,0.69 48.68,0.23 50.40,0.11 52.12,0.00 53.44,-0.28 54.75,-0.56 56.40,-0.82 58.04,-1.08 59.62,-1.57 61.21,-2.05 62.70,-2.43 64.20,-2.81 65.10,-3.70 65.99,-4.59 66.67,-5.46 67.35,-6.33 67.97,-7.26 68.58,-8.19 69.48,-10.01 70.37,-11.83 70.48,-12.95 70.59,-14.07 71.73,-16.47 72.87,-18.87 73.00,-19.03 73.14,-19.20 73.32,-19.31 73.50,-19.42 73.70,-19.47 73.91,-19.52 74.12,-19.50 74.33,-19.48 74.53,-19.40 74.72,-19.31 74.88,-19.17 75.04,-19.03 75.14,-18.84 75.24,-18.65 75.28,-18.44 75.32,-18.23 75.29,-18.02 75.26,-17.81 75.16,-17.63 75.06,-17.44 74.91,-17.29 74.76,-17.14 74.57,-17.05 74.38,-16.95 74.17,-16.93 73.96,-16.90 73.75,-16.94 73.54,-16.98 73.36,-17.09 73.17,-17.20 73.03,-17.36 72.89,-17.52 72.81,-17.71 72.73,-17.91 72.71,-18.12 72.70,-18.33 72.75,-18.54 72.80,-18.74 72.92,-18.92 73.04,-19.10 73.20,-19.23 73.37,-19.36 73.57,-19.43 73.77,-19.51 73.98,-19.51 74.20,-19.51 74.40,-19.45 74.60,-19.38 74.77,-19.26 74.94,-19.13 75.07,-18.96 75.19,-18.78 75.25,-18.58 75.31,-18.38 75.30,-18.16 75.29,-17.95 75.22,-17.75 75.14,-17.55 75.14,-17.55 75.14,-17.55 75.10,-15.70 75.06,-13.85 74.98,-12.47 74.90,-11.09 74.30,-9.39 73.70,-7.70 73.10,-6.52 72.50,-5.33 71.22,-3.96 69.93,-2.60 68.77,-1.47 67.61,-0.35 66.23,0.83 64.85,2.02 63.31,2.27 61.77,2.52 60.12,3.03 58.48,3.54 57.37,3.68 56.27,3.82 54.26,4.22 52.25,4.63 50.77,4.71 49.28,4.79 48.25,5.26 47.21,5.74 45.99,5.83 44.76,5.92 43.00,6.46 41.25,6.99 40.21,7.44 39.18,7.89 38.04,7.90 36.89,7.90 35.60,8.39 34.30,8.88 33.35,9.57 32.41,10.26 30.96,11.37 29.50,12.48 28.61,13.08 27.73,13.67 26.11,14.81 24.49,15.95 23.16,17.03 21.82,18.11 20.81,18.80 19.79,19.49 18.62,20.06 17.45,20.64 16.24,21.20 15.03,21.77 13.99,22.21 12.95,22.66 11.69,22.65 10.44,22.65 9.07,22.51 7.71,22.37 6.69,21.85 5.68,21.34 4.19,20.50 2.71,19.67 1.44,18.87 0.17,18.08 -1.00,17.24 -2.19,16.39 -2.80,15.26 -3.41,14.12 -4.40,12.52 -5.39,10.92 -5.69,9.88 -5.99,8.83 -5.74,6.93 -5.50,5.03 -5.05,4.03 -4.60,3.02 -3.63,2.01 -2.67,1.00 -1.88,0.13 -1.09,-0.73 -0.99,-0.85 -0.89,-0.97 -0.76,-1.06 -0.63,-1.15 -0.48,-1.21 -0.33,-1.27 -0.17,-1.29 -0.02,-1.32 0.13,-1.30 0.29,-1.28 0.44,-1.23 0.59,-1.17 0.72,-1.09 0.85,-1.00 0.96,-0.88 1.07,-0.76 1.15,-0.62 1.22,-0.48 1.26,-0.33 1.30,-0.18 1.31,-0.02 1.31,0.13 1.27,0.29 1.24,0.44 1.17,0.59 1.09,0.73 1.09,0.73 L 1.09,0.73 Z"></path></g><g transform="translate(44.1584158415842 254.89273927392708) rotate(0 9.108910891089067 0.5693069306930738)" stroke="none"><path d="M0 0 C0 0, 0 0, 0 0 M0 0 C0 0, 0 0, 0 0 M2.09 4.83 C4.09 1.56, 7.43 -1.87, 8.95 -4.27 M1.07 5.24 C3.28 1.61, 6.89 -0.78, 7.92 -3.82 M2.38 9.18 C5.37 5.41, 6.15 3.46, 11.63 -3.06 M3.42 8.29 C5.97 5.1, 8.25 2.03, 12.28 -2.78 M10.29 8.65 C12.35 4.89, 14.86 -0.38, 18.04 -3.14 M8.89 7.21 C11.94 4.59, 14.85 2.28, 19.35 -4.2 M14.89 7.32 C16.06 6.05, 16.69 4.27, 18.49 2.94 M14.73 7.52 C15.71 5.84, 16.85 4.59, 18.57 3.1" stroke="#e9ecef" stroke-width="0.5" fill="none"></path><path fill="#1e1e1e" d="M -1.09,-0.73 Q -1.09,-0.73 -0.67,-1.89 -0.25,-3.06 0.58,-3.73 1.41,-4.39 2.97,-5.24 4.53,-6.08 5.63,-5.84 6.73,-5.60 8.15,-5.50 9.58,-5.40 10.56,-4.95 11.53,-4.50 12.68,-5.47 13.83,-6.43 16.30,-7.18 18.77,-7.94 19.48,-6.74 20.18,-5.55 20.24,-3.67 20.31,-1.79 20.32,-0.26 20.33,1.25 20.31,2.53 20.30,3.81 19.85,4.85 19.40,5.88 17.94,7.13 16.48,8.38 15.24,9.05 14.00,9.71 12.60,9.87 11.20,10.03 9.55,10.04 7.89,10.05 6.66,10.04 5.43,10.04 3.78,9.25 2.13,8.46 1.55,7.32 0.97,6.19 -0.20,5.54 -1.39,4.90 -1.63,3.48 -1.87,2.06 -1.59,1.07 -1.30,0.09 -1.30,-0.06 -1.29,-0.22 -1.24,-0.37 -1.20,-0.52 -1.12,-0.66 -1.04,-0.79 -0.93,-0.91 -0.82,-1.02 -0.68,-1.10 -0.55,-1.19 -0.40,-1.24 -0.25,-1.28 -0.09,-1.30 0.06,-1.31 0.22,-1.28 0.37,-1.25 0.52,-1.19 0.66,-1.13 0.79,-1.03 0.91,-0.93 1.01,-0.81 1.11,-0.69 1.18,-0.54 1.24,-0.40 1.27,-0.24 1.30,-0.09 0.76,0.60 0.22,1.29 0.01,1.29 -0.20,1.29 -0.40,1.23 -0.60,1.16 -0.77,1.03 -0.94,0.91 -1.06,0.73 -1.18,0.56 -1.24,0.35 -1.30,0.15 -1.29,-0.05 -1.28,-0.27 -1.20,-0.46 -1.13,-0.66 -0.99,-0.83 -0.85,-0.99 -0.67,-1.10 -0.49,-1.21 -0.28,-1.26 -0.08,-1.31 0.12,-1.28 0.34,-1.26 0.53,-1.18 0.72,-1.09 0.88,-0.94 1.03,-0.80 1.14,-0.61 1.24,-0.42 1.27,-0.22 1.31,-0.01 1.28,0.19 1.24,0.40 1.14,0.59 1.05,0.78 0.89,0.93 0.74,1.08 0.55,1.17 0.36,1.26 0.15,1.28 -0.06,1.31 -0.26,1.26 -0.47,1.22 -0.65,1.11 -0.84,1.00 -0.98,0.84 -1.11,0.68 -1.20,0.48 -1.28,0.29 -1.29,0.08 -1.30,-0.13 -1.25,-0.33 -1.19,-0.54 -1.07,-0.71 -0.96,-0.89 -0.79,-1.02 -0.62,-1.15 -0.96,-0.53 -1.30,0.09 -1.30,-0.06 -1.29,-0.22 -1.24,-0.37 -1.20,-0.52 -1.12,-0.66 -1.04,-0.79 -0.93,-0.91 -0.82,-1.02 -0.68,-1.10 -0.55,-1.19 -0.40,-1.24 -0.25,-1.28 -0.09,-1.30 0.06,-1.31 0.22,-1.28 0.37,-1.25 0.52,-1.19 0.66,-1.13 0.79,-1.03 0.91,-0.93 1.01,-0.81 1.11,-0.69 1.18,-0.54 1.24,-0.40 1.27,-0.24 1.30,-0.09 1.42,1.49 1.54,3.07 2.79,3.60 4.04,4.13 4.73,5.01 5.42,5.89 6.64,5.88 7.86,5.87 9.41,5.84 10.96,5.80 12.08,5.72 13.21,5.64 14.67,4.59 16.13,3.54 16.11,2.41 16.09,1.27 16.08,-0.23 16.08,-1.74 16.14,-3.34 16.19,-4.93 17.28,-4.98 18.38,-5.02 17.59,-4.28 16.80,-3.54 15.82,-2.61 14.84,-1.67 13.54,-1.26 12.23,-0.85 10.17,-1.17 8.11,-1.49 6.52,-1.89 4.93,-2.30 3.90,-1.58 2.87,-0.86 1.98,-0.06 1.09,0.73 0.99,0.85 0.88,0.97 0.75,1.06 0.63,1.15 0.48,1.21 0.33,1.27 0.17,1.29 0.02,1.31 -0.13,1.30 -0.29,1.28 -0.44,1.22 -0.59,1.17 -0.72,1.08 -0.85,0.99 -0.96,0.88 -1.07,0.76 -1.14,0.62 -1.22,0.48 -1.26,0.33 -1.30,0.17 -1.30,0.02 -1.30,-0.13 -1.27,-0.29 -1.23,-0.44 -1.16,-0.58 -1.09,-0.73 -1.09,-0.73 L -1.09,-0.73 Z"></path></g><g transform="translate(72.62376237623744 248.0610561056102) rotate(0 3.415841584158443 -3.415841584158386)" stroke="none"><path d="M-1.03 -3.54 C-1.03 -3.54, -1.03 -3.54, -1.03 -3.54 M-1.03 -3.54 C-1.03 -3.54, -1.03 -3.54, -1.03 -3.54 M2.63 -1.92 C3.67 -2.85, 4.85 -4.29, 5.6 -5.39 M2.8 -1.57 C3.57 -2.67, 4.36 -3.58, 5.77 -5.49" stroke="#e9ecef" stroke-width="0.5" fill="none"></path><path fill="#1e1e1e" d="M -1.30,0.43 Q -1.30,0.43 -1.94,-0.53 -2.58,-1.50 -2.40,-2.74 -2.23,-3.98 -1.71,-4.90 -1.19,-5.83 0.28,-7.07 1.75,-8.31 4.00,-8.17 6.26,-8.02 7.37,-6.98 8.49,-5.94 8.89,-4.36 9.29,-2.78 8.68,-1.66 8.07,-0.54 6.37,0.17 4.67,0.88 3.54,0.75 2.42,0.62 1.58,0.85 0.74,1.07 0.55,1.17 0.36,1.26 0.15,1.28 -0.05,1.31 -0.26,1.26 -0.47,1.22 -0.65,1.11 -0.84,1.00 -0.97,0.84 -1.11,0.68 -1.19,0.49 -1.27,0.29 -1.29,0.08 -1.30,-0.12 -1.25,-0.33 -1.19,-0.53 -1.07,-0.71 -0.96,-0.89 -0.79,-1.02 -0.62,-1.15 -0.42,-1.22 -0.22,-1.29 -0.01,-1.29 0.20,-1.29 0.40,-1.23 0.60,-1.16 0.77,-1.03 0.94,-0.91 1.06,-0.73 1.18,-0.56 1.24,-0.35 1.30,-0.15 1.29,0.05 1.28,0.27 1.20,0.46 1.13,0.66 0.99,0.82 0.85,0.99 0.67,1.10 0.49,1.21 0.29,1.26 0.08,1.31 -0.12,1.28 -0.33,1.26 -0.53,1.18 -0.72,1.09 -0.88,0.94 -1.03,0.80 -1.13,0.61 -1.24,0.43 -1.27,0.22 -1.31,0.01 -1.28,-0.19 -1.24,-0.40 -1.15,-0.59 -1.05,-0.78 -0.90,-0.93 -0.74,-1.08 -0.74,-1.07 -0.74,-1.07 0.55,-2.09 1.85,-3.10 3.60,-3.13 5.36,-3.17 4.20,-3.87 3.04,-4.58 2.16,-3.50 1.27,-2.42 1.28,-1.42 1.30,-0.43 1.33,-0.27 1.36,-0.10 1.36,0.05 1.35,0.22 1.30,0.37 1.26,0.53 1.17,0.68 1.09,0.82 0.98,0.94 0.86,1.06 0.72,1.15 0.58,1.24 0.43,1.29 0.27,1.34 0.10,1.35 -0.05,1.37 -0.21,1.34 -0.38,1.31 -0.53,1.25 -0.68,1.18 -0.81,1.08 -0.95,0.98 -1.05,0.86 -1.16,0.73 -1.23,0.58 -1.30,0.43 -1.30,0.43 L -1.30,0.43 Z"></path></g><g transform="translate(104.50495049504934 221.87293729372902) rotate(0 5.123762376237664 -0.5693069306930738)" stroke="none"><path fill="#1e1e1e" d="M -0.42,-1.26 Q -0.42,-1.26 0.46,-1.87 1.35,-2.48 3.03,-2.73 4.72,-2.99 5.77,-2.61 6.82,-2.23 8.22,-2.26 9.63,-2.29 9.83,-2.36 10.03,-2.43 10.24,-2.43 10.45,-2.43 10.65,-2.36 10.86,-2.29 11.03,-2.17 11.19,-2.04 11.31,-1.86 11.43,-1.69 11.49,-1.48 11.55,-1.28 11.54,-1.07 11.53,-0.85 11.45,-0.66 11.37,-0.46 11.23,-0.30 11.09,-0.13 10.91,-0.02 10.73,0.08 10.52,0.12 10.32,0.17 10.10,0.14 9.89,0.12 9.70,0.03 9.51,-0.05 9.35,-0.19 9.20,-0.34 9.10,-0.53 9.00,-0.71 8.96,-0.92 8.93,-1.13 8.96,-1.34 9.00,-1.55 9.10,-1.74 9.20,-1.93 9.35,-2.07 9.50,-2.22 9.70,-2.31 9.89,-2.40 10.10,-2.42 10.31,-2.45 10.52,-2.40 10.73,-2.35 10.91,-2.24 11.09,-2.14 11.23,-1.97 11.37,-1.81 11.45,-1.61 11.52,-1.42 11.54,-1.21 11.55,-0.99 11.49,-0.79 11.44,-0.58 11.32,-0.41 11.20,-0.23 11.03,-0.10 10.86,0.02 10.86,0.02 10.86,0.02 7.81,0.45 4.76,0.89 3.66,1.03 2.57,1.17 1.49,1.21 0.42,1.26 0.26,1.29 0.10,1.32 -0.05,1.31 -0.21,1.31 -0.36,1.26 -0.52,1.22 -0.65,1.14 -0.79,1.06 -0.91,0.95 -1.02,0.83 -1.11,0.70 -1.20,0.56 -1.25,0.41 -1.30,0.26 -1.31,0.10 -1.32,-0.05 -1.30,-0.21 -1.27,-0.37 -1.21,-0.51 -1.14,-0.66 -1.05,-0.79 -0.95,-0.92 -0.83,-1.02 -0.70,-1.12 -0.56,-1.19 -0.41,-1.26 -0.41,-1.26 L -0.42,-1.26 Z"></path></g><g stroke-linecap="round" transform="translate(590 75.83333333333303) rotate(0 81.66666666666674 81.66666666666674)"><path d="M19.42 28.81 C19.42 28.81, 19.42 28.81, 19.42 28.81 M19.42 28.81 C19.42 28.81, 19.42 28.81, 19.42 28.81 M2.63 72.51 C15.23 57.53, 27.32 42.05, 61.02 5.34 M2.63 72.51 C16.99 55.81, 32.36 37.75, 61.02 5.34 M2.24 97.35 C19.74 76.74, 37.1 54.15, 84.9 2.25 M2.24 97.35 C20.93 77.57, 36.77 58.3, 84.9 2.25 M9.06 113.88 C42.19 78.47, 74.32 41.49, 103.54 5.2 M9.06 113.88 C45.83 71.25, 82.28 29.2, 103.54 5.2 M17.2 128.91 C38.56 102.44, 59.6 80.66, 119.55 11.17 M17.2 128.91 C43.55 97.16, 71.08 66.63, 119.55 11.17 M27.97 140.91 C61.38 103.9, 92.95 62.41, 132.94 20.16 M27.97 140.91 C63.16 99.5, 98.99 57.84, 132.94 20.16 M40.04 151.41 C70.76 117.61, 100.75 79.46, 144.36 31.41 M40.04 151.41 C76.7 108.97, 112.99 67.16, 144.36 31.41 M56.05 157.38 C74.58 135.01, 94.02 115.06, 153.81 44.93 M56.05 157.38 C87.1 124.77, 115.77 91.56, 153.81 44.93 M73.38 161.84 C96.46 135.84, 117.51 109.07, 159.98 62.22 M73.38 161.84 C102.53 129.65, 132.45 96, 159.98 62.22 M95.29 161.01 C118.84 135.97, 144.64 106.83, 162.21 84.03 M95.29 161.01 C110.2 143.97, 124.89 128.4, 162.21 84.03 M127.05 148.87 C136.74 139.88, 142.76 129.15, 154.61 117.17 M127.05 148.87 C134.67 139.39, 142.53 130.41, 154.61 117.17" stroke="#e9ecef" stroke-width="2" fill="none"></path><path d="M79.56 1.03 C90.01 -0.41, 102.55 2.05, 112.72 6.06 C122.88 10.07, 132.76 17.15, 140.54 25.07 C148.32 32.99, 155.74 43.12, 159.41 53.58 C163.08 64.04, 163.5 76.77, 162.57 87.83 C161.64 98.89, 158.94 110.21, 153.85 119.94 C148.76 129.67, 140.72 139.47, 132.05 146.21 C123.39 152.95, 112.63 157.8, 101.86 160.36 C91.09 162.93, 78.29 163.44, 67.43 161.6 C56.56 159.76, 45.83 155.52, 36.66 149.34 C27.5 143.15, 18.41 133.82, 12.46 124.5 C6.5 115.18, 2.51 104.44, 0.93 93.44 C-0.66 82.43, -0.06 69.17, 2.96 58.46 C5.99 47.76, 11.96 37.47, 19.09 29.18 C26.23 20.9, 35.35 13.75, 45.77 8.76 C56.19 3.77, 75.34 0.36, 81.61 -0.74 C87.87 -1.84, 83.2 0.56, 83.33 2.15 M45.57 9.2 C54.54 3.48, 66.88 0.6, 77.74 -0.28 C88.6 -1.15, 100.55 -0.23, 110.73 3.93 C120.9 8.09, 130.88 16.55, 138.8 24.71 C146.72 32.87, 154.02 42.91, 158.26 52.88 C162.49 62.85, 164.83 73.48, 164.21 84.54 C163.59 95.61, 159.91 109.21, 154.54 119.28 C149.17 129.35, 140.36 138.16, 131.99 144.96 C123.62 151.76, 115.06 157.35, 104.34 160.09 C93.62 162.83, 79.07 162.97, 67.66 161.39 C56.25 159.8, 44.71 156.26, 35.86 150.59 C27.01 144.92, 20.44 136.59, 14.56 127.36 C8.68 118.12, 2.32 106.48, 0.6 95.19 C-1.12 83.89, 1.14 70.38, 4.23 59.58 C7.33 48.77, 12.28 39.03, 19.16 30.36 C26.05 21.7, 40.93 11.12, 45.54 7.57 C50.14 4.02, 46.55 7.62, 46.79 9.07" stroke="#1e1e1e" stroke-width="4" fill="none"></path></g><g transform="translate(595 182.49999999999966) rotate(0 78.33333333333303 -10.833333333333314)" stroke="none"><path fill="#1e1e1e" d="M 0.59,1.19 Q 0.59,1.19 -0.10,2.20 -0.80,3.22 -1.96,3.52 -3.11,3.82 -4.24,4.31 -5.36,4.81 -7.70,6.25 -10.04,7.70 -11.32,8.12 -12.61,8.54 -13.66,9.44 -14.70,10.34 -15.73,11.24 -16.76,12.14 -18.34,13.14 -19.91,14.14 -20.89,14.91 -21.86,15.69 -23.41,16.62 -24.96,17.55 -25.92,18.30 -26.88,19.05 -28.43,19.98 -29.97,20.90 -30.93,21.64 -31.88,22.39 -32.78,23.18 -33.68,23.97 -34.88,24.52 -36.09,25.08 -37.49,26.92 -38.90,28.76 -40.05,29.41 -41.19,30.06 -42.49,31.84 -43.79,33.62 -43.94,34.69 -44.09,35.77 -43.05,36.56 -42.02,37.35 -40.75,37.46 -39.47,37.57 -36.84,36.91 -34.21,36.26 -32.85,35.76 -31.48,35.25 -29.35,34.52 -27.23,33.80 -24.89,33.01 -22.55,32.22 -20.67,31.44 -18.80,30.65 -17.05,29.84 -15.30,29.03 -13.32,28.59 -11.35,28.16 -8.74,27.54 -6.13,26.91 -3.63,26.18 -1.12,25.45 1.37,24.66 3.87,23.87 5.82,23.09 7.77,22.30 9.81,21.88 11.85,21.46 13.18,21.30 14.52,21.14 16.31,20.63 18.10,20.12 20.34,19.42 22.57,18.71 24.41,17.96 26.25,17.21 28.77,16.80 31.30,16.39 33.02,15.82 34.74,15.24 37.53,14.48 40.31,13.72 42.87,12.93 45.43,12.15 47.96,11.34 50.48,10.52 53.36,9.26 56.25,7.99 59.55,6.92 62.85,5.84 65.64,4.93 68.42,4.01 70.87,2.74 73.32,1.46 76.51,0.34 79.70,-0.77 82.97,-1.71 86.24,-2.66 89.01,-3.52 91.78,-4.39 94.23,-5.64 96.67,-6.90 99.85,-8.01 103.04,-9.12 105.77,-10.05 108.50,-10.97 111.48,-12.29 114.45,-13.60 117.25,-14.68 120.05,-15.75 122.68,-16.69 125.32,-17.63 127.56,-18.07 129.80,-18.51 132.37,-19.57 134.94,-20.63 137.60,-21.61 140.26,-22.58 142.27,-23.44 144.29,-24.30 146.10,-25.14 147.91,-25.98 149.90,-26.43 151.89,-26.88 152.82,-27.41 153.75,-27.94 155.56,-28.32 157.37,-28.70 159.31,-29.27 161.26,-29.83 162.98,-30.52 164.70,-31.22 166.10,-31.57 167.51,-31.93 169.98,-32.81 172.45,-33.70 174.38,-34.53 176.30,-35.35 177.49,-35.87 178.67,-36.40 180.61,-37.36 182.56,-38.33 183.66,-39.27 184.76,-40.22 186.66,-41.46 188.56,-42.70 189.44,-43.40 190.33,-44.09 191.18,-44.85 192.03,-45.60 192.87,-46.40 193.72,-47.19 194.56,-48.00 195.40,-48.82 196.24,-49.64 197.08,-50.45 197.90,-51.25 198.72,-52.05 199.61,-53.60 200.50,-55.14 199.83,-56.20 199.15,-57.26 198.03,-57.53 196.90,-57.81 196.16,-58.62 195.42,-59.42 194.07,-59.34 192.72,-59.26 191.12,-59.28 189.53,-59.30 187.87,-59.30 186.22,-59.30 185.13,-58.98 184.04,-58.65 182.91,-58.33 181.78,-58.00 179.89,-57.85 178.00,-57.69 176.86,-57.35 175.72,-57.00 174.59,-56.67 173.46,-56.34 172.12,-55.87 170.77,-55.41 169.63,-55.05 168.49,-54.70 166.93,-54.71 165.37,-54.73 164.35,-53.89 163.34,-53.05 161.48,-52.86 159.62,-52.67 156.55,-52.35 153.48,-52.02 153.27,-52.03 153.06,-52.04 152.86,-52.12 152.66,-52.20 152.50,-52.33 152.33,-52.47 152.22,-52.65 152.11,-52.83 152.07,-53.04 152.02,-53.25 152.04,-53.46 152.06,-53.67 152.15,-53.86 152.23,-54.06 152.38,-54.21 152.52,-54.37 152.71,-54.47 152.90,-54.57 153.11,-54.61 153.32,-54.64 153.53,-54.61 153.74,-54.58 153.93,-54.48 154.11,-54.38 154.26,-54.23 154.41,-54.07 154.50,-53.88 154.59,-53.69 154.62,-53.48 154.64,-53.27 154.60,-53.06 154.55,-52.85 154.44,-52.67 154.34,-52.49 154.18,-52.35 154.02,-52.21 153.82,-52.13 153.62,-52.05 153.41,-52.03 153.20,-52.02 152.99,-52.08 152.79,-52.13 152.61,-52.25 152.43,-52.37 152.30,-52.54 152.17,-52.70 152.10,-52.90 152.03,-53.10 152.03,-53.32 152.03,-53.53 152.10,-53.73 152.16,-53.93 152.29,-54.10 152.42,-54.27 152.59,-54.39 152.77,-54.52 152.97,-54.57 153.18,-54.63 153.17,-54.63 153.17,-54.63 155.12,-55.82 157.06,-57.00 158.23,-57.22 159.39,-57.43 160.77,-57.36 162.14,-57.28 162.95,-57.99 163.76,-58.71 164.86,-58.93 165.96,-59.15 167.15,-59.30 168.35,-59.44 169.61,-60.11 170.88,-60.77 172.14,-60.93 173.40,-61.09 174.72,-61.71 176.04,-62.33 177.68,-62.40 179.32,-62.47 180.53,-62.61 181.74,-62.76 183.99,-63.39 186.23,-64.02 187.90,-64.01 189.57,-64.00 191.27,-63.97 192.96,-63.94 194.84,-63.73 196.72,-63.52 198.57,-62.56 200.43,-61.61 201.57,-60.94 202.71,-60.27 203.53,-59.16 204.35,-58.06 204.76,-56.59 205.16,-55.13 204.23,-53.14 203.29,-51.16 202.71,-49.98 202.13,-48.81 201.28,-47.94 200.43,-47.08 199.59,-46.23 198.75,-45.39 197.90,-44.54 197.04,-43.69 196.15,-42.84 195.26,-41.98 194.28,-41.11 193.31,-40.23 192.14,-39.35 190.98,-38.47 189.86,-37.82 188.73,-37.18 187.50,-36.55 186.27,-35.91 184.71,-34.73 183.15,-33.54 181.90,-32.70 180.65,-31.86 178.45,-31.07 176.26,-30.28 173.82,-29.45 171.39,-28.62 170.07,-27.88 168.76,-27.14 167.64,-26.88 166.53,-26.61 164.58,-25.84 162.63,-25.07 160.44,-24.45 158.26,-23.82 157.12,-23.67 155.97,-23.51 154.46,-22.77 152.95,-22.04 151.46,-21.76 149.97,-21.48 148.11,-20.60 146.24,-19.73 144.10,-18.82 141.97,-17.91 139.38,-16.97 136.79,-16.03 133.77,-14.84 130.75,-13.64 128.86,-13.30 126.97,-12.95 124.40,-12.04 121.83,-11.12 119.14,-10.09 116.44,-9.06 113.27,-7.67 110.09,-6.29 107.37,-5.37 104.65,-4.45 101.77,-3.47 98.89,-2.50 96.07,-1.09 93.26,0.30 90.43,1.18 87.61,2.07 84.46,2.97 81.32,3.88 78.45,4.86 75.57,5.85 72.77,7.27 69.97,8.70 67.17,9.62 64.37,10.54 61.29,11.53 58.22,12.52 55.10,13.87 51.99,15.22 49.43,16.04 46.87,16.86 44.24,17.66 41.60,18.47 38.93,19.19 36.25,19.91 34.14,20.58 32.02,21.24 30.04,21.50 28.05,21.75 26.04,22.56 24.03,23.37 21.71,24.09 19.39,24.81 17.25,25.38 15.10,25.95 13.93,26.09 12.75,26.22 11.15,26.50 9.55,26.78 7.43,27.62 5.32,28.47 2.77,29.27 0.21,30.08 -2.40,30.84 -5.02,31.60 -7.70,32.23 -10.39,32.87 -11.85,33.13 -13.31,33.40 -15.14,34.24 -16.96,35.07 -18.99,35.91 -21.02,36.75 -23.36,37.54 -25.69,38.32 -27.80,39.03 -29.91,39.74 -31.75,40.35 -33.59,40.97 -34.87,41.11 -36.15,41.25 -37.88,41.76 -39.61,42.28 -41.59,42.07 -43.57,41.85 -45.36,40.78 -47.15,39.72 -47.87,38.79 -48.60,37.86 -48.59,35.45 -48.59,33.04 -47.66,31.29 -46.72,29.53 -46.07,28.39 -45.41,27.24 -43.54,25.86 -41.67,24.47 -40.98,23.33 -40.29,22.18 -38.58,21.20 -36.87,20.22 -35.89,19.35 -34.91,18.47 -33.70,17.55 -32.49,16.62 -31.20,15.88 -29.91,15.13 -28.71,14.20 -27.50,13.28 -26.22,12.53 -24.93,11.78 -23.74,10.84 -22.55,9.91 -21.29,9.14 -20.04,8.38 -18.90,7.39 -17.77,6.39 -15.12,4.85 -12.47,3.30 -11.17,2.58 -9.87,1.85 -8.61,1.02 -7.35,0.18 -5.19,-0.56 -3.03,-1.30 -1.81,-1.25 -0.59,-1.19 -0.44,-1.24 -0.29,-1.30 -0.13,-1.31 0.02,-1.33 0.18,-1.31 0.34,-1.29 0.49,-1.23 0.64,-1.17 0.77,-1.07 0.90,-0.98 1.00,-0.85 1.11,-0.73 1.18,-0.59 1.25,-0.44 1.29,-0.29 1.32,-0.13 1.32,0.02 1.32,0.18 1.28,0.34 1.23,0.49 1.16,0.63 1.08,0.78 0.97,0.89 0.86,1.01 0.73,1.10 0.59,1.19 0.59,1.19 L 0.59,1.19 Z"></path></g><g transform="translate(37.5 116.66666666666652) rotate(0 19.16666666666663 -19.166666666666686)" stroke="none"><path d="M-0.38 3.08 C-1.25 3.43, -4.27 -0.19, -5.58 -1.47 C-6.89 -2.76, -7.37 -4, -8.23 -4.63 C-9.09 -5.25, -10.99 -4.95, -10.75 -5.24 C-10.52 -5.52, -6.91 -6.56, -6.82 -6.35 C-6.73 -6.14, -10.42 -2.71, -10.19 -3.97 C-9.96 -5.24, -6.3 -13.44, -5.46 -13.95 C-4.62 -14.47, -6.88 -5.65, -5.15 -7.07 C-3.42 -8.48, 1.67 -19.97, 4.91 -22.45 C8.15 -24.92, 14.11 -20.86, 14.31 -21.93 C14.51 -23, 7.23 -26.92, 6.08 -28.89 C4.94 -30.86, 7.28 -32.6, 7.42 -33.78 C7.57 -34.96, 7.02 -35.82, 6.97 -35.96 C6.92 -36.09, 6.48 -34.04, 7.14 -34.59 C7.8 -35.13, 6.12 -39.04, 10.94 -39.24 C15.77 -39.44, 32.28 -36.58, 36.1 -35.79 C39.93 -35.01, 33.12 -33.38, 33.88 -34.53 C34.65 -35.68, 39.76 -41.75, 40.68 -42.68 C41.6 -43.6, 38.45 -41.36, 39.42 -40.09 C40.39 -38.81, 45.18 -37.01, 46.52 -35.02 C47.86 -33.04, 47.71 -30.43, 47.47 -28.16 C47.23 -25.9, 45.21 -22.68, 45.06 -21.41 C44.91 -20.14, 47.15 -21.77, 46.58 -20.54 C46.01 -19.32, 42.63 -16.31, 41.65 -14.07 C40.67 -11.84, 41.07 -8.19, 40.7 -7.15 C40.34 -6.11, 39.59 -9.13, 39.46 -7.86 C39.32 -6.59, 40.82 -0.38, 39.9 0.45 C38.97 1.27, 34.64 -1.93, 33.91 -2.9 C33.17 -3.86, 36.24 -5.09, 35.51 -5.34 C34.78 -5.59, 31.41 -4.05, 29.52 -4.41 C27.63 -4.78, 25.24 -5.99, 24.16 -7.55 C23.08 -9.1, 22.85 -12.35, 23.05 -13.76 C23.26 -15.17, 25.97 -15.55, 25.38 -16.02 C24.79 -16.49, 20.44 -16.65, 19.52 -16.58 C18.6 -16.52, 19.63 -16.73, 19.83 -15.65 C20.04 -14.56, 21.44 -10.55, 20.75 -10.07 C20.06 -9.58, 17.38 -12.65, 15.69 -12.74 C14.01 -12.83, 10.45 -11.93, 10.64 -10.62 C10.82 -9.31, 16.33 -5.93, 16.81 -4.86 C17.3 -3.79, 14.48 -4.62, 13.55 -4.19 C12.63 -3.75, 13.29 -2.65, 11.26 -2.24 C9.24 -1.83, 1.77 -1.95, 1.4 -1.74 C1.02 -1.53, 9.26 -1.11, 9.01 -0.96 C8.76 -0.82, 1.59 -0.83, -0.1 -0.85 C-1.8 -0.87, -0.85 -1.9, -1.15 -1.07" stroke="none" stroke-width="0" fill="#e9ecef" fill-rule="evenodd"></path><path fill="#1e1e1e" d="M -0.74,1.11 Q -0.74,1.11 -2.49,0.56 -4.23,0.01 -5.09,-1.11 -5.95,-2.24 -7.03,-3.31 -8.10,-4.37 -9.18,-5.42 -10.26,-6.46 -10.18,-8.16 -10.11,-9.86 -9.44,-10.72 -8.78,-11.59 -7.77,-12.57 -6.77,-13.55 -5.34,-14.96 -3.91,-16.37 -2.82,-17.45 -1.73,-18.53 -0.76,-19.48 0.20,-20.43 1.42,-21.07 2.64,-21.70 4.45,-22.68 6.26,-23.66 7.78,-24.39 9.31,-25.12 8.32,-26.04 7.33,-26.96 6.40,-28.47 5.47,-29.98 4.76,-30.88 4.04,-31.77 3.26,-32.65 2.48,-33.53 2.04,-35.57 1.60,-37.61 2.16,-38.67 2.72,-39.73 3.86,-40.21 5.01,-40.70 7.15,-41.52 9.29,-42.35 10.42,-42.46 11.56,-42.58 13.04,-42.64 14.52,-42.69 16.10,-42.72 17.67,-42.74 18.82,-42.76 19.96,-42.77 21.41,-42.78 22.86,-42.79 23.95,-42.79 25.04,-42.80 26.47,-42.80 27.89,-42.81 29.45,-42.81 31.02,-42.81 32.23,-42.80 33.44,-42.78 34.94,-42.18 36.45,-41.58 38.44,-41.41 40.43,-41.25 41.87,-40.59 43.31,-39.92 44.86,-39.57 46.41,-39.23 47.46,-38.27 48.51,-37.32 48.87,-36.15 49.23,-34.97 49.35,-32.63 49.47,-30.29 49.46,-29.17 49.45,-28.05 48.84,-26.57 48.23,-25.09 48.09,-22.75 47.94,-20.41 47.36,-18.46 46.78,-16.51 45.87,-14.10 44.96,-11.69 44.79,-10.48 44.62,-9.26 44.36,-8.11 44.10,-6.96 43.33,-6.07 42.56,-5.18 41.53,-3.29 40.49,-1.40 39.15,-1.12 37.80,-0.84 36.32,-1.37 34.83,-1.90 33.35,-2.21 31.88,-2.53 31.01,-3.32 30.14,-4.11 28.96,-4.67 27.78,-5.23 26.42,-6.36 25.06,-7.49 24.17,-8.39 23.28,-9.30 22.46,-10.16 21.64,-11.02 20.84,-10.12 20.04,-9.22 18.72,-8.63 17.39,-8.04 16.59,-7.21 15.79,-6.39 14.97,-5.54 14.15,-4.70 13.32,-3.86 12.49,-3.02 11.45,-1.97 10.41,-0.91 8.97,-0.20 7.54,0.50 6.47,1.47 5.40,2.43 3.10,2.01 0.80,1.60 0.61,1.51 0.42,1.41 0.27,1.27 0.12,1.12 0.02,0.93 -0.07,0.74 -0.10,0.53 -0.13,0.32 -0.10,0.11 -0.06,-0.09 0.03,-0.27 0.13,-0.46 0.29,-0.61 0.45,-0.75 0.64,-0.84 0.83,-0.92 1.05,-0.94 1.26,-0.96 1.46,-0.92 1.67,-0.87 1.85,-0.76 2.03,-0.65 2.17,-0.48 2.30,-0.32 2.38,-0.12 2.46,0.07 2.47,0.28 2.47,0.49 2.42,0.70 2.36,0.90 2.23,1.08 2.11,1.25 1.94,1.38 1.77,1.50 1.57,1.57 1.37,1.63 1.16,1.63 0.94,1.63 0.74,1.56 0.54,1.49 0.37,1.36 0.21,1.23 0.09,1.05 -0.02,0.87 -0.07,0.67 -0.13,0.46 -0.11,0.25 -0.10,0.04 -0.02,-0.15 0.05,-0.34 0.19,-0.50 0.33,-0.66 0.52,-0.77 0.70,-0.88 0.91,-0.92 1.11,-0.97 1.33,-0.94 1.54,-0.92 1.54,-0.92 1.54,-0.92 2.35,-1.79 3.17,-2.66 4.53,-3.80 5.89,-4.94 6.96,-5.39 8.02,-5.83 8.86,-6.66 9.69,-7.49 10.54,-8.32 11.39,-9.14 12.26,-9.97 13.12,-10.80 14.06,-11.66 15.00,-12.53 15.81,-13.32 16.61,-14.10 18.31,-14.72 20.01,-15.34 21.78,-15.37 23.54,-15.41 24.60,-14.41 25.66,-13.41 26.51,-12.60 27.36,-11.80 28.22,-11.05 29.08,-10.30 30.48,-9.63 31.88,-8.97 33.50,-8.22 35.13,-7.47 36.39,-7.14 37.65,-6.81 38.33,-8.37 39.01,-9.94 39.15,-10.99 39.29,-12.05 40.09,-13.84 40.89,-15.63 41.15,-16.93 41.40,-18.23 41.85,-19.50 42.30,-20.77 42.40,-22.42 42.49,-24.07 42.83,-25.84 43.16,-27.61 43.47,-28.89 43.77,-30.17 43.39,-32.20 43.01,-34.22 41.39,-34.94 39.76,-35.66 38.66,-35.75 37.56,-35.83 35.37,-36.52 33.17,-37.21 32.10,-37.19 31.02,-37.18 29.46,-37.18 27.89,-37.18 26.47,-37.19 25.05,-37.19 23.96,-37.19 22.87,-37.19 21.43,-37.20 20.00,-37.20 18.87,-37.20 17.74,-37.19 16.21,-37.18 14.69,-37.18 13.39,-37.15 12.08,-37.12 10.41,-37.03 8.73,-36.94 7.67,-37.02 6.61,-37.09 7.48,-36.13 8.35,-35.18 9.26,-34.01 10.18,-32.85 10.82,-31.78 11.46,-30.70 12.25,-29.84 13.05,-28.98 13.91,-27.19 14.78,-25.41 13.93,-23.99 13.09,-22.58 11.64,-21.46 10.20,-20.35 8.55,-19.50 6.90,-18.66 5.28,-17.72 3.67,-16.78 2.75,-15.85 1.83,-14.93 0.74,-13.84 -0.35,-12.75 -1.81,-11.32 -3.27,-9.88 -4.67,-9.05 -6.07,-8.22 -5.16,-7.30 -4.26,-6.37 -2.88,-5.11 -1.51,-3.85 -0.38,-2.48 0.74,-1.11 0.86,-1.00 0.98,-0.90 1.07,-0.77 1.17,-0.63 1.23,-0.49 1.29,-0.34 1.31,-0.18 1.33,-0.02 1.31,0.13 1.30,0.29 1.24,0.45 1.19,0.60 1.10,0.73 1.01,0.86 0.89,0.97 0.77,1.08 0.63,1.16 0.49,1.24 0.33,1.28 0.18,1.32 0.02,1.32 -0.13,1.32 -0.29,1.29 -0.45,1.25 -0.59,1.18 -0.74,1.11 -0.74,1.11 L -0.74,1.11 Z"></path></g><g stroke-linecap="round"><g transform="translate(90.80901532987582 134.90475469488615) rotate(0 267.0954923350621 -37.869044014109875)"><path d="M-0.82 2.35 C41.29 -6.67, 164.83 -39.93, 253.6 -52.59 C342.38 -65.24, 485.22 -70.2, 531.82 -73.59 M3.93 1.16 C45.83 -8.83, 163.95 -43.61, 252.85 -56.79 C341.76 -69.98, 490.63 -74.51, 537.37 -77.95" stroke="#1e1e1e" stroke-width="2" fill="none"></path></g><g transform="translate(90.80901532987582 134.90475469488615) rotate(0 267.0954923350621 -37.869044014109875)"><path d="M516.06 -66.16 C523.07 -73.04, 531.23 -75.33, 539.36 -76.76 M514.99 -67.84 C519.43 -70.34, 524.57 -72.6, 537.22 -77.1" stroke="#1e1e1e" stroke-width="2" fill="none"></path></g><g transform="translate(90.80901532987582 134.90475469488615) rotate(0 267.0954923350621 -37.869044014109875)"><path d="M515.12 -83.24 C522.54 -84.4, 531.01 -80.99, 539.36 -76.76 M514.05 -84.92 C518.71 -83.67, 524.06 -82.19, 537.22 -77.1" stroke="#1e1e1e" stroke-width="2" fill="none"></path></g></g><mask></mask><g stroke-opacity="0.5" fill-opacity="0.5" transform="translate(525.8333333333326 50) rotate(0 19.166666666666742 -19.166666666666686)" stroke="none"><path d="M-0.21 -1.5 C-1.95 -3.13, -6.81 -6.46, -7.01 -6.54 C-7.22 -6.63, -2.2 -2.15, -1.44 -2 C-0.67 -1.85, -1.13 -4.67, -2.44 -5.65 C-3.75 -6.64, -9.05 -7.37, -9.32 -7.92 C-9.59 -8.48, -4.5 -9.2, -4.06 -8.98 C-3.61 -8.75, -5.72 -5.66, -6.65 -6.56 C-7.57 -7.46, -11.89 -11.66, -9.6 -14.37 C-7.32 -17.08, 2.79 -21.2, 7.07 -22.83 C11.35 -24.45, 16.45 -22.37, 16.09 -24.12 C15.74 -25.87, 7.52 -31.75, 4.93 -33.31 C2.34 -34.87, 0.63 -32.42, 0.56 -33.49 C0.48 -34.56, 2.84 -38.28, 4.48 -39.72 C6.13 -41.17, 9.7 -42.32, 10.43 -42.16 C11.15 -41.99, 4.54 -38.98, 8.86 -38.75 C13.19 -38.52, 32.25 -40.87, 36.37 -40.75 C40.49 -40.64, 32.85 -38.59, 33.57 -38.07 C34.29 -37.55, 39.33 -38.15, 40.69 -37.62 C42.05 -37.1, 41.35 -34.6, 41.73 -34.92 C42.12 -35.24, 42.64 -40.97, 43 -39.53 C43.36 -38.08, 44.11 -28.3, 43.89 -26.26 C43.67 -24.21, 41.45 -28.81, 41.68 -27.26 C41.91 -25.71, 44.79 -19.97, 45.26 -16.95 C45.72 -13.93, 45.33 -10.61, 44.48 -9.16 C43.63 -7.71, 40.27 -8.3, 40.15 -8.24 C40.04 -8.19, 44.2 -8.92, 43.77 -8.82 C43.34 -8.71, 40.14 -7.57, 37.57 -7.62 C35.01 -7.67, 30.03 -9.84, 28.38 -9.1 C26.73 -8.35, 27.95 -3.94, 27.67 -3.15 C27.39 -2.37, 27.44 -2.77, 26.7 -4.38 C25.95 -5.99, 24.34 -12.04, 23.21 -12.81 C22.07 -13.59, 19.62 -8.92, 19.88 -9.04 C20.14 -9.17, 24.92 -13.28, 24.78 -13.56 C24.64 -13.84, 19.82 -11.01, 19.05 -10.73 C18.29 -10.44, 20.21 -11.15, 20.19 -11.86 C20.17 -12.57, 19.64 -15.07, 18.92 -15 C18.2 -14.93, 17.49 -12.35, 15.87 -11.42 C14.25 -10.49, 9.55 -9.78, 9.2 -9.42 C8.85 -9.06, 12.72 -9.18, 13.79 -9.26 C14.86 -9.33, 16.45 -11.48, 15.61 -9.88 C14.77 -8.28, 10.21 -0.86, 8.76 0.36 C7.3 1.57, 6.9 -2.58, 6.87 -2.59 C6.84 -2.59, 9.56 0.17, 8.59 0.32 C7.62 0.47, 2.5 -2.06, 1.04 -1.7 C-0.43 -1.34, -0.24 1.91, -0.21 2.47" stroke="none" stroke-width="0" fill="#e9ecef" fill-rule="evenodd"></path><path fill="#1e1e1e" d="M -0.74,1.11 Q -0.74,1.11 -2.49,0.56 -4.23,0.01 -5.09,-1.11 -5.95,-2.24 -7.03,-3.31 -8.10,-4.37 -9.18,-5.42 -10.26,-6.46 -10.18,-8.16 -10.11,-9.86 -9.44,-10.72 -8.78,-11.59 -7.77,-12.57 -6.77,-13.55 -5.34,-14.96 -3.91,-16.37 -2.82,-17.45 -1.73,-18.53 -0.76,-19.48 0.20,-20.43 1.42,-21.07 2.64,-21.70 4.45,-22.68 6.26,-23.66 7.78,-24.39 9.31,-25.12 8.32,-26.04 7.33,-26.96 6.40,-28.47 5.47,-29.98 4.76,-30.88 4.04,-31.77 3.26,-32.65 2.48,-33.53 2.04,-35.57 1.60,-37.61 2.16,-38.67 2.72,-39.73 3.86,-40.21 5.01,-40.70 7.15,-41.52 9.29,-42.35 10.42,-42.46 11.56,-42.58 13.04,-42.64 14.52,-42.69 16.10,-42.72 17.67,-42.74 18.82,-42.76 19.96,-42.77 21.41,-42.78 22.86,-42.79 23.95,-42.79 25.04,-42.80 26.47,-42.80 27.89,-42.81 29.45,-42.81 31.02,-42.81 32.23,-42.80 33.44,-42.78 34.94,-42.18 36.45,-41.58 38.44,-41.41 40.43,-41.25 41.87,-40.59 43.31,-39.92 44.86,-39.57 46.41,-39.23 47.46,-38.27 48.51,-37.32 48.87,-36.15 49.23,-34.97 49.35,-32.63 49.47,-30.29 49.46,-29.17 49.45,-28.05 48.84,-26.57 48.23,-25.09 48.09,-22.75 47.94,-20.41 47.36,-18.46 46.78,-16.51 45.87,-14.10 44.96,-11.69 44.79,-10.48 44.62,-9.26 44.36,-8.11 44.10,-6.96 43.33,-6.07 42.56,-5.18 41.53,-3.29 40.49,-1.40 39.15,-1.12 37.80,-0.84 36.32,-1.37 34.83,-1.90 33.35,-2.21 31.88,-2.53 31.01,-3.32 30.14,-4.11 28.96,-4.67 27.78,-5.23 26.42,-6.36 25.06,-7.49 24.17,-8.39 23.28,-9.30 22.46,-10.16 21.64,-11.02 20.84,-10.12 20.04,-9.22 18.72,-8.63 17.39,-8.04 16.59,-7.21 15.79,-6.39 14.97,-5.54 14.15,-4.70 13.32,-3.86 12.49,-3.02 11.45,-1.97 10.41,-0.91 8.97,-0.20 7.54,0.50 6.47,1.47 5.40,2.43 3.10,2.01 0.80,1.60 0.61,1.51 0.42,1.41 0.27,1.27 0.12,1.12 0.02,0.93 -0.07,0.74 -0.10,0.53 -0.13,0.32 -0.10,0.11 -0.06,-0.09 0.03,-0.27 0.13,-0.46 0.29,-0.61 0.45,-0.75 0.64,-0.84 0.83,-0.92 1.05,-0.94 1.26,-0.96 1.46,-0.92 1.67,-0.87 1.85,-0.76 2.03,-0.65 2.17,-0.48 2.30,-0.32 2.38,-0.12 2.46,0.07 2.47,0.28 2.47,0.49 2.42,0.70 2.36,0.90 2.23,1.08 2.11,1.25 1.94,1.38 1.77,1.50 1.57,1.57 1.37,1.63 1.16,1.63 0.94,1.63 0.74,1.56 0.54,1.49 0.37,1.36 0.21,1.23 0.09,1.05 -0.02,0.87 -0.07,0.67 -0.13,0.46 -0.11,0.25 -0.10,0.04 -0.02,-0.15 0.05,-0.34 0.19,-0.50 0.33,-0.66 0.52,-0.77 0.70,-0.88 0.91,-0.92 1.11,-0.97 1.33,-0.94 1.54,-0.92 1.54,-0.92 1.54,-0.92 2.35,-1.79 3.17,-2.66 4.53,-3.80 5.89,-4.94 6.96,-5.39 8.02,-5.83 8.86,-6.66 9.69,-7.49 10.54,-8.32 11.39,-9.14 12.26,-9.97 13.12,-10.80 14.06,-11.66 15.00,-12.53 15.81,-13.32 16.61,-14.10 18.31,-14.72 20.01,-15.34 21.78,-15.37 23.54,-15.41 24.60,-14.41 25.66,-13.41 26.51,-12.60 27.36,-11.80 28.22,-11.05 29.08,-10.30 30.48,-9.63 31.88,-8.97 33.50,-8.22 35.13,-7.47 36.39,-7.14 37.65,-6.81 38.33,-8.37 39.01,-9.94 39.15,-10.99 39.29,-12.05 40.09,-13.84 40.89,-15.63 41.15,-16.93 41.40,-18.23 41.85,-19.50 42.30,-20.77 42.40,-22.42 42.49,-24.07 42.83,-25.84 43.16,-27.61 43.47,-28.89 43.77,-30.17 43.39,-32.20 43.01,-34.22 41.39,-34.94 39.76,-35.66 38.66,-35.75 37.56,-35.83 35.37,-36.52 33.17,-37.21 32.10,-37.19 31.02,-37.18 29.46,-37.18 27.89,-37.18 26.47,-37.19 25.05,-37.19 23.96,-37.19 22.87,-37.19 21.43,-37.20 20.00,-37.20 18.87,-37.20 17.74,-37.19 16.21,-37.18 14.69,-37.18 13.39,-37.15 12.08,-37.12 10.41,-37.03 8.73,-36.94 7.67,-37.02 6.61,-37.09 7.48,-36.13 8.35,-35.18 9.26,-34.01 10.18,-32.85 10.82,-31.78 11.46,-30.70 12.25,-29.84 13.05,-28.98 13.91,-27.19 14.78,-25.41 13.93,-23.99 13.09,-22.58 11.64,-21.46 10.20,-20.35 8.55,-19.50 6.90,-18.66 5.28,-17.72 3.67,-16.78 2.75,-15.85 1.83,-14.93 0.74,-13.84 -0.35,-12.75 -1.81,-11.32 -3.27,-9.88 -4.67,-9.05 -6.07,-8.22 -5.16,-7.30 -4.26,-6.37 -2.88,-5.11 -1.51,-3.85 -0.38,-2.48 0.74,-1.11 0.86,-1.00 0.98,-0.90 1.07,-0.77 1.17,-0.63 1.23,-0.49 1.29,-0.34 1.31,-0.18 1.33,-0.02 1.31,0.13 1.30,0.29 1.24,0.45 1.19,0.60 1.10,0.73 1.01,0.86 0.89,0.97 0.77,1.08 0.63,1.16 0.49,1.24 0.33,1.28 0.18,1.32 0.02,1.32 -0.13,1.32 -0.29,1.29 -0.45,1.25 -0.59,1.18 -0.74,1.11 -0.74,1.11 L -0.74,1.11 Z"></path></g></svg>