<?xml version="1.0" encoding="UTF-8"?>
<svg id="Layer_2" data-name="Layer 2" xmlns="http://www.w3.org/2000/svg" viewBox="0 0 307.65 230.62">
  <defs>
    <style>
      .cls-1 {
        fill: #9e9e9e;
        stroke-width: 0px;
      }
    </style>
  </defs>
  <g id="Layer_2-2">
    <g>
      <path class="cls-1" d="M304.94,106.16c-10.09-3.78-20.5-6.43-31.18-7.87-5.89-.79-12.37-1.64-18.68-1.52,2.54-5.9,4.55-12.17,7.24-17.43,3.44-6.72,6.87-13.32,8.64-20.71,1.88-7.85,2.34-15.98,2.8-24,.14-2.47-1.64-3.74-3.55-3.83-.24-2.1-.73-4.06-1.69-5.65,2.47-1.28,3.56-5.24.42-7.06-10.74-6.23-22.09-12.54-33.85-16.67-3.97-1.4-8.77-2.21-12.67-.17-1.7.89-3.05,2.21-3.99,3.88-.86,1.52-.86,5.05-1.94,6.15-1.65,1.68-6.42-1.15-8.19-1.75-2.88-.97-5.8-1.85-8.75-2.62-4.55-1.18-10.86-3.57-15.52-1.88-5.05,1.83-6.01,7.72-6.72,12.39-.95,6.31-.71,12.48.41,18.75.9,5.06,8.62,2.92,7.71-2.13-.96-5.38-1.1-10.94-.1-16.32.68-3.69,1.89-5.38,5.87-4.55,2.39.5,4.76,1.06,7.11,1.69,4.67,1.25,9.13,2.99,13.71,4.5,3.29,1.08,6.95,1.27,9.64-1.3,2.48-2.37,1.94-5.48,3.42-8.21,2.15-3.98,8.53-.52,11.6.82,7.04,3.06,13.92,6.44,20.66,10.09-3.94-.02-7.97.68-11.59,1.57-2.04.5-2.88,2.09-2.83,3.7-5.3,5.18-7.66,12.96-5.07,20.31,1.69,4.81,5.15,8.87,9.7,11.2,3.59,1.84,9.36,4.05,13.38,2.67.54-.19,1.03-.44,1.48-.74-1.54,4.94-3.73,9.56-6.15,14.23-2.95,5.71-5.32,11.5-7.64,17.48-.84,2.17-1.77,4.47-2.89,6.66-.6.14-1.2.29-1.78.47-6.58,1.92-11.6,5.75-15.33,10.65-9.53-.89-18.69-9.78-24-16.5-9.08-11.51-17.99-23.17-26.98-34.76-3.15-4.06-8.78,1.64-5.66,5.66,5.66,7.29,11.31,14.57,16.97,21.86,4.83,6.23,9.41,12.86,14.83,18.6,3.67,3.89,8.53,7.49,13.85,9.9-.63.84-.97,1.92-.76,3.2.13.79.24,1.58.35,2.36-26.72-17.51-57.77-27.09-89.21-31.92-8.14-1.25-16.32-2.22-24.52-2.96-4.47-.4-8.95-.73-13.43-.99-1.54-.09-3.52.14-5.03-.27-2.57-.7-1.76.48-2.12-2.71-1.55-13.83-12.25-25.55-26.01-28.01-2.6-.47-6.23,1.82-4.92,4.92,1.24,2.94,2.48,5.88,3.72,8.82.68,1.62,1.3,3.71,2.2,5.23-2.21-.54-5.53-.45-7.32-.64-3.44-.36-6.89-.57-10.34-.65-12.62-.26-25.22,1.47-37.37,4.86-3.49.97-3.72,5.42-.96,7.31,10.84,7.4,23.3,11.63,36.32,12.52,1.59,5.53,6.84,9.44,12.74,10.17,9.09,1.14,16.43-5.6,21.77-12.1,3.24-3.95-2.39-9.64-5.66-5.66-3.12,3.79-6.83,8.27-11.8,9.57-4.07,1.06-9.66-.98-9.53-5.82.06-2.2-1.88-3.95-4-4-9.57-.21-18.71-2.47-27.13-6.57,12.89-2.54,26.11-3.05,39.18-1.25,4.4.61,11.67,2.02,13.02-4.07.59-2.65-.91-5.16-1.9-7.52-.62-1.48-1.25-2.96-1.87-4.44,3.67,2.11,6.76,5.14,8.97,8.97,1.76,3.05,2.64,6.25,3.02,9.71.34,3.09.62,6.14,3.47,8.02,2.73,1.8,6.81,1.32,9.89,1.5,3.92.22,7.84.49,11.75.8,8.62.7,17.21,1.65,25.76,2.96,32.7,5.02,64.74,15.09,91.99,34.29.11,17.19-4.29,34.38-3.49,51.62-1.98.27-3.96.58-5.92.95-10.62,2.04-22.86,6.01-30.49,14.11-8.71,9.25-5.79,21.28-1.58,31.89,1.88,4.73,9.62,2.67,7.71-2.13-3.53-8.91-7-19.01,1.65-26.1,6.89-5.65,16.23-8.41,24.82-10.06,4.49-.86,9.03-1.37,13.59-1.69,2.22-.16,4.73-.58,6.94-.37,3.43.33,4.19,1.27,5.49,4.3,3.96,9.21,7.21,18.72,9.99,28.35,1.43,4.94,9.15,2.84,7.71-2.13-1.86-6.45-3.94-12.83-6.3-19.11-1.9-5.06-3.67-11.95-7.19-16.17-3.56-4.27-9.06-3.31-14.04-3.03-1.48.08-2.96.19-4.44.31-.46-12.11,1.38-24.1,2.51-36.11,1.57-.39,2.88-1.62,2.85-3.71-.1-8.08,1.46-16.85,5.49-23.62,2.26-.23,4.49-.79,6.64-1.75,4.77-2.13,8.19-5.6,10.89-9.73.27-.03.54-.07.82-.09,17.19-1.34,35.3,2.78,51.3,8.77,4.83,1.81,6.91-5.92,2.13-7.71ZM261.2,42.75c-.5,2.03-1.29,7.95-2.93,9.26-1.36,1.09-5.8-.88-7.39-1.77-2.66-1.48-4.63-3.86-5.56-6.77-.59-1.84-.68-3.65-.36-5.36.54.26,1.12.41,1.79.48.78.08,1.6.25,2.38.26,2.18.02,3.6-1.73,4.25-3.61.38-1.11.35-2.27.14-3.41-.18-1.02-.69-1.85-1.3-2.65,1.75-.25,3.51-.39,5.3-.34,3.92.11,4.72.28,4.88,4.27.13,3.26-.42,6.48-1.2,9.63Z"/>
      <path class="cls-1" d="M213.37,33.07c-.53-.59-1.23-1.02-2.08-1.12-.5-.26-.98-.52-1.45-.76-3.07-1.61-5.89.99-6.02,3.6-2.64,1.62-4.95,3.72-6.55,6.22-.85-.21-1.7-.41-2.54-.64-4.97-1.37-7.09,6.35-2.13,7.71.79.22,1.58.4,2.37.6,0,0,0,0,0,0-1.1.19-2.2.35-3.3.55-5.06.92-2.91,8.64,2.13,7.71,1.16-.21,2.32-.39,3.48-.58,3.73,5.68,11.3,8.35,17.85,9.54,9.48,1.71,14.04-6.16,13.99-14.88-.05-8.32-8.56-14-15.74-17.95ZM210.04,40.49c2.45,1.47,4.81,3.08,7.04,4.88-3.87-.42-7.69-1.08-11.48-1.98,1.28-1.21,2.87-2.2,4.44-2.9ZM215.83,57.87c-2.62-.26-6.16-1.25-8.83-2.94,4.42-.54,8.85-.96,13.31-1.24.16-.01.3-.05.45-.07-.54,3.04-1.5,4.6-4.93,4.26Z"/>
      <path class="cls-1" d="M236.61,77.41c-2.63,2.93-5.15,5.75-9.04,6.91-3.6,1.07-7.53,1.4-11.24,2.02-5.07.84-2.92,8.55,2.13,7.71,4.64-.77,9.67-1.11,14.02-3,3.96-1.72,6.95-4.82,9.79-7.98,3.43-3.82-2.21-9.5-5.66-5.66Z"/>
    </g>
  </g>
</svg>